ISO-10303-21;
HEADER;
FILE_DESCRIPTION(('Open CASCADE Model'),'2;1');
FILE_NAME('Open CASCADE Shape Model','2026-10-08T14:08:47',('Author'),(
    'Open CASCADE'),'Open CASCADE STEP processor 7.9','Open CASCADE 7.9'
  ,'Unknown');
FILE_SCHEMA(('AUTOMOTIVE_DESIGN { 1 0 10303 214 1 1 1 1 }'));
ENDSEC;
DATA;
#1 = APPLICATION_PROTOCOL_DEFINITION('international standard',
  'automotive_design',2000,#2);
#2 = APPLICATION_CONTEXT(
  'core data for automotive mechanical design processes');
#3 = SHAPE_DEFINITION_REPRESENTATION(#4,#10);
#4 = PRODUCT_DEFINITION_SHAPE('','',#5);
#5 = PRODUCT_DEFINITION('design','',#6,#9);
#6 = PRODUCT_DEFINITION_FORMATION('','',#7);
#7 = PRODUCT('Open CASCADE STEP translator 7.9 4',
  'Open CASCADE STEP translator 7.9 4','',(#8));
#8 = PRODUCT_CONTEXT('',#2,'mechanical');
#9 = PRODUCT_DEFINITION_CONTEXT('part definition',#2,'design');
#10 = ADVANCED_BREP_SHAPE_REPRESENTATION('',(#11,#15),#1541);
#11 = AXIS2_PLACEMENT_3D('',#12,#13,#14);
#12 = CARTESIAN_POINT('',(0.,0.,0.));
#13 = DIRECTION('',(0.,0.,1.));
#14 = DIRECTION('',(1.,0.,-0.));
#15 = MANIFOLD_SOLID_BREP('',#16);
#16 = CLOSED_SHELL('',(#17,#609,#747,#796,#845,#924,#1028,#1077,#1126,
    #1186,#1316,#1446,#1453,#1486));
#17 = ADVANCED_FACE('',(#18,#143,#267,#438),#33,.T.);
#18 = FACE_BOUND('',#19,.F.);
#19 = EDGE_LOOP('',(#20,#56,#84,#117));
#20 = ORIENTED_EDGE('',*,*,#21,.F.);
#21 = EDGE_CURVE('',#22,#24,#26,.T.);
#22 = VERTEX_POINT('',#23);
#23 = CARTESIAN_POINT('',(21.95431863395,-1.417001523988,
    9.999999939225E-08));
#24 = VERTEX_POINT('',#25);
#25 = CARTESIAN_POINT('',(12.20431863395,-18.30449689778,
    9.999999939225E-08));
#26 = SURFACE_CURVE('',#27,(#32,#44),.PCURVE_S1.);
#27 = CIRCLE('',#28,22.);
#28 = AXIS2_PLACEMENT_3D('',#29,#30,#31);
#29 = CARTESIAN_POINT('',(-1.7763568394E-15,0.,9.999999939225E-08));
#30 = DIRECTION('',(0.,0.,1.));
#31 = DIRECTION('',(0.99792357427,-6.440916018129E-02,0.));
#32 = PCURVE('',#33,#38);
#33 = CYLINDRICAL_SURFACE('',#34,22.);
#34 = AXIS2_PLACEMENT_3D('',#35,#36,#37);
#35 = CARTESIAN_POINT('',(-1.7763568394E-15,0.,9.999999939225E-08));
#36 = DIRECTION('',(-0.,-0.,-1.));
#37 = DIRECTION('',(1.,0.,0.));
#38 = DEFINITIONAL_REPRESENTATION('',(#39),#43);
#39 = LINE('',#40,#41);
#40 = CARTESIAN_POINT('',(-6.218731529659,0.));
#41 = VECTOR('',#42,1.);
#42 = DIRECTION('',(-1.,0.));
#43 = ( GEOMETRIC_REPRESENTATION_CONTEXT(2) 
PARAMETRIC_REPRESENTATION_CONTEXT() REPRESENTATION_CONTEXT('2D SPACE',''
  ) );
#44 = PCURVE('',#45,#50);
#45 = PLANE('',#46);
#46 = AXIS2_PLACEMENT_3D('',#47,#48,#49);
#47 = CARTESIAN_POINT('',(-3.268109711261E-15,-8.980743193747E-16,
    9.999999939225E-08));
#48 = DIRECTION('',(0.,0.,1.));
#49 = DIRECTION('',(1.,0.,-0.));
#50 = DEFINITIONAL_REPRESENTATION('',(#51),#55);
#51 = CIRCLE('',#52,22.);
#52 = AXIS2_PLACEMENT_2D('',#53,#54);
#53 = CARTESIAN_POINT('',(1.491752871861E-15,8.980743193747E-16));
#54 = DIRECTION('',(0.99792357427,-6.440916018129E-02));
#55 = ( GEOMETRIC_REPRESENTATION_CONTEXT(2) 
PARAMETRIC_REPRESENTATION_CONTEXT() REPRESENTATION_CONTEXT('2D SPACE',''
  ) );
#56 = ORIENTED_EDGE('',*,*,#57,.F.);
#57 = EDGE_CURVE('',#58,#22,#60,.T.);
#58 = VERTEX_POINT('',#59);
#59 = CARTESIAN_POINT('',(21.95431863395,-1.417001523988,23.0000001));
#60 = SURFACE_CURVE('',#61,(#65,#72),.PCURVE_S1.);
#61 = LINE('',#62,#63);
#62 = CARTESIAN_POINT('',(21.95431863395,-1.417001523988,
    9.999999939225E-08));
#63 = VECTOR('',#64,1.);
#64 = DIRECTION('',(-0.,-0.,-1.));
#65 = PCURVE('',#33,#66);
#66 = DEFINITIONAL_REPRESENTATION('',(#67),#71);
#67 = LINE('',#68,#69);
#68 = CARTESIAN_POINT('',(-6.218731529659,0.));
#69 = VECTOR('',#70,1.);
#70 = DIRECTION('',(-0.,1.));
#71 = ( GEOMETRIC_REPRESENTATION_CONTEXT(2) 
PARAMETRIC_REPRESENTATION_CONTEXT() REPRESENTATION_CONTEXT('2D SPACE',''
  ) );
#72 = PCURVE('',#73,#78);
#73 = PLANE('',#74);
#74 = AXIS2_PLACEMENT_3D('',#75,#76,#77);
#75 = CARTESIAN_POINT('',(19.857239485471,-0.206252313102,
    9.999999939225E-08));
#76 = DIRECTION('',(0.5,0.866025403784,0.));
#77 = DIRECTION('',(0.,0.,1.));
#78 = DEFINITIONAL_REPRESENTATION('',(#79),#83);
#79 = LINE('',#80,#81);
#80 = CARTESIAN_POINT('',(0.,2.421498421773));
#81 = VECTOR('',#82,1.);
#82 = DIRECTION('',(-1.,0.));
#83 = ( GEOMETRIC_REPRESENTATION_CONTEXT(2) 
PARAMETRIC_REPRESENTATION_CONTEXT() REPRESENTATION_CONTEXT('2D SPACE',''
  ) );
#84 = ORIENTED_EDGE('',*,*,#85,.F.);
#85 = EDGE_CURVE('',#86,#58,#88,.T.);
#86 = VERTEX_POINT('',#87);
#87 = CARTESIAN_POINT('',(12.20431863395,-18.30449689778,23.0000001));
#88 = SURFACE_CURVE('',#89,(#94,#101),.PCURVE_S1.);
#89 = CIRCLE('',#90,22.);
#90 = AXIS2_PLACEMENT_3D('',#91,#92,#93);
#91 = CARTESIAN_POINT('',(-1.7763568394E-15,0.,23.0000001));
#92 = DIRECTION('',(0.,-0.,-1.));
#93 = DIRECTION('',(0.554741756089,-0.832022586263,0.));
#94 = PCURVE('',#33,#95);
#95 = DEFINITIONAL_REPRESENTATION('',(#96),#100);
#96 = LINE('',#97,#98);
#97 = CARTESIAN_POINT('',(-11.58362684068,-23.));
#98 = VECTOR('',#99,1.);
#99 = DIRECTION('',(1.,-0.));
#100 = ( GEOMETRIC_REPRESENTATION_CONTEXT(2) 
PARAMETRIC_REPRESENTATION_CONTEXT() REPRESENTATION_CONTEXT('2D SPACE',''
  ) );
#101 = PCURVE('',#102,#107);
#102 = PLANE('',#103);
#103 = AXIS2_PLACEMENT_3D('',#104,#105,#106);
#104 = CARTESIAN_POINT('',(-3.268109711261E-15,-8.980743193747E-16,
    23.0000001));
#105 = DIRECTION('',(0.,0.,1.));
#106 = DIRECTION('',(1.,0.,-0.));
#107 = DEFINITIONAL_REPRESENTATION('',(#108),#116);
#108 = ( BOUNDED_CURVE() B_SPLINE_CURVE(2,(#109,#110,#111,#112,#113,#114
,#115),.UNSPECIFIED.,.T.,.F.) B_SPLINE_CURVE_WITH_KNOTS((1,2,2,2,2,1),(
    -2.094395102393,0.,2.094395102393,4.188790204786,6.28318530718,
8.377580409573),.UNSPECIFIED.) CURVE() GEOMETRIC_REPRESENTATION_ITEM() 
RATIONAL_B_SPLINE_CURVE((1.,0.5,1.,0.5,1.,0.5,1.)) REPRESENTATION_ITEM(
  '') );
#109 = CARTESIAN_POINT('',(12.20431863395,-18.30449689778));
#110 = CARTESIAN_POINT('',(-19.5,-39.44299684354));
#111 = CARTESIAN_POINT('',(-21.95431863395,-1.417001523988));
#112 = CARTESIAN_POINT('',(-24.4086372679,36.60899379557));
#113 = CARTESIAN_POINT('',(9.75,19.721498421773));
#114 = CARTESIAN_POINT('',(43.9086372679,2.834003047977));
#115 = CARTESIAN_POINT('',(12.20431863395,-18.30449689778));
#116 = ( GEOMETRIC_REPRESENTATION_CONTEXT(2) 
PARAMETRIC_REPRESENTATION_CONTEXT() REPRESENTATION_CONTEXT('2D SPACE',''
  ) );
#117 = ORIENTED_EDGE('',*,*,#118,.T.);
#118 = EDGE_CURVE('',#86,#24,#119,.T.);
#119 = SURFACE_CURVE('',#120,(#124,#131),.PCURVE_S1.);
#120 = LINE('',#121,#122);
#121 = CARTESIAN_POINT('',(12.20431863395,-18.30449689778,
    9.999999939225E-08));
#122 = VECTOR('',#123,1.);
#123 = DIRECTION('',(-0.,-0.,-1.));
#124 = PCURVE('',#33,#125);
#125 = DEFINITIONAL_REPRESENTATION('',(#126),#130);
#126 = LINE('',#127,#128);
#127 = CARTESIAN_POINT('',(-11.58362684068,0.));
#128 = VECTOR('',#129,1.);
#129 = DIRECTION('',(-0.,1.));
#130 = ( GEOMETRIC_REPRESENTATION_CONTEXT(2) 
PARAMETRIC_REPRESENTATION_CONTEXT() REPRESENTATION_CONTEXT('2D SPACE',''
  ) );
#131 = PCURVE('',#132,#137);
#132 = PLANE('',#133);
#133 = AXIS2_PLACEMENT_3D('',#134,#135,#136);
#134 = CARTESIAN_POINT('',(10.107239485471,-17.09374768689,
    9.999999939225E-08));
#135 = DIRECTION('',(0.5,0.866025403784,0.));
#136 = DIRECTION('',(0.,0.,1.));
#137 = DEFINITIONAL_REPRESENTATION('',(#138),#142);
#138 = LINE('',#139,#140);
#139 = CARTESIAN_POINT('',(0.,2.421498421773));
#140 = VECTOR('',#141,1.);
#141 = DIRECTION('',(-1.,0.));
#142 = ( GEOMETRIC_REPRESENTATION_CONTEXT(2) 
PARAMETRIC_REPRESENTATION_CONTEXT() REPRESENTATION_CONTEXT('2D SPACE',''
  ) );
#143 = FACE_BOUND('',#144,.F.);
#144 = EDGE_LOOP('',(#145,#180,#208,#241));
#145 = ORIENTED_EDGE('',*,*,#146,.F.);
#146 = EDGE_CURVE('',#147,#149,#151,.T.);
#147 = VERTEX_POINT('',#148);
#148 = CARTESIAN_POINT('',(18.849409439665,11.344591829408,2.7500001));
#149 = VERTEX_POINT('',#150);
#150 = CARTESIAN_POINT('',(19.249409439665,10.65177150638,2.7500001));
#151 = SURFACE_CURVE('',#152,(#157,#164),.PCURVE_S1.);
#152 = CIRCLE('',#153,22.);
#153 = AXIS2_PLACEMENT_3D('',#154,#155,#156);
#154 = CARTESIAN_POINT('',(-1.7763568394E-15,0.,2.7500001));
#155 = DIRECTION('',(0.,0.,-1.));
#156 = DIRECTION('',(1.,0.,0.));
#157 = PCURVE('',#33,#158);
#158 = DEFINITIONAL_REPRESENTATION('',(#159),#163);
#159 = LINE('',#160,#161);
#160 = CARTESIAN_POINT('',(-12.56637061435,-2.75));
#161 = VECTOR('',#162,1.);
#162 = DIRECTION('',(1.,-0.));
#163 = ( GEOMETRIC_REPRESENTATION_CONTEXT(2) 
PARAMETRIC_REPRESENTATION_CONTEXT() REPRESENTATION_CONTEXT('2D SPACE',''
  ) );
#164 = PCURVE('',#165,#170);
#165 = PLANE('',#166);
#166 = AXIS2_PLACEMENT_3D('',#167,#168,#169);
#167 = CARTESIAN_POINT('',(17.174097914175,9.453589838486,2.7500001));
#168 = DIRECTION('',(0.,0.,1.));
#169 = DIRECTION('',(0.866025403784,0.5,0.));
#170 = DEFINITIONAL_REPRESENTATION('',(#171),#179);
#171 = ( BOUNDED_CURVE() B_SPLINE_CURVE(2,(#172,#173,#174,#175,#176,#177
,#178),.UNSPECIFIED.,.T.,.F.) B_SPLINE_CURVE_WITH_KNOTS((1,2,2,2,2,1),(
    -2.094395102393,0.,2.094395102393,4.188790204786,6.28318530718,
8.377580409573),.UNSPECIFIED.) CURVE() GEOMETRIC_REPRESENTATION_ITEM() 
RATIONAL_B_SPLINE_CURVE((1.,0.5,1.,0.5,1.,0.5,1.)) REPRESENTATION_ITEM(
  '') );
#172 = CARTESIAN_POINT('',(-0.547441116742,-10.6));
#173 = CARTESIAN_POINT('',(-19.6,-43.6));
#174 = CARTESIAN_POINT('',(-38.65255888325,-10.6));
#175 = CARTESIAN_POINT('',(-57.70511776651,22.4));
#176 = CARTESIAN_POINT('',(-19.6,22.4));
#177 = CARTESIAN_POINT('',(18.505117766515,22.4));
#178 = CARTESIAN_POINT('',(-0.547441116742,-10.6));
#179 = ( GEOMETRIC_REPRESENTATION_CONTEXT(2) 
PARAMETRIC_REPRESENTATION_CONTEXT() REPRESENTATION_CONTEXT('2D SPACE',''
  ) );
#180 = ORIENTED_EDGE('',*,*,#181,.F.);
#181 = EDGE_CURVE('',#182,#147,#184,.T.);
#182 = VERTEX_POINT('',#183);
#183 = CARTESIAN_POINT('',(18.849409439665,11.344591829408,20.2500001));
#184 = SURFACE_CURVE('',#185,(#189,#196),.PCURVE_S1.);
#185 = LINE('',#186,#187);
#186 = CARTESIAN_POINT('',(18.849409439665,11.344591829408,
    9.999999939225E-08));
#187 = VECTOR('',#188,1.);
#188 = DIRECTION('',(-0.,-0.,-1.));
#189 = PCURVE('',#33,#190);
#190 = DEFINITIONAL_REPRESENTATION('',(#191),#195);
#191 = LINE('',#192,#193);
#192 = CARTESIAN_POINT('',(-6.824966902862,0.));
#193 = VECTOR('',#194,1.);
#194 = DIRECTION('',(-0.,1.));
#195 = ( GEOMETRIC_REPRESENTATION_CONTEXT(2) 
PARAMETRIC_REPRESENTATION_CONTEXT() REPRESENTATION_CONTEXT('2D SPACE',''
  ) );
#196 = PCURVE('',#197,#202);
#197 = PLANE('',#198);
#198 = AXIS2_PLACEMENT_3D('',#199,#200,#201);
#199 = CARTESIAN_POINT('',(16.774097914175,10.146410161514,2.7500001));
#200 = DIRECTION('',(-0.5,0.866025403784,0.));
#201 = DIRECTION('',(0.,0.,1.));
#202 = DEFINITIONAL_REPRESENTATION('',(#203),#207);
#203 = LINE('',#204,#205);
#204 = CARTESIAN_POINT('',(-2.75,2.396363335788));
#205 = VECTOR('',#206,1.);
#206 = DIRECTION('',(-1.,0.));
#207 = ( GEOMETRIC_REPRESENTATION_CONTEXT(2) 
PARAMETRIC_REPRESENTATION_CONTEXT() REPRESENTATION_CONTEXT('2D SPACE',''
  ) );
#208 = ORIENTED_EDGE('',*,*,#209,.T.);
#209 = EDGE_CURVE('',#182,#210,#212,.T.);
#210 = VERTEX_POINT('',#211);
#211 = CARTESIAN_POINT('',(19.249409439665,10.65177150638,20.2500001));
#212 = SURFACE_CURVE('',#213,(#218,#225),.PCURVE_S1.);
#213 = CIRCLE('',#214,22.);
#214 = AXIS2_PLACEMENT_3D('',#215,#216,#217);
#215 = CARTESIAN_POINT('',(-1.7763568394E-15,0.,20.2500001));
#216 = DIRECTION('',(0.,0.,-1.));
#217 = DIRECTION('',(1.,0.,0.));
#218 = PCURVE('',#33,#219);
#219 = DEFINITIONAL_REPRESENTATION('',(#220),#224);
#220 = LINE('',#221,#222);
#221 = CARTESIAN_POINT('',(-12.56637061435,-20.25));
#222 = VECTOR('',#223,1.);
#223 = DIRECTION('',(1.,-0.));
#224 = ( GEOMETRIC_REPRESENTATION_CONTEXT(2) 
PARAMETRIC_REPRESENTATION_CONTEXT() REPRESENTATION_CONTEXT('2D SPACE',''
  ) );
#225 = PCURVE('',#226,#231);
#226 = PLANE('',#227);
#227 = AXIS2_PLACEMENT_3D('',#228,#229,#230);
#228 = CARTESIAN_POINT('',(17.174097914175,9.453589838486,20.2500001));
#229 = DIRECTION('',(0.,0.,1.));
#230 = DIRECTION('',(0.866025403784,0.5,0.));
#231 = DEFINITIONAL_REPRESENTATION('',(#232),#240);
#232 = ( BOUNDED_CURVE() B_SPLINE_CURVE(2,(#233,#234,#235,#236,#237,#238
,#239),.UNSPECIFIED.,.T.,.F.) B_SPLINE_CURVE_WITH_KNOTS((1,2,2,2,2,1),(
    -2.094395102393,0.,2.094395102393,4.188790204786,6.28318530718,
8.377580409573),.UNSPECIFIED.) CURVE() GEOMETRIC_REPRESENTATION_ITEM() 
RATIONAL_B_SPLINE_CURVE((1.,0.5,1.,0.5,1.,0.5,1.)) REPRESENTATION_ITEM(
  '') );
#233 = CARTESIAN_POINT('',(-0.547441116742,-10.6));
#234 = CARTESIAN_POINT('',(-19.6,-43.6));
#235 = CARTESIAN_POINT('',(-38.65255888325,-10.6));
#236 = CARTESIAN_POINT('',(-57.70511776651,22.4));
#237 = CARTESIAN_POINT('',(-19.6,22.4));
#238 = CARTESIAN_POINT('',(18.505117766515,22.4));
#239 = CARTESIAN_POINT('',(-0.547441116742,-10.6));
#240 = ( GEOMETRIC_REPRESENTATION_CONTEXT(2) 
PARAMETRIC_REPRESENTATION_CONTEXT() REPRESENTATION_CONTEXT('2D SPACE',''
  ) );
#241 = ORIENTED_EDGE('',*,*,#242,.T.);
#242 = EDGE_CURVE('',#210,#149,#243,.T.);
#243 = SURFACE_CURVE('',#244,(#248,#255),.PCURVE_S1.);
#244 = LINE('',#245,#246);
#245 = CARTESIAN_POINT('',(19.249409439665,10.65177150638,
    9.999999939225E-08));
#246 = VECTOR('',#247,1.);
#247 = DIRECTION('',(-0.,-0.,-1.));
#248 = PCURVE('',#33,#249);
#249 = DEFINITIONAL_REPRESENTATION('',(#250),#254);
#250 = LINE('',#251,#252);
#251 = CARTESIAN_POINT('',(-6.788601262694,0.));
#252 = VECTOR('',#253,1.);
#253 = DIRECTION('',(-0.,1.));
#254 = ( GEOMETRIC_REPRESENTATION_CONTEXT(2) 
PARAMETRIC_REPRESENTATION_CONTEXT() REPRESENTATION_CONTEXT('2D SPACE',''
  ) );
#255 = PCURVE('',#256,#261);
#256 = PLANE('',#257);
#257 = AXIS2_PLACEMENT_3D('',#258,#259,#260);
#258 = CARTESIAN_POINT('',(17.174097914175,9.453589838486,2.7500001));
#259 = DIRECTION('',(-0.5,0.866025403784,0.));
#260 = DIRECTION('',(0.,0.,1.));
#261 = DEFINITIONAL_REPRESENTATION('',(#262),#266);
#262 = LINE('',#263,#264);
#263 = CARTESIAN_POINT('',(-2.75,2.396363335788));
#264 = VECTOR('',#265,1.);
#265 = DIRECTION('',(-1.,0.));
#266 = ( GEOMETRIC_REPRESENTATION_CONTEXT(2) 
PARAMETRIC_REPRESENTATION_CONTEXT() REPRESENTATION_CONTEXT('2D SPACE',''
  ) );
#267 = FACE_BOUND('',#268,.F.);
#268 = EDGE_LOOP('',(#269));
#269 = ORIENTED_EDGE('',*,*,#270,.T.);
#270 = EDGE_CURVE('',#271,#271,#273,.T.);
#271 = VERTEX_POINT('',#272);
#272 = CARTESIAN_POINT('',(-11.81246366645,18.559787232853,11.5000001));
#273 = SURFACE_CURVE('',#274,(#325,#379),.PCURVE_S1.);
#274 = B_SPLINE_CURVE_WITH_KNOTS('',7,(#275,#276,#277,#278,#279,#280,
    #281,#282,#283,#284,#285,#286,#287,#288,#289,#290,#291,#292,#293,
    #294,#295,#296,#297,#298,#299,#300,#301,#302,#303,#304,#305,#306,
    #307,#308,#309,#310,#311,#312,#313,#314,#315,#316,#317,#318,#319,
    #320,#321,#322,#323,#324),.UNSPECIFIED.,.T.,.F.,(8,6,6,6,6,6,6,6,8),
  (0.,0.130191549319,0.260857972152,0.37555962712,0.507804553458,
    0.633994220952,0.760644165102,0.871820073041,1.),.UNSPECIFIED.);
#275 = CARTESIAN_POINT('',(-11.81246366645,18.559787232853,11.5000001));
#276 = CARTESIAN_POINT('',(-11.81246366645,18.559787232853,
    11.602313942381));
#277 = CARTESIAN_POINT('',(-11.80160837068,18.566696020888,
    11.704659169351));
#278 = CARTESIAN_POINT('',(-11.77988508041,18.580522313178,
    11.805054299421));
#279 = CARTESIAN_POINT('',(-11.74759514899,18.601016641114,
    11.901551885279));
#280 = CARTESIAN_POINT('',(-11.70531157699,18.627703321342,
    11.992322530206));
#281 = CARTESIAN_POINT('',(-11.65385512024,18.659918901181,
    12.07571891717));
#282 = CARTESIAN_POINT('',(-11.53450543411,18.733929989599,
    12.225192890907));
#283 = CARTESIAN_POINT('',(-11.46426577844,18.777177679807,
    12.294071415268));
#284 = CARTESIAN_POINT('',(-11.38415088421,18.826050962175,
    12.353508845228));
#285 = CARTESIAN_POINT('',(-11.29552924634,18.879473263301,
    12.400652725398));
#286 = CARTESIAN_POINT('',(-11.20034694764,18.936056784633,
    12.433309797185));
#287 = CARTESIAN_POINT('',(-11.1009587152,18.994270341856,12.4500001));
#288 = CARTESIAN_POINT('',(-10.9113763776,19.103725755507,12.4500001));
#289 = CARTESIAN_POINT('',(-10.82248117674,19.154408237482,
    12.437139184973));
#290 = CARTESIAN_POINT('',(-10.73499947692,19.203633240061,
    12.411422388697));
#291 = CARTESIAN_POINT('',(-10.65062500516,19.250496883052,
    12.373218440792));
#292 = CARTESIAN_POINT('',(-10.57101064927,19.29418873632,
    12.323246666367));
#293 = CARTESIAN_POINT('',(-10.49769424881,19.334011045709,
    12.262559454571));
#294 = CARTESIAN_POINT('',(-10.35625729096,19.410186396224,
    12.111768859971));
#295 = CARTESIAN_POINT('',(-10.29298218676,19.44381940985,
    12.021075968909));
#296 = CARTESIAN_POINT('',(-10.24244284784,19.470415590646,
    11.923229661617));
#297 = CARTESIAN_POINT('',(-10.20465628494,19.490171719714,
    11.820431814543));
#298 = CARTESIAN_POINT('',(-10.17954781626,19.503256279434,
    11.714549279228));
#299 = CARTESIAN_POINT('',(-10.16701539926,19.509787232853,
    11.607223510741));
#300 = CARTESIAN_POINT('',(-10.16701539926,19.509787232853,
    11.397686257619));
#301 = CARTESIAN_POINT('',(-10.17842623309,19.503840664973,
    11.295341030649));
#302 = CARTESIAN_POINT('',(-10.20126179858,19.491940889887,
    11.194945900579));
#303 = CARTESIAN_POINT('',(-10.23515537292,19.474224152963,
    11.098448314721));
#304 = CARTESIAN_POINT('',(-10.27940850194,19.45094884556,
    11.007677669794));
#305 = CARTESIAN_POINT('',(-10.33303624085,19.422494036745,
    10.92428128283));
#306 = CARTESIAN_POINT('',(-10.45680656665,19.356139720831,
    10.774807309093));
#307 = CARTESIAN_POINT('',(-10.52937999286,19.316934239773,
    10.705928784732));
#308 = CARTESIAN_POINT('',(-10.61176294407,19.271989347333,
    10.646491354772));
#309 = CARTESIAN_POINT('',(-10.70233883291,19.221951908176,
    10.599347474602));
#310 = CARTESIAN_POINT('',(-10.79893274917,19.16781338018,
    10.566690402815));
#311 = CARTESIAN_POINT('',(-10.89904128479,19.110847424659,10.5500001));
#312 = CARTESIAN_POINT('',(-11.0886236224,19.001392011008,10.5500001));
#313 = CARTESIAN_POINT('',(-11.17696353974,18.949747749778,
    10.562861015027));
#314 = CARTESIAN_POINT('',(-11.26333449239,18.898598876657,
    10.588577811303));
#315 = CARTESIAN_POINT('',(-11.34610683361,18.848960262183,
    10.626781759208));
#316 = CARTESIAN_POINT('',(-11.42375226642,18.801858134106,
    10.676753533633));
#317 = CARTESIAN_POINT('',(-11.49489759822,18.758275423489,
    10.737440745429));
#318 = CARTESIAN_POINT('',(-11.63158586583,18.673875100216,
    10.88823134003));
#319 = CARTESIAN_POINT('',(-11.69235046214,18.635893759362,
    10.97892423109));
#320 = CARTESIAN_POINT('',(-11.74065309981,18.605423498368,
    11.076770538384));
#321 = CARTESIAN_POINT('',(-11.77665569092,18.582577439505,
    11.179568385457));
#322 = CARTESIAN_POINT('',(-11.80054148637,18.567375147642,
    11.285450920772));
#323 = CARTESIAN_POINT('',(-11.81246366645,18.559787232853,
    11.392776689259));
#324 = CARTESIAN_POINT('',(-11.81246366645,18.559787232853,11.5000001));
#325 = PCURVE('',#33,#326);
#326 = DEFINITIONAL_REPRESENTATION('',(#327),#378);
#327 = B_SPLINE_CURVE_WITH_KNOTS('',7,(#328,#329,#330,#331,#332,#333,
    #334,#335,#336,#337,#338,#339,#340,#341,#342,#343,#344,#345,#346,
    #347,#348,#349,#350,#351,#352,#353,#354,#355,#356,#357,#358,#359,
    #360,#361,#362,#363,#364,#365,#366,#367,#368,#369,#370,#371,#372,
    #373,#374,#375,#376,#377),.UNSPECIFIED.,.T.,.F.,(8,6,6,6,6,6,6,6,8),
  (0.,0.130191549319,0.260857972152,0.37555962712,0.507804553458,
    0.633994220952,0.760644165102,0.871820073041,1.),.UNSPECIFIED.);
#328 = CARTESIAN_POINT('',(-8.420775658997,-11.5));
#329 = CARTESIAN_POINT('',(-8.420775658997,-11.60231384238));
#330 = CARTESIAN_POINT('',(-8.42019077982,-11.70465906935));
#331 = CARTESIAN_POINT('',(-8.419020318832,-11.80505419942));
#332 = CARTESIAN_POINT('',(-8.417281927001,-11.90155178527));
#333 = CARTESIAN_POINT('',(-8.415009179741,-11.9923224302));
#334 = CARTESIAN_POINT('',(-8.412249695359,-12.07571881717));
#335 = CARTESIAN_POINT('',(-8.405866286339,-12.2251927909));
#336 = CARTESIAN_POINT('',(-8.402116933017,-12.29407131526));
#337 = CARTESIAN_POINT('',(-8.397851284638,-12.35350874522));
#338 = CARTESIAN_POINT('',(-8.393147863197,-12.40065262539));
#339 = CARTESIAN_POINT('',(-8.388114800252,-12.43330969718));
#340 = CARTESIAN_POINT('',(-8.382879367882,-12.45));
#341 = CARTESIAN_POINT('',(-8.372928875732,-12.45));
#342 = CARTESIAN_POINT('',(-8.36827765967,-12.43713908497));
#343 = CARTESIAN_POINT('',(-8.363715048141,-12.41142228869));
#344 = CARTESIAN_POINT('',(-8.359328085851,-12.37321834079));
#345 = CARTESIAN_POINT('',(-8.355200182231,-12.32324656636));
#346 = CARTESIAN_POINT('',(-8.351407784117,-12.26255935457));
#347 = CARTESIAN_POINT('',(-8.344105698901,-12.11176875997));
#348 = CARTESIAN_POINT('',(-8.340848550312,-12.0210758689));
#349 = CARTESIAN_POINT('',(-8.338252651364,-11.92322956161));
#350 = CARTESIAN_POINT('',(-8.336314492393,-11.82043171454));
#351 = CARTESIAN_POINT('',(-8.335027526089,-11.71454917922));
#352 = CARTESIAN_POINT('',(-8.334385160148,-11.60722341074));
#353 = CARTESIAN_POINT('',(-8.334385160148,-11.39768615761));
#354 = CARTESIAN_POINT('',(-8.334970039326,-11.29534093064));
#355 = CARTESIAN_POINT('',(-8.336140500314,-11.19494580057));
#356 = CARTESIAN_POINT('',(-8.337878892144,-11.09844821472));
#357 = CARTESIAN_POINT('',(-8.340151639405,-11.00767756979));
#358 = CARTESIAN_POINT('',(-8.342911123787,-10.92428118283));
#359 = CARTESIAN_POINT('',(-8.349294532807,-10.77480720909));
#360 = CARTESIAN_POINT('',(-8.353043886128,-10.70592868473));
#361 = CARTESIAN_POINT('',(-8.357309534508,-10.64649125477));
#362 = CARTESIAN_POINT('',(-8.362012955948,-10.5993473746));
#363 = CARTESIAN_POINT('',(-8.367046018893,-10.56669030281));
#364 = CARTESIAN_POINT('',(-8.372281451264,-10.55));
#365 = CARTESIAN_POINT('',(-8.382231943414,-10.55));
#366 = CARTESIAN_POINT('',(-8.386883159476,-10.56286091502));
#367 = CARTESIAN_POINT('',(-8.391445771004,-10.5885777113));
#368 = CARTESIAN_POINT('',(-8.395832733294,-10.6267816592));
#369 = CARTESIAN_POINT('',(-8.399960636914,-10.67675343363));
#370 = CARTESIAN_POINT('',(-8.403753035029,-10.73744064542));
#371 = CARTESIAN_POINT('',(-8.411055120244,-10.88823124003));
#372 = CARTESIAN_POINT('',(-8.414312268833,-10.97892413109));
#373 = CARTESIAN_POINT('',(-8.416908167781,-11.07677043838));
#374 = CARTESIAN_POINT('',(-8.418846326753,-11.17956828545));
#375 = CARTESIAN_POINT('',(-8.420133293056,-11.28545082077));
#376 = CARTESIAN_POINT('',(-8.420775658997,-11.39277658925));
#377 = CARTESIAN_POINT('',(-8.420775658997,-11.5));
#378 = ( GEOMETRIC_REPRESENTATION_CONTEXT(2) 
PARAMETRIC_REPRESENTATION_CONTEXT() REPRESENTATION_CONTEXT('2D SPACE',''
  ) );
#379 = PCURVE('',#380,#385);
#380 = CYLINDRICAL_SURFACE('',#381,0.95);
#381 = AXIS2_PLACEMENT_3D('',#382,#383,#384);
#382 = CARTESIAN_POINT('',(-7.,12.124355652982,11.5000001));
#383 = DIRECTION('',(0.5,-0.866025403784,-0.));
#384 = DIRECTION('',(-0.866025403784,-0.5,0.));
#385 = DEFINITIONAL_REPRESENTATION('',(#386),#437);
#386 = B_SPLINE_CURVE_WITH_KNOTS('',7,(#387,#388,#389,#390,#391,#392,
    #393,#394,#395,#396,#397,#398,#399,#400,#401,#402,#403,#404,#405,
    #406,#407,#408,#409,#410,#411,#412,#413,#414,#415,#416,#417,#418,
    #419,#420,#421,#422,#423,#424,#425,#426,#427,#428,#429,#430,#431,
    #432,#433,#434,#435,#436),.UNSPECIFIED.,.F.,.F.,(8,6,6,6,6,6,6,6,8),
  (0.,0.130191549319,0.260857972152,0.37555962712,0.507804553458,
    0.633994220952,0.760644165102,0.871820073041,1.),.UNSPECIFIED.);
#387 = CARTESIAN_POINT('',(0.,-7.97947906571));
#388 = CARTESIAN_POINT('',(-0.107698781454,-7.97947906571));
#389 = CARTESIAN_POINT('',(-0.215430153257,-7.980034603776));
#390 = CARTESIAN_POINT('',(-0.323151102908,-7.981146879001));
#391 = CARTESIAN_POINT('',(-0.430852272306,-7.98275052192));
#392 = CARTESIAN_POINT('',(-0.538548058657,-7.984720078938));
#393 = CARTESIAN_POINT('',(-0.646258398788,-7.986891361102));
#394 = CARTESIAN_POINT('',(-0.862098997501,-7.991312000768));
#395 = CARTESIAN_POINT('',(-0.974364576362,-7.993645771309));
#396 = CARTESIAN_POINT('',(-1.089643969378,-7.995913828291));
#397 = CARTESIAN_POINT('',(-1.207271637432,-7.997868079261));
#398 = CARTESIAN_POINT('',(-1.32684298426,-7.999279696821));
#399 = CARTESIAN_POINT('',(-1.448083608055,-8.));
#400 = CARTESIAN_POINT('',(-1.678516057846,-8.));
#401 = CARTESIAN_POINT('',(-1.786228145711,-7.999444716488));
#402 = CARTESIAN_POINT('',(-1.893927444484,-7.998333969312));
#403 = CARTESIAN_POINT('',(-2.001630342275,-7.99673183878));
#404 = CARTESIAN_POINT('',(-2.109350037405,-7.994762915701));
#405 = CARTESIAN_POINT('',(-2.217078992095,-7.99259184704));
#406 = CARTESIAN_POINT('',(-2.448950459099,-7.987843156804));
#407 = CARTESIAN_POINT('',(-2.569253970897,-7.985332648908));
#408 = CARTESIAN_POINT('',(-2.686674798328,-7.983095947663));
#409 = CARTESIAN_POINT('',(-2.801947196528,-7.981311975864));
#410 = CARTESIAN_POINT('',(-2.915751554707,-7.980089302641));
#411 = CARTESIAN_POINT('',(-3.028725905441,-7.97947906571));
#412 = CARTESIAN_POINT('',(-3.249291435044,-7.97947906571));
#413 = CARTESIAN_POINT('',(-3.357022806847,-7.980034603776));
#414 = CARTESIAN_POINT('',(-3.464743756498,-7.981146879001));
#415 = CARTESIAN_POINT('',(-3.572444925896,-7.98275052192));
#416 = CARTESIAN_POINT('',(-3.680140712247,-7.984720078939));
#417 = CARTESIAN_POINT('',(-3.787851052377,-7.986891361102));
#418 = CARTESIAN_POINT('',(-4.003691651091,-7.991312000768));
#419 = CARTESIAN_POINT('',(-4.115957229952,-7.993645771309));
#420 = CARTESIAN_POINT('',(-4.231236622968,-7.995913828291));
#421 = CARTESIAN_POINT('',(-4.348864291022,-7.997868079261));
#422 = CARTESIAN_POINT('',(-4.468435637849,-7.999279696821));
#423 = CARTESIAN_POINT('',(-4.589676261645,-8.));
#424 = CARTESIAN_POINT('',(-4.820108711436,-8.));
#425 = CARTESIAN_POINT('',(-4.9278207993,-7.999444716488));
#426 = CARTESIAN_POINT('',(-5.035520098074,-7.998333969312));
#427 = CARTESIAN_POINT('',(-5.143222995865,-7.99673183878));
#428 = CARTESIAN_POINT('',(-5.250942690995,-7.994762915701));
#429 = CARTESIAN_POINT('',(-5.358671645685,-7.99259184704));
#430 = CARTESIAN_POINT('',(-5.590543112689,-7.987843156804));
#431 = CARTESIAN_POINT('',(-5.710846624486,-7.985332648908));
#432 = CARTESIAN_POINT('',(-5.828267451919,-7.983095947663));
#433 = CARTESIAN_POINT('',(-5.943539850116,-7.981311975864));
#434 = CARTESIAN_POINT('',(-6.057344208298,-7.980089302641));
#435 = CARTESIAN_POINT('',(-6.170318559031,-7.97947906571));
#436 = CARTESIAN_POINT('',(-6.28318530718,-7.97947906571));
#437 = ( GEOMETRIC_REPRESENTATION_CONTEXT(2) 
PARAMETRIC_REPRESENTATION_CONTEXT() REPRESENTATION_CONTEXT('2D SPACE',''
  ) );
#438 = FACE_BOUND('',#439,.F.);
#439 = EDGE_LOOP('',(#440));
#440 = ORIENTED_EDGE('',*,*,#441,.T.);
#441 = EDGE_CURVE('',#442,#442,#444,.T.);
#442 = VERTEX_POINT('',#443);
#443 = CARTESIAN_POINT('',(-10.16701539926,-19.50978723285,11.5000001));
#444 = SURFACE_CURVE('',#445,(#496,#550),.PCURVE_S1.);
#445 = B_SPLINE_CURVE_WITH_KNOTS('',7,(#446,#447,#448,#449,#450,#451,
    #452,#453,#454,#455,#456,#457,#458,#459,#460,#461,#462,#463,#464,
    #465,#466,#467,#468,#469,#470,#471,#472,#473,#474,#475,#476,#477,
    #478,#479,#480,#481,#482,#483,#484,#485,#486,#487,#488,#489,#490,
    #491,#492,#493,#494,#495),.UNSPECIFIED.,.T.,.F.,(8,6,6,6,6,6,6,6,8),
  (0.,0.130191549319,0.260857972152,0.37555962712,0.507804553458,
    0.633994220952,0.760644165102,0.871820073041,1.),.UNSPECIFIED.);
#446 = CARTESIAN_POINT('',(-10.16701539926,-19.50978723285,11.5000001));
#447 = CARTESIAN_POINT('',(-10.16701539926,-19.50978723285,
    11.602313942381));
#448 = CARTESIAN_POINT('',(-10.17842623309,-19.50384066497,
    11.704659169351));
#449 = CARTESIAN_POINT('',(-10.20126179859,-19.49194088988,
    11.805054299421));
#450 = CARTESIAN_POINT('',(-10.23515537292,-19.47422415296,
    11.901551885279));
#451 = CARTESIAN_POINT('',(-10.27940850194,-19.45094884556,
    11.992322530206));
#452 = CARTESIAN_POINT('',(-10.33303624085,-19.42249403674,
    12.07571891717));
#453 = CARTESIAN_POINT('',(-10.45680656665,-19.35613972083,
    12.225192890907));
#454 = CARTESIAN_POINT('',(-10.52937999286,-19.31693423977,
    12.294071415268));
#455 = CARTESIAN_POINT('',(-10.61176294407,-19.27198934733,
    12.353508845228));
#456 = CARTESIAN_POINT('',(-10.70233883291,-19.22195190817,
    12.400652725398));
#457 = CARTESIAN_POINT('',(-10.79893274917,-19.16781338018,
    12.433309797185));
#458 = CARTESIAN_POINT('',(-10.89904128479,-19.11084742465,12.4500001));
#459 = CARTESIAN_POINT('',(-11.0886236224,-19.001392011,12.4500001));
#460 = CARTESIAN_POINT('',(-11.17696353974,-18.94974774977,
    12.437139184973));
#461 = CARTESIAN_POINT('',(-11.26333449239,-18.89859887665,
    12.411422388697));
#462 = CARTESIAN_POINT('',(-11.34610683361,-18.84896026218,
    12.373218440792));
#463 = CARTESIAN_POINT('',(-11.42375226642,-18.8018581341,
    12.323246666367));
#464 = CARTESIAN_POINT('',(-11.49489759822,-18.75827542348,
    12.262559454571));
#465 = CARTESIAN_POINT('',(-11.63158586583,-18.67387510021,
    12.11176885997));
#466 = CARTESIAN_POINT('',(-11.69235046214,-18.63589375936,
    12.021075968909));
#467 = CARTESIAN_POINT('',(-11.74065309981,-18.60542349836,
    11.923229661617));
#468 = CARTESIAN_POINT('',(-11.77665569092,-18.5825774395,
    11.820431814543));
#469 = CARTESIAN_POINT('',(-11.80054148637,-18.56737514764,
    11.714549279228));
#470 = CARTESIAN_POINT('',(-11.81246366645,-18.55978723285,
    11.607223510741));
#471 = CARTESIAN_POINT('',(-11.81246366645,-18.55978723285,
    11.397686257619));
#472 = CARTESIAN_POINT('',(-11.80160837068,-18.56669602088,
    11.295341030649));
#473 = CARTESIAN_POINT('',(-11.77988508041,-18.58052231317,
    11.194945900579));
#474 = CARTESIAN_POINT('',(-11.74759514899,-18.60101664111,
    11.098448314721));
#475 = CARTESIAN_POINT('',(-11.70531157699,-18.62770332134,
    11.007677669794));
#476 = CARTESIAN_POINT('',(-11.65385512024,-18.65991890118,
    10.92428128283));
#477 = CARTESIAN_POINT('',(-11.53450543411,-18.73392998959,
    10.774807309093));
#478 = CARTESIAN_POINT('',(-11.46426577844,-18.7771776798,
    10.705928784732));
#479 = CARTESIAN_POINT('',(-11.38415088421,-18.82605096217,
    10.646491354772));
#480 = CARTESIAN_POINT('',(-11.29552924634,-18.8794732633,
    10.599347474602));
#481 = CARTESIAN_POINT('',(-11.20034694764,-18.93605678463,
    10.566690402815));
#482 = CARTESIAN_POINT('',(-11.1009587152,-18.99427034185,10.5500001));
#483 = CARTESIAN_POINT('',(-10.9113763776,-19.1037257555,10.5500001));
#484 = CARTESIAN_POINT('',(-10.82248117674,-19.15440823748,
    10.562861015027));
#485 = CARTESIAN_POINT('',(-10.73499947692,-19.20363324006,
    10.588577811303));
#486 = CARTESIAN_POINT('',(-10.65062500516,-19.25049688305,
    10.626781759208));
#487 = CARTESIAN_POINT('',(-10.57101064927,-19.29418873632,
    10.676753533633));
#488 = CARTESIAN_POINT('',(-10.49769424881,-19.3340110457,
    10.737440745429));
#489 = CARTESIAN_POINT('',(-10.35625729096,-19.41018639622,
    10.888231340029));
#490 = CARTESIAN_POINT('',(-10.29298218676,-19.44381940985,
    10.978924231091));
#491 = CARTESIAN_POINT('',(-10.24244284784,-19.47041559064,
    11.076770538382));
#492 = CARTESIAN_POINT('',(-10.20465628494,-19.49017171971,
    11.179568385458));
#493 = CARTESIAN_POINT('',(-10.17954781626,-19.50325627943,
    11.285450920772));
#494 = CARTESIAN_POINT('',(-10.16701539926,-19.50978723285,
    11.392776689259));
#495 = CARTESIAN_POINT('',(-10.16701539926,-19.50978723285,11.5000001));
#496 = PCURVE('',#33,#497);
#497 = DEFINITIONAL_REPRESENTATION('',(#498),#549);
#498 = B_SPLINE_CURVE_WITH_KNOTS('',7,(#499,#500,#501,#502,#503,#504,
    #505,#506,#507,#508,#509,#510,#511,#512,#513,#514,#515,#516,#517,
    #518,#519,#520,#521,#522,#523,#524,#525,#526,#527,#528,#529,#530,
    #531,#532,#533,#534,#535,#536,#537,#538,#539,#540,#541,#542,#543,
    #544,#545,#546,#547,#548),.UNSPECIFIED.,.F.,.F.,(8,6,6,6,6,6,6,6,8),
  (0.,0.130191549319,0.260857972152,0.37555962712,0.507804553458,
    0.633994220952,0.760644165102,0.871820073041,1.),.UNSPECIFIED.);
#499 = CARTESIAN_POINT('',(-10.51517076139,-11.5));
#500 = CARTESIAN_POINT('',(-10.51517076139,-11.60231384238));
#501 = CARTESIAN_POINT('',(-10.51458588221,-11.70465906935));
#502 = CARTESIAN_POINT('',(-10.51341542122,-11.80505419942));
#503 = CARTESIAN_POINT('',(-10.51167702939,-11.90155178527));
#504 = CARTESIAN_POINT('',(-10.50940428213,-11.9923224302));
#505 = CARTESIAN_POINT('',(-10.50664479775,-12.07571881717));
#506 = CARTESIAN_POINT('',(-10.50026138873,-12.2251927909));
#507 = CARTESIAN_POINT('',(-10.49651203541,-12.29407131526));
#508 = CARTESIAN_POINT('',(-10.49224638703,-12.35350874522));
#509 = CARTESIAN_POINT('',(-10.48754296559,-12.40065262539));
#510 = CARTESIAN_POINT('',(-10.48250990264,-12.43330969718));
#511 = CARTESIAN_POINT('',(-10.47727447027,-12.45));
#512 = CARTESIAN_POINT('',(-10.46732397812,-12.45));
#513 = CARTESIAN_POINT('',(-10.46267276206,-12.43713908497));
#514 = CARTESIAN_POINT('',(-10.45811015053,-12.41142228869));
#515 = CARTESIAN_POINT('',(-10.45372318824,-12.37321834079));
#516 = CARTESIAN_POINT('',(-10.44959528462,-12.32324656636));
#517 = CARTESIAN_POINT('',(-10.44580288651,-12.26255935457));
#518 = CARTESIAN_POINT('',(-10.43850080129,-12.11176875997));
#519 = CARTESIAN_POINT('',(-10.4352436527,-12.0210758689));
#520 = CARTESIAN_POINT('',(-10.43264775375,-11.92322956161));
#521 = CARTESIAN_POINT('',(-10.43070959478,-11.82043171454));
#522 = CARTESIAN_POINT('',(-10.42942262848,-11.71454917922));
#523 = CARTESIAN_POINT('',(-10.42878026254,-11.60722341074));
#524 = CARTESIAN_POINT('',(-10.42878026254,-11.39768615761));
#525 = CARTESIAN_POINT('',(-10.42936514171,-11.29534093064));
#526 = CARTESIAN_POINT('',(-10.4305356027,-11.19494580057));
#527 = CARTESIAN_POINT('',(-10.43227399453,-11.09844821472));
#528 = CARTESIAN_POINT('',(-10.43454674179,-11.00767756979));
#529 = CARTESIAN_POINT('',(-10.43730622618,-10.92428118283));
#530 = CARTESIAN_POINT('',(-10.4436896352,-10.77480720909));
#531 = CARTESIAN_POINT('',(-10.44743898852,-10.70592868473));
#532 = CARTESIAN_POINT('',(-10.4517046369,-10.64649125477));
#533 = CARTESIAN_POINT('',(-10.45640805834,-10.5993473746));
#534 = CARTESIAN_POINT('',(-10.46144112128,-10.56669030281));
#535 = CARTESIAN_POINT('',(-10.46667655365,-10.55));
#536 = CARTESIAN_POINT('',(-10.4766270458,-10.55));
#537 = CARTESIAN_POINT('',(-10.48127826186,-10.56286091502));
#538 = CARTESIAN_POINT('',(-10.48584087339,-10.5885777113));
#539 = CARTESIAN_POINT('',(-10.49022783568,-10.6267816592));
#540 = CARTESIAN_POINT('',(-10.4943557393,-10.67675343363));
#541 = CARTESIAN_POINT('',(-10.49814813742,-10.73744064542));
#542 = CARTESIAN_POINT('',(-10.50545022263,-10.88823124002));
#543 = CARTESIAN_POINT('',(-10.50870737122,-10.97892413109));
#544 = CARTESIAN_POINT('',(-10.51130327017,-11.07677043838));
#545 = CARTESIAN_POINT('',(-10.51324142914,-11.17956828545));
#546 = CARTESIAN_POINT('',(-10.51452839545,-11.28545082077));
#547 = CARTESIAN_POINT('',(-10.51517076139,-11.39277658925));
#548 = CARTESIAN_POINT('',(-10.51517076139,-11.5));
#549 = ( GEOMETRIC_REPRESENTATION_CONTEXT(2) 
PARAMETRIC_REPRESENTATION_CONTEXT() REPRESENTATION_CONTEXT('2D SPACE',''
  ) );
#550 = PCURVE('',#551,#556);
#551 = CYLINDRICAL_SURFACE('',#552,0.95);
#552 = AXIS2_PLACEMENT_3D('',#553,#554,#555);
#553 = CARTESIAN_POINT('',(-7.,-12.12435565298,11.5000001));
#554 = DIRECTION('',(0.5,0.866025403784,-0.));
#555 = DIRECTION('',(0.866025403784,-0.5,0.));
#556 = DEFINITIONAL_REPRESENTATION('',(#557),#608);
#557 = B_SPLINE_CURVE_WITH_KNOTS('',7,(#558,#559,#560,#561,#562,#563,
    #564,#565,#566,#567,#568,#569,#570,#571,#572,#573,#574,#575,#576,
    #577,#578,#579,#580,#581,#582,#583,#584,#585,#586,#587,#588,#589,
    #590,#591,#592,#593,#594,#595,#596,#597,#598,#599,#600,#601,#602,
    #603,#604,#605,#606,#607),.UNSPECIFIED.,.F.,.F.,(8,6,6,6,6,6,6,6,8),
  (0.,0.130191549319,0.260857972152,0.37555962712,0.507804553458,
    0.633994220952,0.760644165102,0.871820073041,1.),.UNSPECIFIED.);
#558 = CARTESIAN_POINT('',(0.,-7.97947906571));
#559 = CARTESIAN_POINT('',(-0.107698781454,-7.97947906571));
#560 = CARTESIAN_POINT('',(-0.215430153257,-7.980034603776));
#561 = CARTESIAN_POINT('',(-0.323151102908,-7.981146879001));
#562 = CARTESIAN_POINT('',(-0.430852272306,-7.98275052192));
#563 = CARTESIAN_POINT('',(-0.538548058657,-7.984720078938));
#564 = CARTESIAN_POINT('',(-0.646258398788,-7.986891361102));
#565 = CARTESIAN_POINT('',(-0.862098997501,-7.991312000768));
#566 = CARTESIAN_POINT('',(-0.974364576362,-7.993645771309));
#567 = CARTESIAN_POINT('',(-1.089643969378,-7.995913828291));
#568 = CARTESIAN_POINT('',(-1.207271637432,-7.997868079261));
#569 = CARTESIAN_POINT('',(-1.32684298426,-7.999279696821));
#570 = CARTESIAN_POINT('',(-1.448083608055,-8.));
#571 = CARTESIAN_POINT('',(-1.678516057846,-8.));
#572 = CARTESIAN_POINT('',(-1.786228145711,-7.999444716488));
#573 = CARTESIAN_POINT('',(-1.893927444484,-7.998333969312));
#574 = CARTESIAN_POINT('',(-2.001630342275,-7.99673183878));
#575 = CARTESIAN_POINT('',(-2.109350037405,-7.994762915701));
#576 = CARTESIAN_POINT('',(-2.217078992095,-7.99259184704));
#577 = CARTESIAN_POINT('',(-2.448950459099,-7.987843156804));
#578 = CARTESIAN_POINT('',(-2.569253970897,-7.985332648908));
#579 = CARTESIAN_POINT('',(-2.686674798328,-7.983095947663));
#580 = CARTESIAN_POINT('',(-2.801947196527,-7.981311975864));
#581 = CARTESIAN_POINT('',(-2.915751554708,-7.980089302641));
#582 = CARTESIAN_POINT('',(-3.028725905441,-7.97947906571));
#583 = CARTESIAN_POINT('',(-3.249291435044,-7.97947906571));
#584 = CARTESIAN_POINT('',(-3.357022806847,-7.980034603776));
#585 = CARTESIAN_POINT('',(-3.464743756498,-7.981146879001));
#586 = CARTESIAN_POINT('',(-3.572444925896,-7.98275052192));
#587 = CARTESIAN_POINT('',(-3.680140712247,-7.984720078939));
#588 = CARTESIAN_POINT('',(-3.787851052378,-7.986891361102));
#589 = CARTESIAN_POINT('',(-4.003691651091,-7.991312000768));
#590 = CARTESIAN_POINT('',(-4.115957229952,-7.993645771309));
#591 = CARTESIAN_POINT('',(-4.231236622967,-7.995913828291));
#592 = CARTESIAN_POINT('',(-4.348864291022,-7.997868079261));
#593 = CARTESIAN_POINT('',(-4.46843563785,-7.999279696821));
#594 = CARTESIAN_POINT('',(-4.589676261645,-8.));
#595 = CARTESIAN_POINT('',(-4.820108711436,-8.));
#596 = CARTESIAN_POINT('',(-4.9278207993,-7.999444716488));
#597 = CARTESIAN_POINT('',(-5.035520098074,-7.998333969312));
#598 = CARTESIAN_POINT('',(-5.143222995865,-7.99673183878));
#599 = CARTESIAN_POINT('',(-5.250942690995,-7.994762915701));
#600 = CARTESIAN_POINT('',(-5.358671645685,-7.99259184704));
#601 = CARTESIAN_POINT('',(-5.590543112689,-7.987843156804));
#602 = CARTESIAN_POINT('',(-5.710846624488,-7.985332648908));
#603 = CARTESIAN_POINT('',(-5.828267451916,-7.983095947663));
#604 = CARTESIAN_POINT('',(-5.943539850119,-7.981311975864));
#605 = CARTESIAN_POINT('',(-6.057344208297,-7.980089302641));
#606 = CARTESIAN_POINT('',(-6.170318559031,-7.97947906571));
#607 = CARTESIAN_POINT('',(-6.28318530718,-7.97947906571));
#608 = ( GEOMETRIC_REPRESENTATION_CONTEXT(2) 
PARAMETRIC_REPRESENTATION_CONTEXT() REPRESENTATION_CONTEXT('2D SPACE',''
  ) );
#609 = ADVANCED_FACE('',(#610,#685,#716),#45,.F.);
#610 = FACE_BOUND('',#611,.F.);
#611 = EDGE_LOOP('',(#612,#613,#636,#664));
#612 = ORIENTED_EDGE('',*,*,#21,.T.);
#613 = ORIENTED_EDGE('',*,*,#614,.F.);
#614 = EDGE_CURVE('',#615,#24,#617,.T.);
#615 = VERTEX_POINT('',#616);
#616 = CARTESIAN_POINT('',(10.107239485471,-17.09374768689,
    9.999999939225E-08));
#617 = SURFACE_CURVE('',#618,(#622,#629),.PCURVE_S1.);
#618 = LINE('',#619,#620);
#619 = CARTESIAN_POINT('',(10.107239485471,-17.09374768689,
    9.999999939225E-08));
#620 = VECTOR('',#621,1.);
#621 = DIRECTION('',(0.866025403784,-0.5,0.));
#622 = PCURVE('',#45,#623);
#623 = DEFINITIONAL_REPRESENTATION('',(#624),#628);
#624 = LINE('',#625,#626);
#625 = CARTESIAN_POINT('',(10.107239485471,-17.09374768689));
#626 = VECTOR('',#627,1.);
#627 = DIRECTION('',(0.866025403784,-0.5));
#628 = ( GEOMETRIC_REPRESENTATION_CONTEXT(2) 
PARAMETRIC_REPRESENTATION_CONTEXT() REPRESENTATION_CONTEXT('2D SPACE',''
  ) );
#629 = PCURVE('',#132,#630);
#630 = DEFINITIONAL_REPRESENTATION('',(#631),#635);
#631 = LINE('',#632,#633);
#632 = CARTESIAN_POINT('',(0.,0.));
#633 = VECTOR('',#634,1.);
#634 = DIRECTION('',(0.,1.));
#635 = ( GEOMETRIC_REPRESENTATION_CONTEXT(2) 
PARAMETRIC_REPRESENTATION_CONTEXT() REPRESENTATION_CONTEXT('2D SPACE',''
  ) );
#636 = ORIENTED_EDGE('',*,*,#637,.T.);
#637 = EDGE_CURVE('',#615,#638,#640,.T.);
#638 = VERTEX_POINT('',#639);
#639 = CARTESIAN_POINT('',(19.857239485471,-0.206252313102,
    9.999999939225E-08));
#640 = SURFACE_CURVE('',#641,(#645,#652),.PCURVE_S1.);
#641 = LINE('',#642,#643);
#642 = CARTESIAN_POINT('',(10.107239485471,-17.09374768689,
    9.999999939225E-08));
#643 = VECTOR('',#644,1.);
#644 = DIRECTION('',(0.5,0.866025403784,0.));
#645 = PCURVE('',#45,#646);
#646 = DEFINITIONAL_REPRESENTATION('',(#647),#651);
#647 = LINE('',#648,#649);
#648 = CARTESIAN_POINT('',(10.107239485471,-17.09374768689));
#649 = VECTOR('',#650,1.);
#650 = DIRECTION('',(0.5,0.866025403784));
#651 = ( GEOMETRIC_REPRESENTATION_CONTEXT(2) 
PARAMETRIC_REPRESENTATION_CONTEXT() REPRESENTATION_CONTEXT('2D SPACE',''
  ) );
#652 = PCURVE('',#653,#658);
#653 = PLANE('',#654);
#654 = AXIS2_PLACEMENT_3D('',#655,#656,#657);
#655 = CARTESIAN_POINT('',(10.107239485471,-17.09374768689,
    9.999999939225E-08));
#656 = DIRECTION('',(0.866025403784,-0.5,0.));
#657 = DIRECTION('',(0.,0.,1.));
#658 = DEFINITIONAL_REPRESENTATION('',(#659),#663);
#659 = LINE('',#660,#661);
#660 = CARTESIAN_POINT('',(0.,0.));
#661 = VECTOR('',#662,1.);
#662 = DIRECTION('',(0.,-1.));
#663 = ( GEOMETRIC_REPRESENTATION_CONTEXT(2) 
PARAMETRIC_REPRESENTATION_CONTEXT() REPRESENTATION_CONTEXT('2D SPACE',''
  ) );
#664 = ORIENTED_EDGE('',*,*,#665,.T.);
#665 = EDGE_CURVE('',#638,#22,#666,.T.);
#666 = SURFACE_CURVE('',#667,(#671,#678),.PCURVE_S1.);
#667 = LINE('',#668,#669);
#668 = CARTESIAN_POINT('',(19.857239485471,-0.206252313102,
    9.999999939225E-08));
#669 = VECTOR('',#670,1.);
#670 = DIRECTION('',(0.866025403784,-0.5,0.));
#671 = PCURVE('',#45,#672);
#672 = DEFINITIONAL_REPRESENTATION('',(#673),#677);
#673 = LINE('',#674,#675);
#674 = CARTESIAN_POINT('',(19.857239485471,-0.206252313102));
#675 = VECTOR('',#676,1.);
#676 = DIRECTION('',(0.866025403784,-0.5));
#677 = ( GEOMETRIC_REPRESENTATION_CONTEXT(2) 
PARAMETRIC_REPRESENTATION_CONTEXT() REPRESENTATION_CONTEXT('2D SPACE',''
  ) );
#678 = PCURVE('',#73,#679);
#679 = DEFINITIONAL_REPRESENTATION('',(#680),#684);
#680 = LINE('',#681,#682);
#681 = CARTESIAN_POINT('',(0.,0.));
#682 = VECTOR('',#683,1.);
#683 = DIRECTION('',(0.,1.));
#684 = ( GEOMETRIC_REPRESENTATION_CONTEXT(2) 
PARAMETRIC_REPRESENTATION_CONTEXT() REPRESENTATION_CONTEXT('2D SPACE',''
  ) );
#685 = FACE_BOUND('',#686,.F.);
#686 = EDGE_LOOP('',(#687));
#687 = ORIENTED_EDGE('',*,*,#688,.F.);
#688 = EDGE_CURVE('',#689,#689,#691,.T.);
#689 = VERTEX_POINT('',#690);
#690 = CARTESIAN_POINT('',(16.1,9.689219124001E-16,9.999999939225E-08));
#691 = SURFACE_CURVE('',#692,(#697,#704),.PCURVE_S1.);
#692 = CIRCLE('',#693,16.1);
#693 = AXIS2_PLACEMENT_3D('',#694,#695,#696);
#694 = CARTESIAN_POINT('',(1.022212617582E-13,9.689219124001E-16,
    9.999999939225E-08));
#695 = DIRECTION('',(0.,0.,1.));
#696 = DIRECTION('',(1.,0.,0.));
#697 = PCURVE('',#45,#698);
#698 = DEFINITIONAL_REPRESENTATION('',(#699),#703);
#699 = CIRCLE('',#700,16.1);
#700 = AXIS2_PLACEMENT_2D('',#701,#702);
#701 = CARTESIAN_POINT('',(1.054893714695E-13,1.866996231775E-15));
#702 = DIRECTION('',(1.,0.));
#703 = ( GEOMETRIC_REPRESENTATION_CONTEXT(2) 
PARAMETRIC_REPRESENTATION_CONTEXT() REPRESENTATION_CONTEXT('2D SPACE',''
  ) );
#704 = PCURVE('',#705,#710);
#705 = CYLINDRICAL_SURFACE('',#706,16.1);
#706 = AXIS2_PLACEMENT_3D('',#707,#708,#709);
#707 = CARTESIAN_POINT('',(1.022212617582E-13,9.689219124001E-16,
    9.999999939225E-08));
#708 = DIRECTION('',(-0.,-0.,-1.));
#709 = DIRECTION('',(1.,0.,0.));
#710 = DEFINITIONAL_REPRESENTATION('',(#711),#715);
#711 = LINE('',#712,#713);
#712 = CARTESIAN_POINT('',(-0.,0.));
#713 = VECTOR('',#714,1.);
#714 = DIRECTION('',(-1.,0.));
#715 = ( GEOMETRIC_REPRESENTATION_CONTEXT(2) 
PARAMETRIC_REPRESENTATION_CONTEXT() REPRESENTATION_CONTEXT('2D SPACE',''
  ) );
#716 = FACE_BOUND('',#717,.F.);
#717 = EDGE_LOOP('',(#718));
#718 = ORIENTED_EDGE('',*,*,#719,.F.);
#719 = EDGE_CURVE('',#720,#720,#722,.T.);
#720 = VERTEX_POINT('',#721);
#721 = CARTESIAN_POINT('',(18.099930939095,10.45,9.999999939225E-08));
#722 = SURFACE_CURVE('',#723,(#728,#735),.PCURVE_S1.);
#723 = CIRCLE('',#724,1.3);
#724 = AXIS2_PLACEMENT_3D('',#725,#726,#727);
#725 = CARTESIAN_POINT('',(16.974097914175,9.8,9.999999939225E-08));
#726 = DIRECTION('',(0.,-0.,1.));
#727 = DIRECTION('',(0.866025403784,0.5,0.));
#728 = PCURVE('',#45,#729);
#729 = DEFINITIONAL_REPRESENTATION('',(#730),#734);
#730 = CIRCLE('',#731,1.3);
#731 = AXIS2_PLACEMENT_2D('',#732,#733);
#732 = CARTESIAN_POINT('',(16.974097914175,9.8));
#733 = DIRECTION('',(0.866025403784,0.5));
#734 = ( GEOMETRIC_REPRESENTATION_CONTEXT(2) 
PARAMETRIC_REPRESENTATION_CONTEXT() REPRESENTATION_CONTEXT('2D SPACE',''
  ) );
#735 = PCURVE('',#736,#741);
#736 = CYLINDRICAL_SURFACE('',#737,1.3);
#737 = AXIS2_PLACEMENT_3D('',#738,#739,#740);
#738 = CARTESIAN_POINT('',(16.974097914175,9.8,9.999999939225E-08));
#739 = DIRECTION('',(0.,-0.,-1.));
#740 = DIRECTION('',(0.866025403784,0.5,0.));
#741 = DEFINITIONAL_REPRESENTATION('',(#742),#746);
#742 = LINE('',#743,#744);
#743 = CARTESIAN_POINT('',(-0.,0.));
#744 = VECTOR('',#745,1.);
#745 = DIRECTION('',(-1.,0.));
#746 = ( GEOMETRIC_REPRESENTATION_CONTEXT(2) 
PARAMETRIC_REPRESENTATION_CONTEXT() REPRESENTATION_CONTEXT('2D SPACE',''
  ) );
#747 = ADVANCED_FACE('',(#748),#73,.F.);
#748 = FACE_BOUND('',#749,.F.);
#749 = EDGE_LOOP('',(#750,#751,#774,#795));
#750 = ORIENTED_EDGE('',*,*,#665,.F.);
#751 = ORIENTED_EDGE('',*,*,#752,.T.);
#752 = EDGE_CURVE('',#638,#753,#755,.T.);
#753 = VERTEX_POINT('',#754);
#754 = CARTESIAN_POINT('',(19.857239485471,-0.206252313102,23.0000001));
#755 = SURFACE_CURVE('',#756,(#760,#767),.PCURVE_S1.);
#756 = LINE('',#757,#758);
#757 = CARTESIAN_POINT('',(19.857239485471,-0.206252313102,
    9.999999939225E-08));
#758 = VECTOR('',#759,1.);
#759 = DIRECTION('',(0.,0.,1.));
#760 = PCURVE('',#73,#761);
#761 = DEFINITIONAL_REPRESENTATION('',(#762),#766);
#762 = LINE('',#763,#764);
#763 = CARTESIAN_POINT('',(0.,0.));
#764 = VECTOR('',#765,1.);
#765 = DIRECTION('',(1.,0.));
#766 = ( GEOMETRIC_REPRESENTATION_CONTEXT(2) 
PARAMETRIC_REPRESENTATION_CONTEXT() REPRESENTATION_CONTEXT('2D SPACE',''
  ) );
#767 = PCURVE('',#653,#768);
#768 = DEFINITIONAL_REPRESENTATION('',(#769),#773);
#769 = LINE('',#770,#771);
#770 = CARTESIAN_POINT('',(0.,-19.5));
#771 = VECTOR('',#772,1.);
#772 = DIRECTION('',(1.,0.));
#773 = ( GEOMETRIC_REPRESENTATION_CONTEXT(2) 
PARAMETRIC_REPRESENTATION_CONTEXT() REPRESENTATION_CONTEXT('2D SPACE',''
  ) );
#774 = ORIENTED_EDGE('',*,*,#775,.T.);
#775 = EDGE_CURVE('',#753,#58,#776,.T.);
#776 = SURFACE_CURVE('',#777,(#781,#788),.PCURVE_S1.);
#777 = LINE('',#778,#779);
#778 = CARTESIAN_POINT('',(19.857239485471,-0.206252313102,23.0000001));
#779 = VECTOR('',#780,1.);
#780 = DIRECTION('',(0.866025403784,-0.5,0.));
#781 = PCURVE('',#73,#782);
#782 = DEFINITIONAL_REPRESENTATION('',(#783),#787);
#783 = LINE('',#784,#785);
#784 = CARTESIAN_POINT('',(23.,0.));
#785 = VECTOR('',#786,1.);
#786 = DIRECTION('',(0.,1.));
#787 = ( GEOMETRIC_REPRESENTATION_CONTEXT(2) 
PARAMETRIC_REPRESENTATION_CONTEXT() REPRESENTATION_CONTEXT('2D SPACE',''
  ) );
#788 = PCURVE('',#102,#789);
#789 = DEFINITIONAL_REPRESENTATION('',(#790),#794);
#790 = LINE('',#791,#792);
#791 = CARTESIAN_POINT('',(19.857239485471,-0.206252313102));
#792 = VECTOR('',#793,1.);
#793 = DIRECTION('',(0.866025403784,-0.5));
#794 = ( GEOMETRIC_REPRESENTATION_CONTEXT(2) 
PARAMETRIC_REPRESENTATION_CONTEXT() REPRESENTATION_CONTEXT('2D SPACE',''
  ) );
#795 = ORIENTED_EDGE('',*,*,#57,.T.);
#796 = ADVANCED_FACE('',(#797),#132,.T.);
#797 = FACE_BOUND('',#798,.T.);
#798 = EDGE_LOOP('',(#799,#800,#823,#844));
#799 = ORIENTED_EDGE('',*,*,#614,.F.);
#800 = ORIENTED_EDGE('',*,*,#801,.T.);
#801 = EDGE_CURVE('',#615,#802,#804,.T.);
#802 = VERTEX_POINT('',#803);
#803 = CARTESIAN_POINT('',(10.107239485471,-17.09374768689,23.0000001));
#804 = SURFACE_CURVE('',#805,(#809,#816),.PCURVE_S1.);
#805 = LINE('',#806,#807);
#806 = CARTESIAN_POINT('',(10.107239485471,-17.09374768689,
    9.999999939225E-08));
#807 = VECTOR('',#808,1.);
#808 = DIRECTION('',(0.,0.,1.));
#809 = PCURVE('',#132,#810);
#810 = DEFINITIONAL_REPRESENTATION('',(#811),#815);
#811 = LINE('',#812,#813);
#812 = CARTESIAN_POINT('',(0.,0.));
#813 = VECTOR('',#814,1.);
#814 = DIRECTION('',(1.,0.));
#815 = ( GEOMETRIC_REPRESENTATION_CONTEXT(2) 
PARAMETRIC_REPRESENTATION_CONTEXT() REPRESENTATION_CONTEXT('2D SPACE',''
  ) );
#816 = PCURVE('',#653,#817);
#817 = DEFINITIONAL_REPRESENTATION('',(#818),#822);
#818 = LINE('',#819,#820);
#819 = CARTESIAN_POINT('',(0.,0.));
#820 = VECTOR('',#821,1.);
#821 = DIRECTION('',(1.,0.));
#822 = ( GEOMETRIC_REPRESENTATION_CONTEXT(2) 
PARAMETRIC_REPRESENTATION_CONTEXT() REPRESENTATION_CONTEXT('2D SPACE',''
  ) );
#823 = ORIENTED_EDGE('',*,*,#824,.T.);
#824 = EDGE_CURVE('',#802,#86,#825,.T.);
#825 = SURFACE_CURVE('',#826,(#830,#837),.PCURVE_S1.);
#826 = LINE('',#827,#828);
#827 = CARTESIAN_POINT('',(10.107239485471,-17.09374768689,23.0000001));
#828 = VECTOR('',#829,1.);
#829 = DIRECTION('',(0.866025403784,-0.5,0.));
#830 = PCURVE('',#132,#831);
#831 = DEFINITIONAL_REPRESENTATION('',(#832),#836);
#832 = LINE('',#833,#834);
#833 = CARTESIAN_POINT('',(23.,0.));
#834 = VECTOR('',#835,1.);
#835 = DIRECTION('',(0.,1.));
#836 = ( GEOMETRIC_REPRESENTATION_CONTEXT(2) 
PARAMETRIC_REPRESENTATION_CONTEXT() REPRESENTATION_CONTEXT('2D SPACE',''
  ) );
#837 = PCURVE('',#102,#838);
#838 = DEFINITIONAL_REPRESENTATION('',(#839),#843);
#839 = LINE('',#840,#841);
#840 = CARTESIAN_POINT('',(10.107239485471,-17.09374768689));
#841 = VECTOR('',#842,1.);
#842 = DIRECTION('',(0.866025403784,-0.5));
#843 = ( GEOMETRIC_REPRESENTATION_CONTEXT(2) 
PARAMETRIC_REPRESENTATION_CONTEXT() REPRESENTATION_CONTEXT('2D SPACE',''
  ) );
#844 = ORIENTED_EDGE('',*,*,#118,.T.);
#845 = ADVANCED_FACE('',(#846,#872,#898),#102,.T.);
#846 = FACE_BOUND('',#847,.T.);
#847 = EDGE_LOOP('',(#848,#849,#850,#851));
#848 = ORIENTED_EDGE('',*,*,#775,.T.);
#849 = ORIENTED_EDGE('',*,*,#85,.F.);
#850 = ORIENTED_EDGE('',*,*,#824,.F.);
#851 = ORIENTED_EDGE('',*,*,#852,.T.);
#852 = EDGE_CURVE('',#802,#753,#853,.T.);
#853 = SURFACE_CURVE('',#854,(#858,#865),.PCURVE_S1.);
#854 = LINE('',#855,#856);
#855 = CARTESIAN_POINT('',(10.107239485471,-17.09374768689,23.0000001));
#856 = VECTOR('',#857,1.);
#857 = DIRECTION('',(0.5,0.866025403784,0.));
#858 = PCURVE('',#102,#859);
#859 = DEFINITIONAL_REPRESENTATION('',(#860),#864);
#860 = LINE('',#861,#862);
#861 = CARTESIAN_POINT('',(10.107239485471,-17.09374768689));
#862 = VECTOR('',#863,1.);
#863 = DIRECTION('',(0.5,0.866025403784));
#864 = ( GEOMETRIC_REPRESENTATION_CONTEXT(2) 
PARAMETRIC_REPRESENTATION_CONTEXT() REPRESENTATION_CONTEXT('2D SPACE',''
  ) );
#865 = PCURVE('',#653,#866);
#866 = DEFINITIONAL_REPRESENTATION('',(#867),#871);
#867 = LINE('',#868,#869);
#868 = CARTESIAN_POINT('',(23.,0.));
#869 = VECTOR('',#870,1.);
#870 = DIRECTION('',(0.,-1.));
#871 = ( GEOMETRIC_REPRESENTATION_CONTEXT(2) 
PARAMETRIC_REPRESENTATION_CONTEXT() REPRESENTATION_CONTEXT('2D SPACE',''
  ) );
#872 = FACE_BOUND('',#873,.T.);
#873 = EDGE_LOOP('',(#874));
#874 = ORIENTED_EDGE('',*,*,#875,.F.);
#875 = EDGE_CURVE('',#876,#876,#878,.T.);
#876 = VERTEX_POINT('',#877);
#877 = CARTESIAN_POINT('',(16.1,9.689219124001E-16,23.0000001));
#878 = SURFACE_CURVE('',#879,(#884,#891),.PCURVE_S1.);
#879 = CIRCLE('',#880,16.1);
#880 = AXIS2_PLACEMENT_3D('',#881,#882,#883);
#881 = CARTESIAN_POINT('',(1.022212617582E-13,9.689219124001E-16,
    23.0000001));
#882 = DIRECTION('',(0.,0.,1.));
#883 = DIRECTION('',(1.,0.,0.));
#884 = PCURVE('',#102,#885);
#885 = DEFINITIONAL_REPRESENTATION('',(#886),#890);
#886 = CIRCLE('',#887,16.1);
#887 = AXIS2_PLACEMENT_2D('',#888,#889);
#888 = CARTESIAN_POINT('',(1.054893714695E-13,1.866996231775E-15));
#889 = DIRECTION('',(1.,0.));
#890 = ( GEOMETRIC_REPRESENTATION_CONTEXT(2) 
PARAMETRIC_REPRESENTATION_CONTEXT() REPRESENTATION_CONTEXT('2D SPACE',''
  ) );
#891 = PCURVE('',#705,#892);
#892 = DEFINITIONAL_REPRESENTATION('',(#893),#897);
#893 = LINE('',#894,#895);
#894 = CARTESIAN_POINT('',(-0.,-23.));
#895 = VECTOR('',#896,1.);
#896 = DIRECTION('',(-1.,0.));
#897 = ( GEOMETRIC_REPRESENTATION_CONTEXT(2) 
PARAMETRIC_REPRESENTATION_CONTEXT() REPRESENTATION_CONTEXT('2D SPACE',''
  ) );
#898 = FACE_BOUND('',#899,.T.);
#899 = EDGE_LOOP('',(#900));
#900 = ORIENTED_EDGE('',*,*,#901,.F.);
#901 = EDGE_CURVE('',#902,#902,#904,.T.);
#902 = VERTEX_POINT('',#903);
#903 = CARTESIAN_POINT('',(18.099930939095,10.45,23.0000001));
#904 = SURFACE_CURVE('',#905,(#910,#917),.PCURVE_S1.);
#905 = CIRCLE('',#906,1.3);
#906 = AXIS2_PLACEMENT_3D('',#907,#908,#909);
#907 = CARTESIAN_POINT('',(16.974097914175,9.8,23.0000001));
#908 = DIRECTION('',(0.,-0.,1.));
#909 = DIRECTION('',(0.866025403784,0.5,0.));
#910 = PCURVE('',#102,#911);
#911 = DEFINITIONAL_REPRESENTATION('',(#912),#916);
#912 = CIRCLE('',#913,1.3);
#913 = AXIS2_PLACEMENT_2D('',#914,#915);
#914 = CARTESIAN_POINT('',(16.974097914175,9.8));
#915 = DIRECTION('',(0.866025403784,0.5));
#916 = ( GEOMETRIC_REPRESENTATION_CONTEXT(2) 
PARAMETRIC_REPRESENTATION_CONTEXT() REPRESENTATION_CONTEXT('2D SPACE',''
  ) );
#917 = PCURVE('',#736,#918);
#918 = DEFINITIONAL_REPRESENTATION('',(#919),#923);
#919 = LINE('',#920,#921);
#920 = CARTESIAN_POINT('',(-0.,-23.));
#921 = VECTOR('',#922,1.);
#922 = DIRECTION('',(-1.,0.));
#923 = ( GEOMETRIC_REPRESENTATION_CONTEXT(2) 
PARAMETRIC_REPRESENTATION_CONTEXT() REPRESENTATION_CONTEXT('2D SPACE',''
  ) );
#924 = ADVANCED_FACE('',(#925),#165,.T.);
#925 = FACE_BOUND('',#926,.T.);
#926 = EDGE_LOOP('',(#927,#950,#978,#1006,#1027));
#927 = ORIENTED_EDGE('',*,*,#928,.F.);
#928 = EDGE_CURVE('',#929,#147,#931,.T.);
#929 = VERTEX_POINT('',#930);
#930 = CARTESIAN_POINT('',(17.845312178456,10.764876005356,2.7500001));
#931 = SURFACE_CURVE('',#932,(#936,#943),.PCURVE_S1.);
#932 = LINE('',#933,#934);
#933 = CARTESIAN_POINT('',(16.774097914175,10.146410161514,2.7500001));
#934 = VECTOR('',#935,1.);
#935 = DIRECTION('',(0.866025403784,0.5,0.));
#936 = PCURVE('',#165,#937);
#937 = DEFINITIONAL_REPRESENTATION('',(#938),#942);
#938 = LINE('',#939,#940);
#939 = CARTESIAN_POINT('',(1.054711873394E-15,0.8));
#940 = VECTOR('',#941,1.);
#941 = DIRECTION('',(1.,0.));
#942 = ( GEOMETRIC_REPRESENTATION_CONTEXT(2) 
PARAMETRIC_REPRESENTATION_CONTEXT() REPRESENTATION_CONTEXT('2D SPACE',''
  ) );
#943 = PCURVE('',#197,#944);
#944 = DEFINITIONAL_REPRESENTATION('',(#945),#949);
#945 = LINE('',#946,#947);
#946 = CARTESIAN_POINT('',(0.,0.));
#947 = VECTOR('',#948,1.);
#948 = DIRECTION('',(0.,1.));
#949 = ( GEOMETRIC_REPRESENTATION_CONTEXT(2) 
PARAMETRIC_REPRESENTATION_CONTEXT() REPRESENTATION_CONTEXT('2D SPACE',''
  ) );
#950 = ORIENTED_EDGE('',*,*,#951,.T.);
#951 = EDGE_CURVE('',#929,#952,#954,.T.);
#952 = VERTEX_POINT('',#953);
#953 = CARTESIAN_POINT('',(18.099930939095,10.45,2.7500001));
#954 = SURFACE_CURVE('',#955,(#960,#971),.PCURVE_S1.);
#955 = CIRCLE('',#956,1.3);
#956 = AXIS2_PLACEMENT_3D('',#957,#958,#959);
#957 = CARTESIAN_POINT('',(16.974097914175,9.8,2.7500001));
#958 = DIRECTION('',(0.,0.,-1.));
#959 = DIRECTION('',(0.866025403784,0.5,0.));
#960 = PCURVE('',#165,#961);
#961 = DEFINITIONAL_REPRESENTATION('',(#962),#970);
#962 = ( BOUNDED_CURVE() B_SPLINE_CURVE(2,(#963,#964,#965,#966,#967,#968
,#969),.UNSPECIFIED.,.T.,.F.) B_SPLINE_CURVE_WITH_KNOTS((1,2,2,2,2,1),(
    -2.094395102393,0.,2.094395102393,4.188790204786,6.28318530718,
8.377580409573),.UNSPECIFIED.) CURVE() GEOMETRIC_REPRESENTATION_ITEM() 
RATIONAL_B_SPLINE_CURVE((1.,0.5,1.,0.5,1.,0.5,1.)) REPRESENTATION_ITEM(
  '') );
#963 = CARTESIAN_POINT('',(1.3,0.4));
#964 = CARTESIAN_POINT('',(1.3,-1.85166604984));
#965 = CARTESIAN_POINT('',(-0.65,-0.72583302492));
#966 = CARTESIAN_POINT('',(-2.6,0.4));
#967 = CARTESIAN_POINT('',(-0.65,1.52583302492));
#968 = CARTESIAN_POINT('',(1.3,2.65166604984));
#969 = CARTESIAN_POINT('',(1.3,0.4));
#970 = ( GEOMETRIC_REPRESENTATION_CONTEXT(2) 
PARAMETRIC_REPRESENTATION_CONTEXT() REPRESENTATION_CONTEXT('2D SPACE',''
  ) );
#971 = PCURVE('',#736,#972);
#972 = DEFINITIONAL_REPRESENTATION('',(#973),#977);
#973 = LINE('',#974,#975);
#974 = CARTESIAN_POINT('',(-6.28318530718,-2.75));
#975 = VECTOR('',#976,1.);
#976 = DIRECTION('',(1.,-0.));
#977 = ( GEOMETRIC_REPRESENTATION_CONTEXT(2) 
PARAMETRIC_REPRESENTATION_CONTEXT() REPRESENTATION_CONTEXT('2D SPACE',''
  ) );
#978 = ORIENTED_EDGE('',*,*,#979,.T.);
#979 = EDGE_CURVE('',#952,#980,#982,.T.);
#980 = VERTEX_POINT('',#981);
#981 = CARTESIAN_POINT('',(18.245312178456,10.072055682329,2.7500001));
#982 = SURFACE_CURVE('',#983,(#988,#999),.PCURVE_S1.);
#983 = CIRCLE('',#984,1.3);
#984 = AXIS2_PLACEMENT_3D('',#985,#986,#987);
#985 = CARTESIAN_POINT('',(16.974097914175,9.8,2.7500001));
#986 = DIRECTION('',(0.,0.,-1.));
#987 = DIRECTION('',(0.866025403784,0.5,0.));
#988 = PCURVE('',#165,#989);
#989 = DEFINITIONAL_REPRESENTATION('',(#990),#998);
#990 = ( BOUNDED_CURVE() B_SPLINE_CURVE(2,(#991,#992,#993,#994,#995,#996
,#997),.UNSPECIFIED.,.T.,.F.) B_SPLINE_CURVE_WITH_KNOTS((1,2,2,2,2,1),(
    -2.094395102393,0.,2.094395102393,4.188790204786,6.28318530718,
8.377580409573),.UNSPECIFIED.) CURVE() GEOMETRIC_REPRESENTATION_ITEM() 
RATIONAL_B_SPLINE_CURVE((1.,0.5,1.,0.5,1.,0.5,1.)) REPRESENTATION_ITEM(
  '') );
#991 = CARTESIAN_POINT('',(1.3,0.4));
#992 = CARTESIAN_POINT('',(1.3,-1.85166604984));
#993 = CARTESIAN_POINT('',(-0.65,-0.72583302492));
#994 = CARTESIAN_POINT('',(-2.6,0.4));
#995 = CARTESIAN_POINT('',(-0.65,1.52583302492));
#996 = CARTESIAN_POINT('',(1.3,2.65166604984));
#997 = CARTESIAN_POINT('',(1.3,0.4));
#998 = ( GEOMETRIC_REPRESENTATION_CONTEXT(2) 
PARAMETRIC_REPRESENTATION_CONTEXT() REPRESENTATION_CONTEXT('2D SPACE',''
  ) );
#999 = PCURVE('',#736,#1000);
#1000 = DEFINITIONAL_REPRESENTATION('',(#1001),#1005);
#1001 = LINE('',#1002,#1003);
#1002 = CARTESIAN_POINT('',(-6.28318530718,-2.75));
#1003 = VECTOR('',#1004,1.);
#1004 = DIRECTION('',(1.,-0.));
#1005 = ( GEOMETRIC_REPRESENTATION_CONTEXT(2) 
PARAMETRIC_REPRESENTATION_CONTEXT() REPRESENTATION_CONTEXT('2D SPACE',''
  ) );
#1006 = ORIENTED_EDGE('',*,*,#1007,.T.);
#1007 = EDGE_CURVE('',#980,#149,#1008,.T.);
#1008 = SURFACE_CURVE('',#1009,(#1013,#1020),.PCURVE_S1.);
#1009 = LINE('',#1010,#1011);
#1010 = CARTESIAN_POINT('',(17.174097914175,9.453589838486,2.7500001));
#1011 = VECTOR('',#1012,1.);
#1012 = DIRECTION('',(0.866025403784,0.5,0.));
#1013 = PCURVE('',#165,#1014);
#1014 = DEFINITIONAL_REPRESENTATION('',(#1015),#1019);
#1015 = LINE('',#1016,#1017);
#1016 = CARTESIAN_POINT('',(0.,0.));
#1017 = VECTOR('',#1018,1.);
#1018 = DIRECTION('',(1.,0.));
#1019 = ( GEOMETRIC_REPRESENTATION_CONTEXT(2) 
PARAMETRIC_REPRESENTATION_CONTEXT() REPRESENTATION_CONTEXT('2D SPACE',''
  ) );
#1020 = PCURVE('',#256,#1021);
#1021 = DEFINITIONAL_REPRESENTATION('',(#1022),#1026);
#1022 = LINE('',#1023,#1024);
#1023 = CARTESIAN_POINT('',(0.,0.));
#1024 = VECTOR('',#1025,1.);
#1025 = DIRECTION('',(0.,1.));
#1026 = ( GEOMETRIC_REPRESENTATION_CONTEXT(2) 
PARAMETRIC_REPRESENTATION_CONTEXT() REPRESENTATION_CONTEXT('2D SPACE',''
  ) );
#1027 = ORIENTED_EDGE('',*,*,#146,.F.);
#1028 = ADVANCED_FACE('',(#1029),#197,.F.);
#1029 = FACE_BOUND('',#1030,.F.);
#1030 = EDGE_LOOP('',(#1031,#1032,#1055,#1076));
#1031 = ORIENTED_EDGE('',*,*,#928,.F.);
#1032 = ORIENTED_EDGE('',*,*,#1033,.F.);
#1033 = EDGE_CURVE('',#1034,#929,#1036,.T.);
#1034 = VERTEX_POINT('',#1035);
#1035 = CARTESIAN_POINT('',(17.845312178456,10.764876005356,20.2500001)
  );
#1036 = SURFACE_CURVE('',#1037,(#1041,#1048),.PCURVE_S1.);
#1037 = LINE('',#1038,#1039);
#1038 = CARTESIAN_POINT('',(17.845312178456,10.764876005356,
    9.999999939225E-08));
#1039 = VECTOR('',#1040,1.);
#1040 = DIRECTION('',(0.,-0.,-1.));
#1041 = PCURVE('',#197,#1042);
#1042 = DEFINITIONAL_REPRESENTATION('',(#1043),#1047);
#1043 = LINE('',#1044,#1045);
#1044 = CARTESIAN_POINT('',(-2.75,1.236931687685));
#1045 = VECTOR('',#1046,1.);
#1046 = DIRECTION('',(-1.,0.));
#1047 = ( GEOMETRIC_REPRESENTATION_CONTEXT(2) 
PARAMETRIC_REPRESENTATION_CONTEXT() REPRESENTATION_CONTEXT('2D SPACE',''
  ) );
#1048 = PCURVE('',#736,#1049);
#1049 = DEFINITIONAL_REPRESENTATION('',(#1050),#1054);
#1050 = LINE('',#1051,#1052);
#1051 = CARTESIAN_POINT('',(-0.312766721942,0.));
#1052 = VECTOR('',#1053,1.);
#1053 = DIRECTION('',(-0.,1.));
#1054 = ( GEOMETRIC_REPRESENTATION_CONTEXT(2) 
PARAMETRIC_REPRESENTATION_CONTEXT() REPRESENTATION_CONTEXT('2D SPACE',''
  ) );
#1055 = ORIENTED_EDGE('',*,*,#1056,.T.);
#1056 = EDGE_CURVE('',#1034,#182,#1057,.T.);
#1057 = SURFACE_CURVE('',#1058,(#1062,#1069),.PCURVE_S1.);
#1058 = LINE('',#1059,#1060);
#1059 = CARTESIAN_POINT('',(16.774097914175,10.146410161514,20.2500001)
  );
#1060 = VECTOR('',#1061,1.);
#1061 = DIRECTION('',(0.866025403784,0.5,0.));
#1062 = PCURVE('',#197,#1063);
#1063 = DEFINITIONAL_REPRESENTATION('',(#1064),#1068);
#1064 = LINE('',#1065,#1066);
#1065 = CARTESIAN_POINT('',(17.5,0.));
#1066 = VECTOR('',#1067,1.);
#1067 = DIRECTION('',(0.,1.));
#1068 = ( GEOMETRIC_REPRESENTATION_CONTEXT(2) 
PARAMETRIC_REPRESENTATION_CONTEXT() REPRESENTATION_CONTEXT('2D SPACE',''
  ) );
#1069 = PCURVE('',#226,#1070);
#1070 = DEFINITIONAL_REPRESENTATION('',(#1071),#1075);
#1071 = LINE('',#1072,#1073);
#1072 = CARTESIAN_POINT('',(1.054711873394E-15,0.8));
#1073 = VECTOR('',#1074,1.);
#1074 = DIRECTION('',(1.,0.));
#1075 = ( GEOMETRIC_REPRESENTATION_CONTEXT(2) 
PARAMETRIC_REPRESENTATION_CONTEXT() REPRESENTATION_CONTEXT('2D SPACE',''
  ) );
#1076 = ORIENTED_EDGE('',*,*,#181,.T.);
#1077 = ADVANCED_FACE('',(#1078),#256,.T.);
#1078 = FACE_BOUND('',#1079,.T.);
#1079 = EDGE_LOOP('',(#1080,#1081,#1104,#1125));
#1080 = ORIENTED_EDGE('',*,*,#1007,.F.);
#1081 = ORIENTED_EDGE('',*,*,#1082,.F.);
#1082 = EDGE_CURVE('',#1083,#980,#1085,.T.);
#1083 = VERTEX_POINT('',#1084);
#1084 = CARTESIAN_POINT('',(18.245312178456,10.072055682329,20.2500001)
  );
#1085 = SURFACE_CURVE('',#1086,(#1090,#1097),.PCURVE_S1.);
#1086 = LINE('',#1087,#1088);
#1087 = CARTESIAN_POINT('',(18.245312178456,10.072055682329,
    9.999999939225E-08));
#1088 = VECTOR('',#1089,1.);
#1089 = DIRECTION('',(0.,-0.,-1.));
#1090 = PCURVE('',#256,#1091);
#1091 = DEFINITIONAL_REPRESENTATION('',(#1092),#1096);
#1092 = LINE('',#1093,#1094);
#1093 = CARTESIAN_POINT('',(-2.75,1.236931687685));
#1094 = VECTOR('',#1095,1.);
#1095 = DIRECTION('',(-1.,0.));
#1096 = ( GEOMETRIC_REPRESENTATION_CONTEXT(2) 
PARAMETRIC_REPRESENTATION_CONTEXT() REPRESENTATION_CONTEXT('2D SPACE',''
  ) );
#1097 = PCURVE('',#736,#1098);
#1098 = DEFINITIONAL_REPRESENTATION('',(#1099),#1103);
#1099 = LINE('',#1100,#1101);
#1100 = CARTESIAN_POINT('',(-5.970418585238,0.));
#1101 = VECTOR('',#1102,1.);
#1102 = DIRECTION('',(-0.,1.));
#1103 = ( GEOMETRIC_REPRESENTATION_CONTEXT(2) 
PARAMETRIC_REPRESENTATION_CONTEXT() REPRESENTATION_CONTEXT('2D SPACE',''
  ) );
#1104 = ORIENTED_EDGE('',*,*,#1105,.T.);
#1105 = EDGE_CURVE('',#1083,#210,#1106,.T.);
#1106 = SURFACE_CURVE('',#1107,(#1111,#1118),.PCURVE_S1.);
#1107 = LINE('',#1108,#1109);
#1108 = CARTESIAN_POINT('',(17.174097914175,9.453589838486,20.2500001));
#1109 = VECTOR('',#1110,1.);
#1110 = DIRECTION('',(0.866025403784,0.5,0.));
#1111 = PCURVE('',#256,#1112);
#1112 = DEFINITIONAL_REPRESENTATION('',(#1113),#1117);
#1113 = LINE('',#1114,#1115);
#1114 = CARTESIAN_POINT('',(17.5,0.));
#1115 = VECTOR('',#1116,1.);
#1116 = DIRECTION('',(0.,1.));
#1117 = ( GEOMETRIC_REPRESENTATION_CONTEXT(2) 
PARAMETRIC_REPRESENTATION_CONTEXT() REPRESENTATION_CONTEXT('2D SPACE',''
  ) );
#1118 = PCURVE('',#226,#1119);
#1119 = DEFINITIONAL_REPRESENTATION('',(#1120),#1124);
#1120 = LINE('',#1121,#1122);
#1121 = CARTESIAN_POINT('',(0.,0.));
#1122 = VECTOR('',#1123,1.);
#1123 = DIRECTION('',(1.,0.));
#1124 = ( GEOMETRIC_REPRESENTATION_CONTEXT(2) 
PARAMETRIC_REPRESENTATION_CONTEXT() REPRESENTATION_CONTEXT('2D SPACE',''
  ) );
#1125 = ORIENTED_EDGE('',*,*,#242,.T.);
#1126 = ADVANCED_FACE('',(#1127),#226,.F.);
#1127 = FACE_BOUND('',#1128,.F.);
#1128 = EDGE_LOOP('',(#1129,#1130,#1158,#1184,#1185));
#1129 = ORIENTED_EDGE('',*,*,#1056,.F.);
#1130 = ORIENTED_EDGE('',*,*,#1131,.T.);
#1131 = EDGE_CURVE('',#1034,#1132,#1134,.T.);
#1132 = VERTEX_POINT('',#1133);
#1133 = CARTESIAN_POINT('',(18.099930939095,10.45,20.2500001));
#1134 = SURFACE_CURVE('',#1135,(#1140,#1151),.PCURVE_S1.);
#1135 = CIRCLE('',#1136,1.3);
#1136 = AXIS2_PLACEMENT_3D('',#1137,#1138,#1139);
#1137 = CARTESIAN_POINT('',(16.974097914175,9.8,20.2500001));
#1138 = DIRECTION('',(0.,0.,-1.));
#1139 = DIRECTION('',(0.866025403784,0.5,0.));
#1140 = PCURVE('',#226,#1141);
#1141 = DEFINITIONAL_REPRESENTATION('',(#1142),#1150);
#1142 = ( BOUNDED_CURVE() B_SPLINE_CURVE(2,(#1143,#1144,#1145,#1146,
#1147,#1148,#1149),.UNSPECIFIED.,.T.,.F.) B_SPLINE_CURVE_WITH_KNOTS((1,2
    ,2,2,2,1),(-2.094395102393,0.,2.094395102393,4.188790204786,
6.28318530718,8.377580409573),.UNSPECIFIED.) CURVE() 
GEOMETRIC_REPRESENTATION_ITEM() RATIONAL_B_SPLINE_CURVE((1.,0.5,1.,0.5,
1.,0.5,1.)) REPRESENTATION_ITEM('') );
#1143 = CARTESIAN_POINT('',(1.3,0.4));
#1144 = CARTESIAN_POINT('',(1.3,-1.85166604984));
#1145 = CARTESIAN_POINT('',(-0.65,-0.72583302492));
#1146 = CARTESIAN_POINT('',(-2.6,0.4));
#1147 = CARTESIAN_POINT('',(-0.65,1.52583302492));
#1148 = CARTESIAN_POINT('',(1.3,2.65166604984));
#1149 = CARTESIAN_POINT('',(1.3,0.4));
#1150 = ( GEOMETRIC_REPRESENTATION_CONTEXT(2) 
PARAMETRIC_REPRESENTATION_CONTEXT() REPRESENTATION_CONTEXT('2D SPACE',''
  ) );
#1151 = PCURVE('',#736,#1152);
#1152 = DEFINITIONAL_REPRESENTATION('',(#1153),#1157);
#1153 = LINE('',#1154,#1155);
#1154 = CARTESIAN_POINT('',(-6.28318530718,-20.25));
#1155 = VECTOR('',#1156,1.);
#1156 = DIRECTION('',(1.,-0.));
#1157 = ( GEOMETRIC_REPRESENTATION_CONTEXT(2) 
PARAMETRIC_REPRESENTATION_CONTEXT() REPRESENTATION_CONTEXT('2D SPACE',''
  ) );
#1158 = ORIENTED_EDGE('',*,*,#1159,.T.);
#1159 = EDGE_CURVE('',#1132,#1083,#1160,.T.);
#1160 = SURFACE_CURVE('',#1161,(#1166,#1177),.PCURVE_S1.);
#1161 = CIRCLE('',#1162,1.3);
#1162 = AXIS2_PLACEMENT_3D('',#1163,#1164,#1165);
#1163 = CARTESIAN_POINT('',(16.974097914175,9.8,20.2500001));
#1164 = DIRECTION('',(0.,0.,-1.));
#1165 = DIRECTION('',(0.866025403784,0.5,0.));
#1166 = PCURVE('',#226,#1167);
#1167 = DEFINITIONAL_REPRESENTATION('',(#1168),#1176);
#1168 = ( BOUNDED_CURVE() B_SPLINE_CURVE(2,(#1169,#1170,#1171,#1172,
#1173,#1174,#1175),.UNSPECIFIED.,.T.,.F.) B_SPLINE_CURVE_WITH_KNOTS((1,2
    ,2,2,2,1),(-2.094395102393,0.,2.094395102393,4.188790204786,
6.28318530718,8.377580409573),.UNSPECIFIED.) CURVE() 
GEOMETRIC_REPRESENTATION_ITEM() RATIONAL_B_SPLINE_CURVE((1.,0.5,1.,0.5,
1.,0.5,1.)) REPRESENTATION_ITEM('') );
#1169 = CARTESIAN_POINT('',(1.3,0.4));
#1170 = CARTESIAN_POINT('',(1.3,-1.85166604984));
#1171 = CARTESIAN_POINT('',(-0.65,-0.72583302492));
#1172 = CARTESIAN_POINT('',(-2.6,0.4));
#1173 = CARTESIAN_POINT('',(-0.65,1.52583302492));
#1174 = CARTESIAN_POINT('',(1.3,2.65166604984));
#1175 = CARTESIAN_POINT('',(1.3,0.4));
#1176 = ( GEOMETRIC_REPRESENTATION_CONTEXT(2) 
PARAMETRIC_REPRESENTATION_CONTEXT() REPRESENTATION_CONTEXT('2D SPACE',''
  ) );
#1177 = PCURVE('',#736,#1178);
#1178 = DEFINITIONAL_REPRESENTATION('',(#1179),#1183);
#1179 = LINE('',#1180,#1181);
#1180 = CARTESIAN_POINT('',(-6.28318530718,-20.25));
#1181 = VECTOR('',#1182,1.);
#1182 = DIRECTION('',(1.,-0.));
#1183 = ( GEOMETRIC_REPRESENTATION_CONTEXT(2) 
PARAMETRIC_REPRESENTATION_CONTEXT() REPRESENTATION_CONTEXT('2D SPACE',''
  ) );
#1184 = ORIENTED_EDGE('',*,*,#1105,.T.);
#1185 = ORIENTED_EDGE('',*,*,#209,.F.);
#1186 = ADVANCED_FACE('',(#1187),#380,.F.);
#1187 = FACE_BOUND('',#1188,.T.);
#1188 = EDGE_LOOP('',(#1189,#1293,#1314,#1315));
#1189 = ORIENTED_EDGE('',*,*,#1190,.F.);
#1190 = EDGE_CURVE('',#1191,#1191,#1193,.T.);
#1191 = VERTEX_POINT('',#1192);
#1192 = CARTESIAN_POINT('',(-8.858697938928,13.44371491913,11.5000001));
#1193 = SURFACE_CURVE('',#1194,(#1225,#1259),.PCURVE_S1.);
#1194 = B_SPLINE_CURVE_WITH_KNOTS('',8,(#1195,#1196,#1197,#1198,#1199,
    #1200,#1201,#1202,#1203,#1204,#1205,#1206,#1207,#1208,#1209,#1210,
    #1211,#1212,#1213,#1214,#1215,#1216,#1217,#1218,#1219,#1220,#1221,
    #1222,#1223,#1224),.UNSPECIFIED.,.T.,.F.,(9,7,7,7,9),(0.,
    0.250000000039,0.500000000071,0.750000000051,1.),.UNSPECIFIED.);
#1195 = CARTESIAN_POINT('',(-8.858697938928,13.44371491913,11.5000001));
#1196 = CARTESIAN_POINT('',(-8.858697938928,13.44371491913,
    11.666759079373));
#1197 = CARTESIAN_POINT('',(-8.830715082875,13.462154331131,
    11.839107311231));
#1198 = CARTESIAN_POINT('',(-8.771463966915,13.501196388024,
    12.008054600234));
#1199 = CARTESIAN_POINT('',(-8.68025207437,13.560837299822,
    12.16362646017));
#1200 = CARTESIAN_POINT('',(-8.558264801061,13.639060182579,
    12.295872585325));
#1201 = CARTESIAN_POINT('',(-8.408296728785,13.732394783303,
    12.394938861686));
#1202 = CARTESIAN_POINT('',(-8.235276444094,13.836039596057,12.4500001)
  );
#1203 = CARTESIAN_POINT('',(-7.864723555911,14.049978405799,12.4500001)
  );
#1204 = CARTESIAN_POINT('',(-7.688454372741,14.147995961339,
    12.394938861689));
#1205 = CARTESIAN_POINT('',(-7.532640201315,14.231204821329,
    12.295872585317));
#1206 = CARTESIAN_POINT('',(-7.403903561071,14.297737457556,
    12.163626460167));
#1207 = CARTESIAN_POINT('',(-7.30664707004,14.346908817747,
    12.00805460026));
#1208 = CARTESIAN_POINT('',(-7.243210098992,14.378700760917,
    11.839107311203));
#1209 = CARTESIAN_POINT('',(-7.213249671738,14.39371491913,
    11.666759079384));
#1210 = CARTESIAN_POINT('',(-7.213249671738,14.39371491913,
    11.333241120651));
#1211 = CARTESIAN_POINT('',(-7.243210098982,14.378700760922,
    11.160892888712));
#1212 = CARTESIAN_POINT('',(-7.306647070084,14.346908817724,
    10.991945599814));
#1213 = CARTESIAN_POINT('',(-7.403903561001,14.297737457592,
    10.836373739826));
#1214 = CARTESIAN_POINT('',(-7.532640201354,14.23120482131,
    10.70412761466));
#1215 = CARTESIAN_POINT('',(-7.68845437275,14.147995961333,
    10.60506133832));
#1216 = CARTESIAN_POINT('',(-7.864723555897,14.049978405807,10.5500001)
  );
#1217 = CARTESIAN_POINT('',(-8.23527644408,13.836039596065,10.5500001));
#1218 = CARTESIAN_POINT('',(-8.408296728795,13.732394783298,
    10.605061338305));
#1219 = CARTESIAN_POINT('',(-8.558264801103,13.639060182551,
    10.704127614699));
#1220 = CARTESIAN_POINT('',(-8.680252074295,13.560837299871,
    10.83637373984));
#1221 = CARTESIAN_POINT('',(-8.771463966963,13.501196387993,
    10.991945599679));
#1222 = CARTESIAN_POINT('',(-8.830715082865,13.462154331138,
    11.160892888868));
#1223 = CARTESIAN_POINT('',(-8.858697938928,13.44371491913,
    11.333241120587));
#1224 = CARTESIAN_POINT('',(-8.858697938928,13.44371491913,11.5000001));
#1225 = PCURVE('',#380,#1226);
#1226 = DEFINITIONAL_REPRESENTATION('',(#1227),#1258);
#1227 = B_SPLINE_CURVE_WITH_KNOTS('',8,(#1228,#1229,#1230,#1231,#1232,
    #1233,#1234,#1235,#1236,#1237,#1238,#1239,#1240,#1241,#1242,#1243,
    #1244,#1245,#1246,#1247,#1248,#1249,#1250,#1251,#1252,#1253,#1254,
    #1255,#1256,#1257),.UNSPECIFIED.,.F.,.F.,(9,7,7,7,9),(0.,
    0.250000000039,0.500000000071,0.750000000051,1.),.UNSPECIFIED.);
#1228 = CARTESIAN_POINT('',(0.,-2.071947610666));
#1229 = CARTESIAN_POINT('',(-0.175535767761,-2.071947610666));
#1230 = CARTESIAN_POINT('',(-0.356955669424,-2.073925181864));
#1231 = CARTESIAN_POINT('',(-0.543032938418,-2.078111036969));
#1232 = CARTESIAN_POINT('',(-0.73384929519,-2.084155635418));
#1233 = CARTESIAN_POINT('',(-0.930093662057,-2.090905002389));
#1234 = CARTESIAN_POINT('',(-1.133319594462,-2.09675110153));
#1235 = CARTESIAN_POINT('',(-1.345597579695,-2.1));
#1236 = CARTESIAN_POINT('',(-1.795995073888,-2.1));
#1237 = CARTESIAN_POINT('',(-2.008273059134,-2.09675110153));
#1238 = CARTESIAN_POINT('',(-2.211498991538,-2.090905002388));
#1239 = CARTESIAN_POINT('',(-2.407743358398,-2.08415563542));
#1240 = CARTESIAN_POINT('',(-2.598559715149,-2.078111036968));
#1241 = CARTESIAN_POINT('',(-2.784636984195,-2.073925181864));
#1242 = CARTESIAN_POINT('',(-2.966056885817,-2.071947610666));
#1243 = CARTESIAN_POINT('',(-3.317128421326,-2.071947610666));
#1244 = CARTESIAN_POINT('',(-3.498548323071,-2.073925181864));
#1245 = CARTESIAN_POINT('',(-3.684625591967,-2.07811103697));
#1246 = CARTESIAN_POINT('',(-3.875441948772,-2.084155635416));
#1247 = CARTESIAN_POINT('',(-4.071686315661,-2.090905002391));
#1248 = CARTESIAN_POINT('',(-4.274912248061,-2.096751101529));
#1249 = CARTESIAN_POINT('',(-4.487190233275,-2.1));
#1250 = CARTESIAN_POINT('',(-4.937587727467,-2.1));
#1251 = CARTESIAN_POINT('',(-5.149865712734,-2.096751101531));
#1252 = CARTESIAN_POINT('',(-5.353091645145,-2.090905002385));
#1253 = CARTESIAN_POINT('',(-5.549336011979,-2.084155635423));
#1254 = CARTESIAN_POINT('',(-5.740152368688,-2.078111036966));
#1255 = CARTESIAN_POINT('',(-5.926229637856,-2.073925181865));
#1256 = CARTESIAN_POINT('',(-6.107649539377,-2.071947610666));
#1257 = CARTESIAN_POINT('',(-6.28318530718,-2.071947610666));
#1258 = ( GEOMETRIC_REPRESENTATION_CONTEXT(2) 
PARAMETRIC_REPRESENTATION_CONTEXT() REPRESENTATION_CONTEXT('2D SPACE',''
  ) );
#1259 = PCURVE('',#705,#1260);
#1260 = DEFINITIONAL_REPRESENTATION('',(#1261),#1292);
#1261 = B_SPLINE_CURVE_WITH_KNOTS('',8,(#1262,#1263,#1264,#1265,#1266,
    #1267,#1268,#1269,#1270,#1271,#1272,#1273,#1274,#1275,#1276,#1277,
    #1278,#1279,#1280,#1281,#1282,#1283,#1284,#1285,#1286,#1287,#1288,
    #1289,#1290,#1291),.UNSPECIFIED.,.T.,.F.,(9,7,7,7,9),(0.,
    0.250000000039,0.500000000071,0.750000000051,1.),.UNSPECIFIED.);
#1262 = CARTESIAN_POINT('',(-2.153435607977,-11.5));
#1263 = CARTESIAN_POINT('',(-2.153435607977,-11.66675897937));
#1264 = CARTESIAN_POINT('',(-2.151354118196,-11.83910721123));
#1265 = CARTESIAN_POINT('',(-2.146946821169,-12.00805450023));
#1266 = CARTESIAN_POINT('',(-2.140177900865,-12.16362636017));
#1267 = CARTESIAN_POINT('',(-2.13117784084,-12.29587248532));
#1268 = CARTESIAN_POINT('',(-2.120208841429,-12.39493876168));
#1269 = CARTESIAN_POINT('',(-2.107683227222,-12.45));
#1270 = CARTESIAN_POINT('',(-2.081106977565,-12.45));
#1271 = CARTESIAN_POINT('',(-2.068581363358,-12.39493876168));
#1272 = CARTESIAN_POINT('',(-2.057612363946,-12.29587248531));
#1273 = CARTESIAN_POINT('',(-2.048612303923,-12.16362636016));
#1274 = CARTESIAN_POINT('',(-2.041843383617,-12.00805450026));
#1275 = CARTESIAN_POINT('',(-2.037436086591,-11.8391072112));
#1276 = CARTESIAN_POINT('',(-2.035354596809,-11.66675897938));
#1277 = CARTESIAN_POINT('',(-2.035354596809,-11.33324102065));
#1278 = CARTESIAN_POINT('',(-2.03743608659,-11.16089278871));
#1279 = CARTESIAN_POINT('',(-2.04184338362,-10.99194549981));
#1280 = CARTESIAN_POINT('',(-2.048612303918,-10.83637363982));
#1281 = CARTESIAN_POINT('',(-2.057612363949,-10.70412751465));
#1282 = CARTESIAN_POINT('',(-2.068581363358,-10.60506123832));
#1283 = CARTESIAN_POINT('',(-2.081106977564,-10.55));
#1284 = CARTESIAN_POINT('',(-2.107683227221,-10.55));
#1285 = CARTESIAN_POINT('',(-2.120208841429,-10.6050612383));
#1286 = CARTESIAN_POINT('',(-2.131177840843,-10.70412751469));
#1287 = CARTESIAN_POINT('',(-2.14017790086,-10.83637363984));
#1288 = CARTESIAN_POINT('',(-2.146946821172,-10.99194549967));
#1289 = CARTESIAN_POINT('',(-2.151354118195,-11.16089278886));
#1290 = CARTESIAN_POINT('',(-2.153435607977,-11.33324102058));
#1291 = CARTESIAN_POINT('',(-2.153435607977,-11.5));
#1292 = ( GEOMETRIC_REPRESENTATION_CONTEXT(2) 
PARAMETRIC_REPRESENTATION_CONTEXT() REPRESENTATION_CONTEXT('2D SPACE',''
  ) );
#1293 = ORIENTED_EDGE('',*,*,#1294,.T.);
#1294 = EDGE_CURVE('',#1191,#271,#1295,.T.);
#1295 = SEAM_CURVE('',#1296,(#1300,#1307),.PCURVE_S1.);
#1296 = LINE('',#1297,#1298);
#1297 = CARTESIAN_POINT('',(-7.822724133595,11.649355652982,11.5000001)
  );
#1298 = VECTOR('',#1299,1.);
#1299 = DIRECTION('',(-0.5,0.866025403784,0.));
#1300 = PCURVE('',#380,#1301);
#1301 = DEFINITIONAL_REPRESENTATION('',(#1302),#1306);
#1302 = LINE('',#1303,#1304);
#1303 = CARTESIAN_POINT('',(-6.28318530718,0.));
#1304 = VECTOR('',#1305,1.);
#1305 = DIRECTION('',(-0.,-1.));
#1306 = ( GEOMETRIC_REPRESENTATION_CONTEXT(2) 
PARAMETRIC_REPRESENTATION_CONTEXT() REPRESENTATION_CONTEXT('2D SPACE',''
  ) );
#1307 = PCURVE('',#380,#1308);
#1308 = DEFINITIONAL_REPRESENTATION('',(#1309),#1313);
#1309 = LINE('',#1310,#1311);
#1310 = CARTESIAN_POINT('',(-0.,0.));
#1311 = VECTOR('',#1312,1.);
#1312 = DIRECTION('',(-0.,-1.));
#1313 = ( GEOMETRIC_REPRESENTATION_CONTEXT(2) 
PARAMETRIC_REPRESENTATION_CONTEXT() REPRESENTATION_CONTEXT('2D SPACE',''
  ) );
#1314 = ORIENTED_EDGE('',*,*,#270,.T.);
#1315 = ORIENTED_EDGE('',*,*,#1294,.F.);
#1316 = ADVANCED_FACE('',(#1317),#551,.F.);
#1317 = FACE_BOUND('',#1318,.T.);
#1318 = EDGE_LOOP('',(#1319,#1423,#1444,#1445));
#1319 = ORIENTED_EDGE('',*,*,#1320,.F.);
#1320 = EDGE_CURVE('',#1321,#1321,#1323,.T.);
#1321 = VERTEX_POINT('',#1322);
#1322 = CARTESIAN_POINT('',(-7.213249671738,-14.39371491913,11.5000001)
  );
#1323 = SURFACE_CURVE('',#1324,(#1355,#1389),.PCURVE_S1.);
#1324 = B_SPLINE_CURVE_WITH_KNOTS('',8,(#1325,#1326,#1327,#1328,#1329,
    #1330,#1331,#1332,#1333,#1334,#1335,#1336,#1337,#1338,#1339,#1340,
    #1341,#1342,#1343,#1344,#1345,#1346,#1347,#1348,#1349,#1350,#1351,
    #1352,#1353,#1354),.UNSPECIFIED.,.T.,.F.,(9,7,7,7,9),(0.,
    0.250000000031,0.500000000071,0.750000000043,1.),.UNSPECIFIED.);
#1325 = CARTESIAN_POINT('',(-7.213249671738,-14.39371491913,11.5000001)
  );
#1326 = CARTESIAN_POINT('',(-7.213249671738,-14.39371491913,
    11.666759079388));
#1327 = CARTESIAN_POINT('',(-7.243210098993,-14.37870076091,
    11.839107311192));
#1328 = CARTESIAN_POINT('',(-7.306647070035,-14.34690881775,
    12.008054600269));
#1329 = CARTESIAN_POINT('',(-7.403903561079,-14.29773745755,
    12.163626460165));
#1330 = CARTESIAN_POINT('',(-7.53264020131,-14.23120482133,
    12.295872585316));
#1331 = CARTESIAN_POINT('',(-7.68845437274,-14.14799596134,
    12.39493886169));
#1332 = CARTESIAN_POINT('',(-7.864723555912,-14.04997840579,12.4500001)
  );
#1333 = CARTESIAN_POINT('',(-8.235276444094,-13.83603959605,12.4500001)
  );
#1334 = CARTESIAN_POINT('',(-8.408296728785,-13.7323947833,
    12.394938861686));
#1335 = CARTESIAN_POINT('',(-8.558264801063,-13.63906018257,
    12.295872585325));
#1336 = CARTESIAN_POINT('',(-8.680252074368,-13.56083729982,
    12.163626460169));
#1337 = CARTESIAN_POINT('',(-8.771463966916,-13.50119638802,
    12.008054600237));
#1338 = CARTESIAN_POINT('',(-8.830715082875,-13.46215433113,
    11.839107311229));
#1339 = CARTESIAN_POINT('',(-8.858697938928,-13.44371491913,
    11.666759079374));
#1340 = CARTESIAN_POINT('',(-8.858697938928,-13.44371491913,
    11.333241120671));
#1341 = CARTESIAN_POINT('',(-8.830715082887,-13.46215433112,
    11.160892888658));
#1342 = CARTESIAN_POINT('',(-8.771463966861,-13.50119638805,
    10.991945599864));
#1343 = CARTESIAN_POINT('',(-8.680252074456,-13.56083729976,
    10.836373739817));
#1344 = CARTESIAN_POINT('',(-8.558264801013,-13.63906018261,
    10.704127614648));
#1345 = CARTESIAN_POINT('',(-8.408296728776,-13.7323947833,
    10.605061338325));
#1346 = CARTESIAN_POINT('',(-8.23527644411,-13.83603959604,10.5500001));
#1347 = CARTESIAN_POINT('',(-7.864723555902,-14.0499784058,10.5500001));
#1348 = CARTESIAN_POINT('',(-7.688454372747,-14.14799596133,
    10.605061338318));
#1349 = CARTESIAN_POINT('',(-7.532640201339,-14.23120482131,
    10.704127614667));
#1350 = CARTESIAN_POINT('',(-7.403903561028,-14.29773745757,
    10.83637373983));
#1351 = CARTESIAN_POINT('',(-7.306647070066,-14.34690881773,
    10.991945599783));
#1352 = CARTESIAN_POINT('',(-7.243210098986,-14.37870076091,
    11.160892888748));
#1353 = CARTESIAN_POINT('',(-7.213249671738,-14.39371491913,
    11.333241120636));
#1354 = CARTESIAN_POINT('',(-7.213249671738,-14.39371491913,11.5000001)
  );
#1355 = PCURVE('',#551,#1356);
#1356 = DEFINITIONAL_REPRESENTATION('',(#1357),#1388);
#1357 = B_SPLINE_CURVE_WITH_KNOTS('',8,(#1358,#1359,#1360,#1361,#1362,
    #1363,#1364,#1365,#1366,#1367,#1368,#1369,#1370,#1371,#1372,#1373,
    #1374,#1375,#1376,#1377,#1378,#1379,#1380,#1381,#1382,#1383,#1384,
    #1385,#1386,#1387),.UNSPECIFIED.,.F.,.F.,(9,7,7,7,9),(0.,
    0.250000000031,0.500000000071,0.750000000043,1.),.UNSPECIFIED.);
#1358 = CARTESIAN_POINT('',(0.,-2.071947610666));
#1359 = CARTESIAN_POINT('',(-0.175535767777,-2.071947610666));
#1360 = CARTESIAN_POINT('',(-0.356955669384,-2.073925181864));
#1361 = CARTESIAN_POINT('',(-0.543032938449,-2.078111036968));
#1362 = CARTESIAN_POINT('',(-0.733849295193,-2.08415563542));
#1363 = CARTESIAN_POINT('',(-0.930093662049,-2.090905002387));
#1364 = CARTESIAN_POINT('',(-1.133319594455,-2.09675110153));
#1365 = CARTESIAN_POINT('',(-1.345597579703,-2.1));
#1366 = CARTESIAN_POINT('',(-1.795995073894,-2.1));
#1367 = CARTESIAN_POINT('',(-2.008273059128,-2.09675110153));
#1368 = CARTESIAN_POINT('',(-2.211498991534,-2.090905002389));
#1369 = CARTESIAN_POINT('',(-2.407743358399,-2.084155635419));
#1370 = CARTESIAN_POINT('',(-2.59855971517,-2.078111036969));
#1371 = CARTESIAN_POINT('',(-2.784636984168,-2.073925181864));
#1372 = CARTESIAN_POINT('',(-2.966056885828,-2.071947610666));
#1373 = CARTESIAN_POINT('',(-3.317128421304,-2.071947610666));
#1374 = CARTESIAN_POINT('',(-3.498548323125,-2.073925181863));
#1375 = CARTESIAN_POINT('',(-3.684625591924,-2.078111036972));
#1376 = CARTESIAN_POINT('',(-3.875441948768,-2.084155635413));
#1377 = CARTESIAN_POINT('',(-4.071686315675,-2.090905002393));
#1378 = CARTESIAN_POINT('',(-4.274912248069,-2.096751101528));
#1379 = CARTESIAN_POINT('',(-4.487190233266,-2.1));
#1380 = CARTESIAN_POINT('',(-4.937587727489,-2.1));
#1381 = CARTESIAN_POINT('',(-5.149865712714,-2.096751101529));
#1382 = CARTESIAN_POINT('',(-5.353091645114,-2.09090500239));
#1383 = CARTESIAN_POINT('',(-5.549336011997,-2.084155635417));
#1384 = CARTESIAN_POINT('',(-5.740152368775,-2.078111036969));
#1385 = CARTESIAN_POINT('',(-5.926229637735,-2.073925181864));
#1386 = CARTESIAN_POINT('',(-6.107649539428,-2.071947610666));
#1387 = CARTESIAN_POINT('',(-6.28318530718,-2.071947610666));
#1388 = ( GEOMETRIC_REPRESENTATION_CONTEXT(2) 
PARAMETRIC_REPRESENTATION_CONTEXT() REPRESENTATION_CONTEXT('2D SPACE',''
  ) );
#1389 = PCURVE('',#705,#1390);
#1390 = DEFINITIONAL_REPRESENTATION('',(#1391),#1422);
#1391 = B_SPLINE_CURVE_WITH_KNOTS('',8,(#1392,#1393,#1394,#1395,#1396,
    #1397,#1398,#1399,#1400,#1401,#1402,#1403,#1404,#1405,#1406,#1407,
    #1408,#1409,#1410,#1411,#1412,#1413,#1414,#1415,#1416,#1417,#1418,
    #1419,#1420,#1421),.UNSPECIFIED.,.T.,.F.,(9,7,7,7,9),(0.,
    0.250000000031,0.500000000071,0.750000000043,1.),.UNSPECIFIED.);
#1392 = CARTESIAN_POINT('',(-4.247830710371,-11.5));
#1393 = CARTESIAN_POINT('',(-4.247830710371,-11.66675897938));
#1394 = CARTESIAN_POINT('',(-4.245749220589,-11.83910721119));
#1395 = CARTESIAN_POINT('',(-4.241341923563,-12.00805450027));
#1396 = CARTESIAN_POINT('',(-4.234573003256,-12.16362636016));
#1397 = CARTESIAN_POINT('',(-4.225572943234,-12.29587248531));
#1398 = CARTESIAN_POINT('',(-4.214603943822,-12.39493876169));
#1399 = CARTESIAN_POINT('',(-4.202078329615,-12.45));
#1400 = CARTESIAN_POINT('',(-4.175502079958,-12.45));
#1401 = CARTESIAN_POINT('',(-4.162976465751,-12.39493876168));
#1402 = CARTESIAN_POINT('',(-4.15200746634,-12.29587248532));
#1403 = CARTESIAN_POINT('',(-4.143007406315,-12.16362636016));
#1404 = CARTESIAN_POINT('',(-4.136238486011,-12.00805450023));
#1405 = CARTESIAN_POINT('',(-4.131831188984,-11.83910721122));
#1406 = CARTESIAN_POINT('',(-4.129749699202,-11.66675897937));
#1407 = CARTESIAN_POINT('',(-4.129749699202,-11.33324102067));
#1408 = CARTESIAN_POINT('',(-4.131831188983,-11.16089278865));
#1409 = CARTESIAN_POINT('',(-4.136238486015,-10.99194549986));
#1410 = CARTESIAN_POINT('',(-4.143007406308,-10.83637363981));
#1411 = CARTESIAN_POINT('',(-4.152007466344,-10.70412751464));
#1412 = CARTESIAN_POINT('',(-4.162976465752,-10.60506123832));
#1413 = CARTESIAN_POINT('',(-4.175502079956,-10.55));
#1414 = CARTESIAN_POINT('',(-4.202078329616,-10.55));
#1415 = CARTESIAN_POINT('',(-4.214603943822,-10.60506123831));
#1416 = CARTESIAN_POINT('',(-4.225572943232,-10.70412751466));
#1417 = CARTESIAN_POINT('',(-4.23457300326,-10.83637363983));
#1418 = CARTESIAN_POINT('',(-4.241341923561,-10.99194549978));
#1419 = CARTESIAN_POINT('',(-4.245749220589,-11.16089278874));
#1420 = CARTESIAN_POINT('',(-4.247830710371,-11.33324102063));
#1421 = CARTESIAN_POINT('',(-4.247830710371,-11.5));
#1422 = ( GEOMETRIC_REPRESENTATION_CONTEXT(2) 
PARAMETRIC_REPRESENTATION_CONTEXT() REPRESENTATION_CONTEXT('2D SPACE',''
  ) );
#1423 = ORIENTED_EDGE('',*,*,#1424,.T.);
#1424 = EDGE_CURVE('',#1321,#442,#1425,.T.);
#1425 = SEAM_CURVE('',#1426,(#1430,#1437),.PCURVE_S1.);
#1426 = LINE('',#1427,#1428);
#1427 = CARTESIAN_POINT('',(-6.177275866405,-12.59935565298,11.5000001)
  );
#1428 = VECTOR('',#1429,1.);
#1429 = DIRECTION('',(-0.5,-0.866025403784,0.));
#1430 = PCURVE('',#551,#1431);
#1431 = DEFINITIONAL_REPRESENTATION('',(#1432),#1436);
#1432 = LINE('',#1433,#1434);
#1433 = CARTESIAN_POINT('',(-6.28318530718,0.));
#1434 = VECTOR('',#1435,1.);
#1435 = DIRECTION('',(-0.,-1.));
#1436 = ( GEOMETRIC_REPRESENTATION_CONTEXT(2) 
PARAMETRIC_REPRESENTATION_CONTEXT() REPRESENTATION_CONTEXT('2D SPACE',''
  ) );
#1437 = PCURVE('',#551,#1438);
#1438 = DEFINITIONAL_REPRESENTATION('',(#1439),#1443);
#1439 = LINE('',#1440,#1441);
#1440 = CARTESIAN_POINT('',(-0.,0.));
#1441 = VECTOR('',#1442,1.);
#1442 = DIRECTION('',(-0.,-1.));
#1443 = ( GEOMETRIC_REPRESENTATION_CONTEXT(2) 
PARAMETRIC_REPRESENTATION_CONTEXT() REPRESENTATION_CONTEXT('2D SPACE',''
  ) );
#1444 = ORIENTED_EDGE('',*,*,#441,.T.);
#1445 = ORIENTED_EDGE('',*,*,#1424,.F.);
#1446 = ADVANCED_FACE('',(#1447),#653,.T.);
#1447 = FACE_BOUND('',#1448,.T.);
#1448 = EDGE_LOOP('',(#1449,#1450,#1451,#1452));
#1449 = ORIENTED_EDGE('',*,*,#801,.F.);
#1450 = ORIENTED_EDGE('',*,*,#637,.T.);
#1451 = ORIENTED_EDGE('',*,*,#752,.T.);
#1452 = ORIENTED_EDGE('',*,*,#852,.F.);
#1453 = ADVANCED_FACE('',(#1454,#1480,#1483),#705,.F.);
#1454 = FACE_BOUND('',#1455,.T.);
#1455 = EDGE_LOOP('',(#1456,#1477,#1478,#1479));
#1456 = ORIENTED_EDGE('',*,*,#1457,.F.);
#1457 = EDGE_CURVE('',#689,#876,#1458,.T.);
#1458 = SEAM_CURVE('',#1459,(#1463,#1470),.PCURVE_S1.);
#1459 = LINE('',#1460,#1461);
#1460 = CARTESIAN_POINT('',(16.1,9.689219124001E-16,9.999999939225E-08)
  );
#1461 = VECTOR('',#1462,1.);
#1462 = DIRECTION('',(0.,0.,1.));
#1463 = PCURVE('',#705,#1464);
#1464 = DEFINITIONAL_REPRESENTATION('',(#1465),#1469);
#1465 = LINE('',#1466,#1467);
#1466 = CARTESIAN_POINT('',(-6.28318530718,0.));
#1467 = VECTOR('',#1468,1.);
#1468 = DIRECTION('',(-0.,-1.));
#1469 = ( GEOMETRIC_REPRESENTATION_CONTEXT(2) 
PARAMETRIC_REPRESENTATION_CONTEXT() REPRESENTATION_CONTEXT('2D SPACE',''
  ) );
#1470 = PCURVE('',#705,#1471);
#1471 = DEFINITIONAL_REPRESENTATION('',(#1472),#1476);
#1472 = LINE('',#1473,#1474);
#1473 = CARTESIAN_POINT('',(-0.,0.));
#1474 = VECTOR('',#1475,1.);
#1475 = DIRECTION('',(-0.,-1.));
#1476 = ( GEOMETRIC_REPRESENTATION_CONTEXT(2) 
PARAMETRIC_REPRESENTATION_CONTEXT() REPRESENTATION_CONTEXT('2D SPACE',''
  ) );
#1477 = ORIENTED_EDGE('',*,*,#688,.F.);
#1478 = ORIENTED_EDGE('',*,*,#1457,.T.);
#1479 = ORIENTED_EDGE('',*,*,#875,.T.);
#1480 = FACE_BOUND('',#1481,.T.);
#1481 = EDGE_LOOP('',(#1482));
#1482 = ORIENTED_EDGE('',*,*,#1190,.T.);
#1483 = FACE_BOUND('',#1484,.T.);
#1484 = EDGE_LOOP('',(#1485));
#1485 = ORIENTED_EDGE('',*,*,#1320,.T.);
#1486 = ADVANCED_FACE('',(#1487),#736,.F.);
#1487 = FACE_BOUND('',#1488,.T.);
#1488 = EDGE_LOOP('',(#1489,#1490,#1511,#1512,#1513,#1514,#1535,#1536,
    #1537,#1538,#1539,#1540));
#1489 = ORIENTED_EDGE('',*,*,#719,.F.);
#1490 = ORIENTED_EDGE('',*,*,#1491,.T.);
#1491 = EDGE_CURVE('',#720,#952,#1492,.T.);
#1492 = SEAM_CURVE('',#1493,(#1497,#1504),.PCURVE_S1.);
#1493 = LINE('',#1494,#1495);
#1494 = CARTESIAN_POINT('',(18.099930939095,10.45,9.999999939225E-08));
#1495 = VECTOR('',#1496,1.);
#1496 = DIRECTION('',(0.,0.,1.));
#1497 = PCURVE('',#736,#1498);
#1498 = DEFINITIONAL_REPRESENTATION('',(#1499),#1503);
#1499 = LINE('',#1500,#1501);
#1500 = CARTESIAN_POINT('',(-6.28318530718,0.));
#1501 = VECTOR('',#1502,1.);
#1502 = DIRECTION('',(-0.,-1.));
#1503 = ( GEOMETRIC_REPRESENTATION_CONTEXT(2) 
PARAMETRIC_REPRESENTATION_CONTEXT() REPRESENTATION_CONTEXT('2D SPACE',''
  ) );
#1504 = PCURVE('',#736,#1505);
#1505 = DEFINITIONAL_REPRESENTATION('',(#1506),#1510);
#1506 = LINE('',#1507,#1508);
#1507 = CARTESIAN_POINT('',(-0.,0.));
#1508 = VECTOR('',#1509,1.);
#1509 = DIRECTION('',(-0.,-1.));
#1510 = ( GEOMETRIC_REPRESENTATION_CONTEXT(2) 
PARAMETRIC_REPRESENTATION_CONTEXT() REPRESENTATION_CONTEXT('2D SPACE',''
  ) );
#1511 = ORIENTED_EDGE('',*,*,#951,.F.);
#1512 = ORIENTED_EDGE('',*,*,#1033,.F.);
#1513 = ORIENTED_EDGE('',*,*,#1131,.T.);
#1514 = ORIENTED_EDGE('',*,*,#1515,.T.);
#1515 = EDGE_CURVE('',#1132,#902,#1516,.T.);
#1516 = SEAM_CURVE('',#1517,(#1521,#1528),.PCURVE_S1.);
#1517 = LINE('',#1518,#1519);
#1518 = CARTESIAN_POINT('',(18.099930939095,10.45,9.999999939225E-08));
#1519 = VECTOR('',#1520,1.);
#1520 = DIRECTION('',(0.,0.,1.));
#1521 = PCURVE('',#736,#1522);
#1522 = DEFINITIONAL_REPRESENTATION('',(#1523),#1527);
#1523 = LINE('',#1524,#1525);
#1524 = CARTESIAN_POINT('',(-6.28318530718,0.));
#1525 = VECTOR('',#1526,1.);
#1526 = DIRECTION('',(-0.,-1.));
#1527 = ( GEOMETRIC_REPRESENTATION_CONTEXT(2) 
PARAMETRIC_REPRESENTATION_CONTEXT() REPRESENTATION_CONTEXT('2D SPACE',''
  ) );
#1528 = PCURVE('',#736,#1529);
#1529 = DEFINITIONAL_REPRESENTATION('',(#1530),#1534);
#1530 = LINE('',#1531,#1532);
#1531 = CARTESIAN_POINT('',(-0.,0.));
#1532 = VECTOR('',#1533,1.);
#1533 = DIRECTION('',(-0.,-1.));
#1534 = ( GEOMETRIC_REPRESENTATION_CONTEXT(2) 
PARAMETRIC_REPRESENTATION_CONTEXT() REPRESENTATION_CONTEXT('2D SPACE',''
  ) );
#1535 = ORIENTED_EDGE('',*,*,#901,.T.);
#1536 = ORIENTED_EDGE('',*,*,#1515,.F.);
#1537 = ORIENTED_EDGE('',*,*,#1159,.T.);
#1538 = ORIENTED_EDGE('',*,*,#1082,.T.);
#1539 = ORIENTED_EDGE('',*,*,#979,.F.);
#1540 = ORIENTED_EDGE('',*,*,#1491,.F.);
#1541 = ( GEOMETRIC_REPRESENTATION_CONTEXT(3) 
GLOBAL_UNCERTAINTY_ASSIGNED_CONTEXT((#1545)) 
GLOBAL_UNIT_ASSIGNED_CONTEXT((#1542,#1543,#1544)) REPRESENTATION_CONTEXT
('Context #1','3D Context with UNIT and UNCERTAINTY') );
#1542 = ( LENGTH_UNIT() NAMED_UNIT(*) SI_UNIT(.MILLI.,.METRE.) );
#1543 = ( NAMED_UNIT(*) PLANE_ANGLE_UNIT() SI_UNIT($,.RADIAN.) );
#1544 = ( NAMED_UNIT(*) SI_UNIT($,.STERADIAN.) SOLID_ANGLE_UNIT() );
#1545 = UNCERTAINTY_MEASURE_WITH_UNIT(LENGTH_MEASURE(1.E-07),#1542,
  'distance_accuracy_value','confusion accuracy');
#1546 = PRODUCT_RELATED_PRODUCT_CATEGORY('part',$,(#7));
ENDSEC;
END-ISO-10303-21;
