ISO-10303-21;
HEADER;
FILE_DESCRIPTION(('Open CASCADE Model'),'2;1');
FILE_NAME('Open CASCADE Shape Model','2026-10-08T14:08:48',('Author'),(
    'Open CASCADE'),'Open CASCADE STEP processor 7.9','Open CASCADE 7.9'
  ,'Unknown');
FILE_SCHEMA(('AUTOMOTIVE_DESIGN { 1 0 10303 214 1 1 1 1 }'));
ENDSEC;
DATA;
#1 = APPLICATION_PROTOCOL_DEFINITION('international standard',
  'automotive_design',2000,#2);
#2 = APPLICATION_CONTEXT(
  'core data for automotive mechanical design processes');
#3 = SHAPE_DEFINITION_REPRESENTATION(#4,#10);
#4 = PRODUCT_DEFINITION_SHAPE('','',#5);
#5 = PRODUCT_DEFINITION('design','',#6,#9);
#6 = PRODUCT_DEFINITION_FORMATION('','',#7);
#7 = PRODUCT('Open CASCADE STEP translator 7.9 16',
  'Open CASCADE STEP translator 7.9 16','',(#8));
#8 = PRODUCT_CONTEXT('',#2,'mechanical');
#9 = PRODUCT_DEFINITION_CONTEXT('part definition',#2,'design');
#10 = ADVANCED_BREP_SHAPE_REPRESENTATION('',(#11,#15),#1480);
#11 = AXIS2_PLACEMENT_3D('',#12,#13,#14);
#12 = CARTESIAN_POINT('',(0.,0.,0.));
#13 = DIRECTION('',(0.,0.,1.));
#14 = DIRECTION('',(1.,0.,-0.));
#15 = MANIFOLD_SOLID_BREP('',#16);
#16 = CLOSED_SHELL('',(#17,#193,#300,#419,#524,#578,#755,#782,#811,#1044
    ,#1098,#1152,#1205,#1232,#1238,#1244,#1446,#1453));
#17 = ADVANCED_FACE('',(#18),#32,.F.);
#18 = FACE_BOUND('',#19,.T.);
#19 = EDGE_LOOP('',(#20,#55,#83,#111,#139,#167));
#20 = ORIENTED_EDGE('',*,*,#21,.F.);
#21 = EDGE_CURVE('',#22,#24,#26,.T.);
#22 = VERTEX_POINT('',#23);
#23 = CARTESIAN_POINT('',(-26.,-38.,9.999999406318E-08));
#24 = VERTEX_POINT('',#25);
#25 = CARTESIAN_POINT('',(-26.,38.,1.000000011686E-07));
#26 = SURFACE_CURVE('',#27,(#31,#43),.PCURVE_S1.);
#27 = LINE('',#28,#29);
#28 = CARTESIAN_POINT('',(-26.,-38.,9.999999406318E-08));
#29 = VECTOR('',#30,1.);
#30 = DIRECTION('',(0.,1.,1.110223024625E-16));
#31 = PCURVE('',#32,#37);
#32 = PLANE('',#33);
#33 = AXIS2_PLACEMENT_3D('',#34,#35,#36);
#34 = CARTESIAN_POINT('',(-26.,-38.,9.999999406318E-08));
#35 = DIRECTION('',(1.,0.,0.));
#36 = DIRECTION('',(-0.,-1.,-1.110223024625E-16));
#37 = DEFINITIONAL_REPRESENTATION('',(#38),#42);
#38 = LINE('',#39,#40);
#39 = CARTESIAN_POINT('',(-0.,0.));
#40 = VECTOR('',#41,1.);
#41 = DIRECTION('',(-1.,0.));
#42 = ( GEOMETRIC_REPRESENTATION_CONTEXT(2) 
PARAMETRIC_REPRESENTATION_CONTEXT() REPRESENTATION_CONTEXT('2D SPACE',''
  ) );
#43 = PCURVE('',#44,#49);
#44 = PLANE('',#45);
#45 = AXIS2_PLACEMENT_3D('',#46,#47,#48);
#46 = CARTESIAN_POINT('',(-26.,-38.,9.999999406318E-08));
#47 = DIRECTION('',(0.,-1.110223024625E-16,1.));
#48 = DIRECTION('',(0.,-1.,-1.110223024625E-16));
#49 = DEFINITIONAL_REPRESENTATION('',(#50),#54);
#50 = LINE('',#51,#52);
#51 = CARTESIAN_POINT('',(-0.,0.));
#52 = VECTOR('',#53,1.);
#53 = DIRECTION('',(-1.,0.));
#54 = ( GEOMETRIC_REPRESENTATION_CONTEXT(2) 
PARAMETRIC_REPRESENTATION_CONTEXT() REPRESENTATION_CONTEXT('2D SPACE',''
  ) );
#55 = ORIENTED_EDGE('',*,*,#56,.F.);
#56 = EDGE_CURVE('',#57,#22,#59,.T.);
#57 = VERTEX_POINT('',#58);
#58 = CARTESIAN_POINT('',(-26.,-38.,19.0000001));
#59 = SURFACE_CURVE('',#60,(#64,#71),.PCURVE_S1.);
#60 = LINE('',#61,#62);
#61 = CARTESIAN_POINT('',(-26.,-38.,19.0000001));
#62 = VECTOR('',#63,1.);
#63 = DIRECTION('',(0.,1.110223024625E-16,-1.));
#64 = PCURVE('',#32,#65);
#65 = DEFINITIONAL_REPRESENTATION('',(#66),#70);
#66 = LINE('',#67,#68);
#67 = CARTESIAN_POINT('',(-2.109423746788E-15,-19.));
#68 = VECTOR('',#69,1.);
#69 = DIRECTION('',(-0.,1.));
#70 = ( GEOMETRIC_REPRESENTATION_CONTEXT(2) 
PARAMETRIC_REPRESENTATION_CONTEXT() REPRESENTATION_CONTEXT('2D SPACE',''
  ) );
#71 = PCURVE('',#72,#77);
#72 = PLANE('',#73);
#73 = AXIS2_PLACEMENT_3D('',#74,#75,#76);
#74 = CARTESIAN_POINT('',(-26.,-38.,9.999999406318E-08));
#75 = DIRECTION('',(0.,1.,1.110223024625E-16));
#76 = DIRECTION('',(-1.,-0.,-0.));
#77 = DEFINITIONAL_REPRESENTATION('',(#78),#82);
#78 = LINE('',#79,#80);
#79 = CARTESIAN_POINT('',(-0.,19.));
#80 = VECTOR('',#81,1.);
#81 = DIRECTION('',(-0.,-1.));
#82 = ( GEOMETRIC_REPRESENTATION_CONTEXT(2) 
PARAMETRIC_REPRESENTATION_CONTEXT() REPRESENTATION_CONTEXT('2D SPACE',''
  ) );
#83 = ORIENTED_EDGE('',*,*,#84,.T.);
#84 = EDGE_CURVE('',#57,#85,#87,.T.);
#85 = VERTEX_POINT('',#86);
#86 = CARTESIAN_POINT('',(-26.,-34.,19.0000001));
#87 = SURFACE_CURVE('',#88,(#92,#99),.PCURVE_S1.);
#88 = LINE('',#89,#90);
#89 = CARTESIAN_POINT('',(-26.,-38.,19.0000001));
#90 = VECTOR('',#91,1.);
#91 = DIRECTION('',(0.,1.,1.110223024625E-16));
#92 = PCURVE('',#32,#93);
#93 = DEFINITIONAL_REPRESENTATION('',(#94),#98);
#94 = LINE('',#95,#96);
#95 = CARTESIAN_POINT('',(-2.109423746788E-15,-19.));
#96 = VECTOR('',#97,1.);
#97 = DIRECTION('',(-1.,0.));
#98 = ( GEOMETRIC_REPRESENTATION_CONTEXT(2) 
PARAMETRIC_REPRESENTATION_CONTEXT() REPRESENTATION_CONTEXT('2D SPACE',''
  ) );
#99 = PCURVE('',#100,#105);
#100 = PLANE('',#101);
#101 = AXIS2_PLACEMENT_3D('',#102,#103,#104);
#102 = CARTESIAN_POINT('',(-26.,-38.,19.0000001));
#103 = DIRECTION('',(0.,-1.110223024625E-16,1.));
#104 = DIRECTION('',(0.,-1.,-1.110223024625E-16));
#105 = DEFINITIONAL_REPRESENTATION('',(#106),#110);
#106 = LINE('',#107,#108);
#107 = CARTESIAN_POINT('',(-0.,0.));
#108 = VECTOR('',#109,1.);
#109 = DIRECTION('',(-1.,0.));
#110 = ( GEOMETRIC_REPRESENTATION_CONTEXT(2) 
PARAMETRIC_REPRESENTATION_CONTEXT() REPRESENTATION_CONTEXT('2D SPACE',''
  ) );
#111 = ORIENTED_EDGE('',*,*,#112,.T.);
#112 = EDGE_CURVE('',#85,#113,#115,.T.);
#113 = VERTEX_POINT('',#114);
#114 = CARTESIAN_POINT('',(-26.,-8.,5.0000001));
#115 = SURFACE_CURVE('',#116,(#120,#127),.PCURVE_S1.);
#116 = LINE('',#117,#118);
#117 = CARTESIAN_POINT('',(-26.,-34.,19.0000001));
#118 = VECTOR('',#119,1.);
#119 = DIRECTION('',(0.,0.880471099922,-0.474099823035));
#120 = PCURVE('',#32,#121);
#121 = DEFINITIONAL_REPRESENTATION('',(#122),#126);
#122 = LINE('',#123,#124);
#123 = CARTESIAN_POINT('',(-4.,-19.));
#124 = VECTOR('',#125,1.);
#125 = DIRECTION('',(-0.880471099922,0.474099823035));
#126 = ( GEOMETRIC_REPRESENTATION_CONTEXT(2) 
PARAMETRIC_REPRESENTATION_CONTEXT() REPRESENTATION_CONTEXT('2D SPACE',''
  ) );
#127 = PCURVE('',#128,#133);
#128 = PLANE('',#129);
#129 = AXIS2_PLACEMENT_3D('',#130,#131,#132);
#130 = CARTESIAN_POINT('',(-26.,-34.,19.0000001));
#131 = DIRECTION('',(0.,-0.474099823035,-0.880471099922));
#132 = DIRECTION('',(-0.,-0.880471099922,0.474099823035));
#133 = DEFINITIONAL_REPRESENTATION('',(#134),#138);
#134 = LINE('',#135,#136);
#135 = CARTESIAN_POINT('',(-0.,0.));
#136 = VECTOR('',#137,1.);
#137 = DIRECTION('',(-1.,0.));
#138 = ( GEOMETRIC_REPRESENTATION_CONTEXT(2) 
PARAMETRIC_REPRESENTATION_CONTEXT() REPRESENTATION_CONTEXT('2D SPACE',''
  ) );
#139 = ORIENTED_EDGE('',*,*,#140,.T.);
#140 = EDGE_CURVE('',#113,#141,#143,.T.);
#141 = VERTEX_POINT('',#142);
#142 = CARTESIAN_POINT('',(-26.,38.,5.0000001));
#143 = SURFACE_CURVE('',#144,(#148,#155),.PCURVE_S1.);
#144 = LINE('',#145,#146);
#145 = CARTESIAN_POINT('',(-26.,-38.,5.0000001));
#146 = VECTOR('',#147,1.);
#147 = DIRECTION('',(0.,1.,1.110223024625E-16));
#148 = PCURVE('',#32,#149);
#149 = DEFINITIONAL_REPRESENTATION('',(#150),#154);
#150 = LINE('',#151,#152);
#151 = CARTESIAN_POINT('',(-5.551115123126E-16,-5.));
#152 = VECTOR('',#153,1.);
#153 = DIRECTION('',(-1.,0.));
#154 = ( GEOMETRIC_REPRESENTATION_CONTEXT(2) 
PARAMETRIC_REPRESENTATION_CONTEXT() REPRESENTATION_CONTEXT('2D SPACE',''
  ) );
#155 = PCURVE('',#156,#161);
#156 = PLANE('',#157);
#157 = AXIS2_PLACEMENT_3D('',#158,#159,#160);
#158 = CARTESIAN_POINT('',(-26.,-38.,5.0000001));
#159 = DIRECTION('',(0.,-1.110223024625E-16,1.));
#160 = DIRECTION('',(0.,-1.,-1.110223024625E-16));
#161 = DEFINITIONAL_REPRESENTATION('',(#162),#166);
#162 = LINE('',#163,#164);
#163 = CARTESIAN_POINT('',(-0.,0.));
#164 = VECTOR('',#165,1.);
#165 = DIRECTION('',(-1.,0.));
#166 = ( GEOMETRIC_REPRESENTATION_CONTEXT(2) 
PARAMETRIC_REPRESENTATION_CONTEXT() REPRESENTATION_CONTEXT('2D SPACE',''
  ) );
#167 = ORIENTED_EDGE('',*,*,#168,.F.);
#168 = EDGE_CURVE('',#24,#141,#169,.T.);
#169 = SURFACE_CURVE('',#170,(#174,#181),.PCURVE_S1.);
#170 = LINE('',#171,#172);
#171 = CARTESIAN_POINT('',(-26.,38.,1.000000011686E-07));
#172 = VECTOR('',#173,1.);
#173 = DIRECTION('',(0.,-1.110223024625E-16,1.));
#174 = PCURVE('',#32,#175);
#175 = DEFINITIONAL_REPRESENTATION('',(#176),#180);
#176 = LINE('',#177,#178);
#177 = CARTESIAN_POINT('',(-76.,1.33226762955E-15));
#178 = VECTOR('',#179,1.);
#179 = DIRECTION('',(-0.,-1.));
#180 = ( GEOMETRIC_REPRESENTATION_CONTEXT(2) 
PARAMETRIC_REPRESENTATION_CONTEXT() REPRESENTATION_CONTEXT('2D SPACE',''
  ) );
#181 = PCURVE('',#182,#187);
#182 = PLANE('',#183);
#183 = AXIS2_PLACEMENT_3D('',#184,#185,#186);
#184 = CARTESIAN_POINT('',(-26.,38.,1.000000011686E-07));
#185 = DIRECTION('',(0.,1.,1.110223024625E-16));
#186 = DIRECTION('',(-1.,-0.,0.));
#187 = DEFINITIONAL_REPRESENTATION('',(#188),#192);
#188 = LINE('',#189,#190);
#189 = CARTESIAN_POINT('',(-0.,0.));
#190 = VECTOR('',#191,1.);
#191 = DIRECTION('',(-0.,1.));
#192 = ( GEOMETRIC_REPRESENTATION_CONTEXT(2) 
PARAMETRIC_REPRESENTATION_CONTEXT() REPRESENTATION_CONTEXT('2D SPACE',''
  ) );
#193 = ADVANCED_FACE('',(#194,#269),#44,.F.);
#194 = FACE_BOUND('',#195,.T.);
#195 = EDGE_LOOP('',(#196,#219,#220,#243));
#196 = ORIENTED_EDGE('',*,*,#197,.F.);
#197 = EDGE_CURVE('',#22,#198,#200,.T.);
#198 = VERTEX_POINT('',#199);
#199 = CARTESIAN_POINT('',(26.,-38.,9.999999406318E-08));
#200 = SURFACE_CURVE('',#201,(#205,#212),.PCURVE_S1.);
#201 = LINE('',#202,#203);
#202 = CARTESIAN_POINT('',(-26.,-38.,9.999999406318E-08));
#203 = VECTOR('',#204,1.);
#204 = DIRECTION('',(1.,0.,0.));
#205 = PCURVE('',#44,#206);
#206 = DEFINITIONAL_REPRESENTATION('',(#207),#211);
#207 = LINE('',#208,#209);
#208 = CARTESIAN_POINT('',(-0.,0.));
#209 = VECTOR('',#210,1.);
#210 = DIRECTION('',(-0.,1.));
#211 = ( GEOMETRIC_REPRESENTATION_CONTEXT(2) 
PARAMETRIC_REPRESENTATION_CONTEXT() REPRESENTATION_CONTEXT('2D SPACE',''
  ) );
#212 = PCURVE('',#72,#213);
#213 = DEFINITIONAL_REPRESENTATION('',(#214),#218);
#214 = LINE('',#215,#216);
#215 = CARTESIAN_POINT('',(-0.,0.));
#216 = VECTOR('',#217,1.);
#217 = DIRECTION('',(-1.,0.));
#218 = ( GEOMETRIC_REPRESENTATION_CONTEXT(2) 
PARAMETRIC_REPRESENTATION_CONTEXT() REPRESENTATION_CONTEXT('2D SPACE',''
  ) );
#219 = ORIENTED_EDGE('',*,*,#21,.T.);
#220 = ORIENTED_EDGE('',*,*,#221,.T.);
#221 = EDGE_CURVE('',#24,#222,#224,.T.);
#222 = VERTEX_POINT('',#223);
#223 = CARTESIAN_POINT('',(26.,38.,1.000000011686E-07));
#224 = SURFACE_CURVE('',#225,(#229,#236),.PCURVE_S1.);
#225 = LINE('',#226,#227);
#226 = CARTESIAN_POINT('',(-26.,38.,1.000000011686E-07));
#227 = VECTOR('',#228,1.);
#228 = DIRECTION('',(1.,0.,0.));
#229 = PCURVE('',#44,#230);
#230 = DEFINITIONAL_REPRESENTATION('',(#231),#235);
#231 = LINE('',#232,#233);
#232 = CARTESIAN_POINT('',(-76.,0.));
#233 = VECTOR('',#234,1.);
#234 = DIRECTION('',(-0.,1.));
#235 = ( GEOMETRIC_REPRESENTATION_CONTEXT(2) 
PARAMETRIC_REPRESENTATION_CONTEXT() REPRESENTATION_CONTEXT('2D SPACE',''
  ) );
#236 = PCURVE('',#182,#237);
#237 = DEFINITIONAL_REPRESENTATION('',(#238),#242);
#238 = LINE('',#239,#240);
#239 = CARTESIAN_POINT('',(-0.,0.));
#240 = VECTOR('',#241,1.);
#241 = DIRECTION('',(-1.,0.));
#242 = ( GEOMETRIC_REPRESENTATION_CONTEXT(2) 
PARAMETRIC_REPRESENTATION_CONTEXT() REPRESENTATION_CONTEXT('2D SPACE',''
  ) );
#243 = ORIENTED_EDGE('',*,*,#244,.F.);
#244 = EDGE_CURVE('',#198,#222,#245,.T.);
#245 = SURFACE_CURVE('',#246,(#250,#257),.PCURVE_S1.);
#246 = LINE('',#247,#248);
#247 = CARTESIAN_POINT('',(26.,-38.,9.999999406318E-08));
#248 = VECTOR('',#249,1.);
#249 = DIRECTION('',(0.,1.,1.110223024625E-16));
#250 = PCURVE('',#44,#251);
#251 = DEFINITIONAL_REPRESENTATION('',(#252),#256);
#252 = LINE('',#253,#254);
#253 = CARTESIAN_POINT('',(-0.,52.));
#254 = VECTOR('',#255,1.);
#255 = DIRECTION('',(-1.,0.));
#256 = ( GEOMETRIC_REPRESENTATION_CONTEXT(2) 
PARAMETRIC_REPRESENTATION_CONTEXT() REPRESENTATION_CONTEXT('2D SPACE',''
  ) );
#257 = PCURVE('',#258,#263);
#258 = PLANE('',#259);
#259 = AXIS2_PLACEMENT_3D('',#260,#261,#262);
#260 = CARTESIAN_POINT('',(26.,-38.,9.999999406318E-08));
#261 = DIRECTION('',(1.,0.,0.));
#262 = DIRECTION('',(-0.,-1.,-1.110223024625E-16));
#263 = DEFINITIONAL_REPRESENTATION('',(#264),#268);
#264 = LINE('',#265,#266);
#265 = CARTESIAN_POINT('',(-0.,0.));
#266 = VECTOR('',#267,1.);
#267 = DIRECTION('',(-1.,0.));
#268 = ( GEOMETRIC_REPRESENTATION_CONTEXT(2) 
PARAMETRIC_REPRESENTATION_CONTEXT() REPRESENTATION_CONTEXT('2D SPACE',''
  ) );
#269 = FACE_BOUND('',#270,.T.);
#270 = EDGE_LOOP('',(#271));
#271 = ORIENTED_EDGE('',*,*,#272,.T.);
#272 = EDGE_CURVE('',#273,#273,#275,.T.);
#273 = VERTEX_POINT('',#274);
#274 = CARTESIAN_POINT('',(5.,12.,1.000000011686E-07));
#275 = SURFACE_CURVE('',#276,(#281,#288),.PCURVE_S1.);
#276 = CIRCLE('',#277,5.);
#277 = AXIS2_PLACEMENT_3D('',#278,#279,#280);
#278 = CARTESIAN_POINT('',(0.,12.,1.000000011686E-07));
#279 = DIRECTION('',(0.,-1.110223024625E-16,1.));
#280 = DIRECTION('',(1.,0.,0.));
#281 = PCURVE('',#44,#282);
#282 = DEFINITIONAL_REPRESENTATION('',(#283),#287);
#283 = CIRCLE('',#284,5.);
#284 = AXIS2_PLACEMENT_2D('',#285,#286);
#285 = CARTESIAN_POINT('',(-50.,26.));
#286 = DIRECTION('',(-0.,1.));
#287 = ( GEOMETRIC_REPRESENTATION_CONTEXT(2) 
PARAMETRIC_REPRESENTATION_CONTEXT() REPRESENTATION_CONTEXT('2D SPACE',''
  ) );
#288 = PCURVE('',#289,#294);
#289 = CYLINDRICAL_SURFACE('',#290,5.);
#290 = AXIS2_PLACEMENT_3D('',#291,#292,#293);
#291 = CARTESIAN_POINT('',(0.,12.,1.000000011686E-07));
#292 = DIRECTION('',(0.,1.110223024625E-16,-1.));
#293 = DIRECTION('',(1.,0.,0.));
#294 = DEFINITIONAL_REPRESENTATION('',(#295),#299);
#295 = LINE('',#296,#297);
#296 = CARTESIAN_POINT('',(-0.,0.));
#297 = VECTOR('',#298,1.);
#298 = DIRECTION('',(-1.,0.));
#299 = ( GEOMETRIC_REPRESENTATION_CONTEXT(2) 
PARAMETRIC_REPRESENTATION_CONTEXT() REPRESENTATION_CONTEXT('2D SPACE',''
  ) );
#300 = ADVANCED_FACE('',(#301,#349,#384),#72,.F.);
#301 = FACE_BOUND('',#302,.T.);
#302 = EDGE_LOOP('',(#303,#304,#327,#348));
#303 = ORIENTED_EDGE('',*,*,#197,.T.);
#304 = ORIENTED_EDGE('',*,*,#305,.F.);
#305 = EDGE_CURVE('',#306,#198,#308,.T.);
#306 = VERTEX_POINT('',#307);
#307 = CARTESIAN_POINT('',(26.,-38.,19.0000001));
#308 = SURFACE_CURVE('',#309,(#313,#320),.PCURVE_S1.);
#309 = LINE('',#310,#311);
#310 = CARTESIAN_POINT('',(26.,-38.,19.0000001));
#311 = VECTOR('',#312,1.);
#312 = DIRECTION('',(0.,1.110223024625E-16,-1.));
#313 = PCURVE('',#72,#314);
#314 = DEFINITIONAL_REPRESENTATION('',(#315),#319);
#315 = LINE('',#316,#317);
#316 = CARTESIAN_POINT('',(-52.,19.));
#317 = VECTOR('',#318,1.);
#318 = DIRECTION('',(-0.,-1.));
#319 = ( GEOMETRIC_REPRESENTATION_CONTEXT(2) 
PARAMETRIC_REPRESENTATION_CONTEXT() REPRESENTATION_CONTEXT('2D SPACE',''
  ) );
#320 = PCURVE('',#258,#321);
#321 = DEFINITIONAL_REPRESENTATION('',(#322),#326);
#322 = LINE('',#323,#324);
#323 = CARTESIAN_POINT('',(-2.109423746788E-15,-19.));
#324 = VECTOR('',#325,1.);
#325 = DIRECTION('',(-0.,1.));
#326 = ( GEOMETRIC_REPRESENTATION_CONTEXT(2) 
PARAMETRIC_REPRESENTATION_CONTEXT() REPRESENTATION_CONTEXT('2D SPACE',''
  ) );
#327 = ORIENTED_EDGE('',*,*,#328,.F.);
#328 = EDGE_CURVE('',#57,#306,#329,.T.);
#329 = SURFACE_CURVE('',#330,(#334,#341),.PCURVE_S1.);
#330 = LINE('',#331,#332);
#331 = CARTESIAN_POINT('',(-26.,-38.,19.0000001));
#332 = VECTOR('',#333,1.);
#333 = DIRECTION('',(1.,0.,0.));
#334 = PCURVE('',#72,#335);
#335 = DEFINITIONAL_REPRESENTATION('',(#336),#340);
#336 = LINE('',#337,#338);
#337 = CARTESIAN_POINT('',(-0.,19.));
#338 = VECTOR('',#339,1.);
#339 = DIRECTION('',(-1.,0.));
#340 = ( GEOMETRIC_REPRESENTATION_CONTEXT(2) 
PARAMETRIC_REPRESENTATION_CONTEXT() REPRESENTATION_CONTEXT('2D SPACE',''
  ) );
#341 = PCURVE('',#100,#342);
#342 = DEFINITIONAL_REPRESENTATION('',(#343),#347);
#343 = LINE('',#344,#345);
#344 = CARTESIAN_POINT('',(-0.,0.));
#345 = VECTOR('',#346,1.);
#346 = DIRECTION('',(-0.,1.));
#347 = ( GEOMETRIC_REPRESENTATION_CONTEXT(2) 
PARAMETRIC_REPRESENTATION_CONTEXT() REPRESENTATION_CONTEXT('2D SPACE',''
  ) );
#348 = ORIENTED_EDGE('',*,*,#56,.T.);
#349 = FACE_BOUND('',#350,.T.);
#350 = EDGE_LOOP('',(#351));
#351 = ORIENTED_EDGE('',*,*,#352,.F.);
#352 = EDGE_CURVE('',#353,#353,#355,.T.);
#353 = VERTEX_POINT('',#354);
#354 = CARTESIAN_POINT('',(-13.3,-38.,13.0000001));
#355 = SURFACE_CURVE('',#356,(#361,#372),.PCURVE_S1.);
#356 = CIRCLE('',#357,1.7);
#357 = AXIS2_PLACEMENT_3D('',#358,#359,#360);
#358 = CARTESIAN_POINT('',(-15.,-38.,13.0000001));
#359 = DIRECTION('',(0.,-1.,-1.110223024625E-16));
#360 = DIRECTION('',(1.,0.,0.));
#361 = PCURVE('',#72,#362);
#362 = DEFINITIONAL_REPRESENTATION('',(#363),#371);
#363 = ( BOUNDED_CURVE() B_SPLINE_CURVE(2,(#364,#365,#366,#367,#368,#369
,#370),.UNSPECIFIED.,.T.,.F.) B_SPLINE_CURVE_WITH_KNOTS((1,2,2,2,2,1),(
    -2.094395102393,0.,2.094395102393,4.188790204786,6.28318530718,
8.377580409573),.UNSPECIFIED.) CURVE() GEOMETRIC_REPRESENTATION_ITEM() 
RATIONAL_B_SPLINE_CURVE((1.,0.5,1.,0.5,1.,0.5,1.)) REPRESENTATION_ITEM(
  '') );
#364 = CARTESIAN_POINT('',(-12.7,13.));
#365 = CARTESIAN_POINT('',(-12.7,15.944486372867));
#366 = CARTESIAN_POINT('',(-10.15,14.472243186434));
#367 = CARTESIAN_POINT('',(-7.6,13.));
#368 = CARTESIAN_POINT('',(-10.15,11.527756813566));
#369 = CARTESIAN_POINT('',(-12.7,10.055513627133));
#370 = CARTESIAN_POINT('',(-12.7,13.));
#371 = ( GEOMETRIC_REPRESENTATION_CONTEXT(2) 
PARAMETRIC_REPRESENTATION_CONTEXT() REPRESENTATION_CONTEXT('2D SPACE',''
  ) );
#372 = PCURVE('',#373,#378);
#373 = CYLINDRICAL_SURFACE('',#374,1.7);
#374 = AXIS2_PLACEMENT_3D('',#375,#376,#377);
#375 = CARTESIAN_POINT('',(-15.,-38.,13.0000001));
#376 = DIRECTION('',(0.,-1.,-1.110223024625E-16));
#377 = DIRECTION('',(1.,0.,0.));
#378 = DEFINITIONAL_REPRESENTATION('',(#379),#383);
#379 = LINE('',#380,#381);
#380 = CARTESIAN_POINT('',(0.,0.));
#381 = VECTOR('',#382,1.);
#382 = DIRECTION('',(1.,0.));
#383 = ( GEOMETRIC_REPRESENTATION_CONTEXT(2) 
PARAMETRIC_REPRESENTATION_CONTEXT() REPRESENTATION_CONTEXT('2D SPACE',''
  ) );
#384 = FACE_BOUND('',#385,.T.);
#385 = EDGE_LOOP('',(#386));
#386 = ORIENTED_EDGE('',*,*,#387,.F.);
#387 = EDGE_CURVE('',#388,#388,#390,.T.);
#388 = VERTEX_POINT('',#389);
#389 = CARTESIAN_POINT('',(16.7,-38.,13.0000001));
#390 = SURFACE_CURVE('',#391,(#396,#407),.PCURVE_S1.);
#391 = CIRCLE('',#392,1.7);
#392 = AXIS2_PLACEMENT_3D('',#393,#394,#395);
#393 = CARTESIAN_POINT('',(15.,-38.,13.0000001));
#394 = DIRECTION('',(0.,-1.,-1.110223024625E-16));
#395 = DIRECTION('',(1.,0.,0.));
#396 = PCURVE('',#72,#397);
#397 = DEFINITIONAL_REPRESENTATION('',(#398),#406);
#398 = ( BOUNDED_CURVE() B_SPLINE_CURVE(2,(#399,#400,#401,#402,#403,#404
,#405),.UNSPECIFIED.,.T.,.F.) B_SPLINE_CURVE_WITH_KNOTS((1,2,2,2,2,1),(
    -2.094395102393,0.,2.094395102393,4.188790204786,6.28318530718,
8.377580409573),.UNSPECIFIED.) CURVE() GEOMETRIC_REPRESENTATION_ITEM() 
RATIONAL_B_SPLINE_CURVE((1.,0.5,1.,0.5,1.,0.5,1.)) REPRESENTATION_ITEM(
  '') );
#399 = CARTESIAN_POINT('',(-42.7,13.));
#400 = CARTESIAN_POINT('',(-42.7,15.944486372867));
#401 = CARTESIAN_POINT('',(-40.15,14.472243186434));
#402 = CARTESIAN_POINT('',(-37.6,13.));
#403 = CARTESIAN_POINT('',(-40.15,11.527756813566));
#404 = CARTESIAN_POINT('',(-42.7,10.055513627133));
#405 = CARTESIAN_POINT('',(-42.7,13.));
#406 = ( GEOMETRIC_REPRESENTATION_CONTEXT(2) 
PARAMETRIC_REPRESENTATION_CONTEXT() REPRESENTATION_CONTEXT('2D SPACE',''
  ) );
#407 = PCURVE('',#408,#413);
#408 = CYLINDRICAL_SURFACE('',#409,1.7);
#409 = AXIS2_PLACEMENT_3D('',#410,#411,#412);
#410 = CARTESIAN_POINT('',(15.,-38.,13.0000001));
#411 = DIRECTION('',(0.,-1.,-1.110223024625E-16));
#412 = DIRECTION('',(1.,0.,0.));
#413 = DEFINITIONAL_REPRESENTATION('',(#414),#418);
#414 = LINE('',#415,#416);
#415 = CARTESIAN_POINT('',(0.,0.));
#416 = VECTOR('',#417,1.);
#417 = DIRECTION('',(1.,0.));
#418 = ( GEOMETRIC_REPRESENTATION_CONTEXT(2) 
PARAMETRIC_REPRESENTATION_CONTEXT() REPRESENTATION_CONTEXT('2D SPACE',''
  ) );
#419 = ADVANCED_FACE('',(#420),#100,.T.);
#420 = FACE_BOUND('',#421,.F.);
#421 = EDGE_LOOP('',(#422,#423,#424,#447,#475,#503));
#422 = ORIENTED_EDGE('',*,*,#328,.F.);
#423 = ORIENTED_EDGE('',*,*,#84,.T.);
#424 = ORIENTED_EDGE('',*,*,#425,.T.);
#425 = EDGE_CURVE('',#85,#426,#428,.T.);
#426 = VERTEX_POINT('',#427);
#427 = CARTESIAN_POINT('',(-22.,-34.,19.0000001));
#428 = SURFACE_CURVE('',#429,(#433,#440),.PCURVE_S1.);
#429 = LINE('',#430,#431);
#430 = CARTESIAN_POINT('',(-26.,-34.,19.0000001));
#431 = VECTOR('',#432,1.);
#432 = DIRECTION('',(1.,0.,0.));
#433 = PCURVE('',#100,#434);
#434 = DEFINITIONAL_REPRESENTATION('',(#435),#439);
#435 = LINE('',#436,#437);
#436 = CARTESIAN_POINT('',(-4.,0.));
#437 = VECTOR('',#438,1.);
#438 = DIRECTION('',(-0.,1.));
#439 = ( GEOMETRIC_REPRESENTATION_CONTEXT(2) 
PARAMETRIC_REPRESENTATION_CONTEXT() REPRESENTATION_CONTEXT('2D SPACE',''
  ) );
#440 = PCURVE('',#128,#441);
#441 = DEFINITIONAL_REPRESENTATION('',(#442),#446);
#442 = LINE('',#443,#444);
#443 = CARTESIAN_POINT('',(-0.,0.));
#444 = VECTOR('',#445,1.);
#445 = DIRECTION('',(-0.,-1.));
#446 = ( GEOMETRIC_REPRESENTATION_CONTEXT(2) 
PARAMETRIC_REPRESENTATION_CONTEXT() REPRESENTATION_CONTEXT('2D SPACE',''
  ) );
#447 = ORIENTED_EDGE('',*,*,#448,.T.);
#448 = EDGE_CURVE('',#426,#449,#451,.T.);
#449 = VERTEX_POINT('',#450);
#450 = CARTESIAN_POINT('',(22.,-34.,19.0000001));
#451 = SURFACE_CURVE('',#452,(#456,#463),.PCURVE_S1.);
#452 = LINE('',#453,#454);
#453 = CARTESIAN_POINT('',(-26.,-34.,19.0000001));
#454 = VECTOR('',#455,1.);
#455 = DIRECTION('',(1.,0.,0.));
#456 = PCURVE('',#100,#457);
#457 = DEFINITIONAL_REPRESENTATION('',(#458),#462);
#458 = LINE('',#459,#460);
#459 = CARTESIAN_POINT('',(-4.,0.));
#460 = VECTOR('',#461,1.);
#461 = DIRECTION('',(-0.,1.));
#462 = ( GEOMETRIC_REPRESENTATION_CONTEXT(2) 
PARAMETRIC_REPRESENTATION_CONTEXT() REPRESENTATION_CONTEXT('2D SPACE',''
  ) );
#463 = PCURVE('',#464,#469);
#464 = PLANE('',#465);
#465 = AXIS2_PLACEMENT_3D('',#466,#467,#468);
#466 = CARTESIAN_POINT('',(-26.,-34.,5.0000001));
#467 = DIRECTION('',(0.,1.,1.110223024625E-16));
#468 = DIRECTION('',(-1.,-0.,0.));
#469 = DEFINITIONAL_REPRESENTATION('',(#470),#474);
#470 = LINE('',#471,#472);
#471 = CARTESIAN_POINT('',(-0.,14.));
#472 = VECTOR('',#473,1.);
#473 = DIRECTION('',(-1.,0.));
#474 = ( GEOMETRIC_REPRESENTATION_CONTEXT(2) 
PARAMETRIC_REPRESENTATION_CONTEXT() REPRESENTATION_CONTEXT('2D SPACE',''
  ) );
#475 = ORIENTED_EDGE('',*,*,#476,.T.);
#476 = EDGE_CURVE('',#449,#477,#479,.T.);
#477 = VERTEX_POINT('',#478);
#478 = CARTESIAN_POINT('',(26.,-34.,19.0000001));
#479 = SURFACE_CURVE('',#480,(#484,#491),.PCURVE_S1.);
#480 = LINE('',#481,#482);
#481 = CARTESIAN_POINT('',(-26.,-34.,19.0000001));
#482 = VECTOR('',#483,1.);
#483 = DIRECTION('',(1.,0.,0.));
#484 = PCURVE('',#100,#485);
#485 = DEFINITIONAL_REPRESENTATION('',(#486),#490);
#486 = LINE('',#487,#488);
#487 = CARTESIAN_POINT('',(-4.,0.));
#488 = VECTOR('',#489,1.);
#489 = DIRECTION('',(-0.,1.));
#490 = ( GEOMETRIC_REPRESENTATION_CONTEXT(2) 
PARAMETRIC_REPRESENTATION_CONTEXT() REPRESENTATION_CONTEXT('2D SPACE',''
  ) );
#491 = PCURVE('',#492,#497);
#492 = PLANE('',#493);
#493 = AXIS2_PLACEMENT_3D('',#494,#495,#496);
#494 = CARTESIAN_POINT('',(22.,-34.,19.0000001));
#495 = DIRECTION('',(0.,-0.474099823035,-0.880471099922));
#496 = DIRECTION('',(-0.,-0.880471099922,0.474099823035));
#497 = DEFINITIONAL_REPRESENTATION('',(#498),#502);
#498 = LINE('',#499,#500);
#499 = CARTESIAN_POINT('',(-0.,48.));
#500 = VECTOR('',#501,1.);
#501 = DIRECTION('',(-0.,-1.));
#502 = ( GEOMETRIC_REPRESENTATION_CONTEXT(2) 
PARAMETRIC_REPRESENTATION_CONTEXT() REPRESENTATION_CONTEXT('2D SPACE',''
  ) );
#503 = ORIENTED_EDGE('',*,*,#504,.F.);
#504 = EDGE_CURVE('',#306,#477,#505,.T.);
#505 = SURFACE_CURVE('',#506,(#510,#517),.PCURVE_S1.);
#506 = LINE('',#507,#508);
#507 = CARTESIAN_POINT('',(26.,-38.,19.0000001));
#508 = VECTOR('',#509,1.);
#509 = DIRECTION('',(0.,1.,1.110223024625E-16));
#510 = PCURVE('',#100,#511);
#511 = DEFINITIONAL_REPRESENTATION('',(#512),#516);
#512 = LINE('',#513,#514);
#513 = CARTESIAN_POINT('',(-0.,52.));
#514 = VECTOR('',#515,1.);
#515 = DIRECTION('',(-1.,0.));
#516 = ( GEOMETRIC_REPRESENTATION_CONTEXT(2) 
PARAMETRIC_REPRESENTATION_CONTEXT() REPRESENTATION_CONTEXT('2D SPACE',''
  ) );
#517 = PCURVE('',#258,#518);
#518 = DEFINITIONAL_REPRESENTATION('',(#519),#523);
#519 = LINE('',#520,#521);
#520 = CARTESIAN_POINT('',(-2.109423746788E-15,-19.));
#521 = VECTOR('',#522,1.);
#522 = DIRECTION('',(-1.,0.));
#523 = ( GEOMETRIC_REPRESENTATION_CONTEXT(2) 
PARAMETRIC_REPRESENTATION_CONTEXT() REPRESENTATION_CONTEXT('2D SPACE',''
  ) );
#524 = ADVANCED_FACE('',(#525),#128,.F.);
#525 = FACE_BOUND('',#526,.T.);
#526 = EDGE_LOOP('',(#527,#528,#556,#577));
#527 = ORIENTED_EDGE('',*,*,#425,.T.);
#528 = ORIENTED_EDGE('',*,*,#529,.T.);
#529 = EDGE_CURVE('',#426,#530,#532,.T.);
#530 = VERTEX_POINT('',#531);
#531 = CARTESIAN_POINT('',(-22.,-8.,5.0000001));
#532 = SURFACE_CURVE('',#533,(#537,#544),.PCURVE_S1.);
#533 = LINE('',#534,#535);
#534 = CARTESIAN_POINT('',(-22.,-34.,19.0000001));
#535 = VECTOR('',#536,1.);
#536 = DIRECTION('',(0.,0.880471099922,-0.474099823035));
#537 = PCURVE('',#128,#538);
#538 = DEFINITIONAL_REPRESENTATION('',(#539),#543);
#539 = LINE('',#540,#541);
#540 = CARTESIAN_POINT('',(-0.,-4.));
#541 = VECTOR('',#542,1.);
#542 = DIRECTION('',(-1.,0.));
#543 = ( GEOMETRIC_REPRESENTATION_CONTEXT(2) 
PARAMETRIC_REPRESENTATION_CONTEXT() REPRESENTATION_CONTEXT('2D SPACE',''
  ) );
#544 = PCURVE('',#545,#550);
#545 = PLANE('',#546);
#546 = AXIS2_PLACEMENT_3D('',#547,#548,#549);
#547 = CARTESIAN_POINT('',(-22.,-23.61758846988,9.382411630117));
#548 = DIRECTION('',(1.,0.,0.));
#549 = DIRECTION('',(-0.,-1.,-1.110223024625E-16));
#550 = DEFINITIONAL_REPRESENTATION('',(#551),#555);
#551 = LINE('',#552,#553);
#552 = CARTESIAN_POINT('',(10.382411530117,-9.617588469883));
#553 = VECTOR('',#554,1.);
#554 = DIRECTION('',(-0.880471099922,0.474099823035));
#555 = ( GEOMETRIC_REPRESENTATION_CONTEXT(2) 
PARAMETRIC_REPRESENTATION_CONTEXT() REPRESENTATION_CONTEXT('2D SPACE',''
  ) );
#556 = ORIENTED_EDGE('',*,*,#557,.F.);
#557 = EDGE_CURVE('',#113,#530,#558,.T.);
#558 = SURFACE_CURVE('',#559,(#563,#570),.PCURVE_S1.);
#559 = LINE('',#560,#561);
#560 = CARTESIAN_POINT('',(-26.,-8.,5.0000001));
#561 = VECTOR('',#562,1.);
#562 = DIRECTION('',(1.,0.,0.));
#563 = PCURVE('',#128,#564);
#564 = DEFINITIONAL_REPRESENTATION('',(#565),#569);
#565 = LINE('',#566,#567);
#566 = CARTESIAN_POINT('',(-29.52964612046,0.));
#567 = VECTOR('',#568,1.);
#568 = DIRECTION('',(-0.,-1.));
#569 = ( GEOMETRIC_REPRESENTATION_CONTEXT(2) 
PARAMETRIC_REPRESENTATION_CONTEXT() REPRESENTATION_CONTEXT('2D SPACE',''
  ) );
#570 = PCURVE('',#156,#571);
#571 = DEFINITIONAL_REPRESENTATION('',(#572),#576);
#572 = LINE('',#573,#574);
#573 = CARTESIAN_POINT('',(-30.,0.));
#574 = VECTOR('',#575,1.);
#575 = DIRECTION('',(-0.,1.));
#576 = ( GEOMETRIC_REPRESENTATION_CONTEXT(2) 
PARAMETRIC_REPRESENTATION_CONTEXT() REPRESENTATION_CONTEXT('2D SPACE',''
  ) );
#577 = ORIENTED_EDGE('',*,*,#112,.F.);
#578 = ADVANCED_FACE('',(#579,#724),#156,.T.);
#579 = FACE_BOUND('',#580,.F.);
#580 = EDGE_LOOP('',(#581,#606,#627,#628,#629,#652,#675,#698));
#581 = ORIENTED_EDGE('',*,*,#582,.F.);
#582 = EDGE_CURVE('',#583,#585,#587,.T.);
#583 = VERTEX_POINT('',#584);
#584 = CARTESIAN_POINT('',(-22.,-34.,5.0000001));
#585 = VERTEX_POINT('',#586);
#586 = CARTESIAN_POINT('',(22.,-34.,5.0000001));
#587 = SURFACE_CURVE('',#588,(#592,#599),.PCURVE_S1.);
#588 = LINE('',#589,#590);
#589 = CARTESIAN_POINT('',(-26.,-34.,5.0000001));
#590 = VECTOR('',#591,1.);
#591 = DIRECTION('',(1.,0.,0.));
#592 = PCURVE('',#156,#593);
#593 = DEFINITIONAL_REPRESENTATION('',(#594),#598);
#594 = LINE('',#595,#596);
#595 = CARTESIAN_POINT('',(-4.,0.));
#596 = VECTOR('',#597,1.);
#597 = DIRECTION('',(-0.,1.));
#598 = ( GEOMETRIC_REPRESENTATION_CONTEXT(2) 
PARAMETRIC_REPRESENTATION_CONTEXT() REPRESENTATION_CONTEXT('2D SPACE',''
  ) );
#599 = PCURVE('',#464,#600);
#600 = DEFINITIONAL_REPRESENTATION('',(#601),#605);
#601 = LINE('',#602,#603);
#602 = CARTESIAN_POINT('',(-0.,0.));
#603 = VECTOR('',#604,1.);
#604 = DIRECTION('',(-1.,0.));
#605 = ( GEOMETRIC_REPRESENTATION_CONTEXT(2) 
PARAMETRIC_REPRESENTATION_CONTEXT() REPRESENTATION_CONTEXT('2D SPACE',''
  ) );
#606 = ORIENTED_EDGE('',*,*,#607,.F.);
#607 = EDGE_CURVE('',#530,#583,#608,.T.);
#608 = SURFACE_CURVE('',#609,(#613,#620),.PCURVE_S1.);
#609 = LINE('',#610,#611);
#610 = CARTESIAN_POINT('',(-22.,-8.,5.0000001));
#611 = VECTOR('',#612,1.);
#612 = DIRECTION('',(-0.,-1.,-1.110223024625E-16));
#613 = PCURVE('',#156,#614);
#614 = DEFINITIONAL_REPRESENTATION('',(#615),#619);
#615 = LINE('',#616,#617);
#616 = CARTESIAN_POINT('',(-30.,4.));
#617 = VECTOR('',#618,1.);
#618 = DIRECTION('',(1.,-0.));
#619 = ( GEOMETRIC_REPRESENTATION_CONTEXT(2) 
PARAMETRIC_REPRESENTATION_CONTEXT() REPRESENTATION_CONTEXT('2D SPACE',''
  ) );
#620 = PCURVE('',#545,#621);
#621 = DEFINITIONAL_REPRESENTATION('',(#622),#626);
#622 = LINE('',#623,#624);
#623 = CARTESIAN_POINT('',(-15.61758846988,4.382411530117));
#624 = VECTOR('',#625,1.);
#625 = DIRECTION('',(1.,-0.));
#626 = ( GEOMETRIC_REPRESENTATION_CONTEXT(2) 
PARAMETRIC_REPRESENTATION_CONTEXT() REPRESENTATION_CONTEXT('2D SPACE',''
  ) );
#627 = ORIENTED_EDGE('',*,*,#557,.F.);
#628 = ORIENTED_EDGE('',*,*,#140,.T.);
#629 = ORIENTED_EDGE('',*,*,#630,.T.);
#630 = EDGE_CURVE('',#141,#631,#633,.T.);
#631 = VERTEX_POINT('',#632);
#632 = CARTESIAN_POINT('',(26.,38.,5.0000001));
#633 = SURFACE_CURVE('',#634,(#638,#645),.PCURVE_S1.);
#634 = LINE('',#635,#636);
#635 = CARTESIAN_POINT('',(-26.,38.,5.0000001));
#636 = VECTOR('',#637,1.);
#637 = DIRECTION('',(1.,0.,0.));
#638 = PCURVE('',#156,#639);
#639 = DEFINITIONAL_REPRESENTATION('',(#640),#644);
#640 = LINE('',#641,#642);
#641 = CARTESIAN_POINT('',(-76.,0.));
#642 = VECTOR('',#643,1.);
#643 = DIRECTION('',(-0.,1.));
#644 = ( GEOMETRIC_REPRESENTATION_CONTEXT(2) 
PARAMETRIC_REPRESENTATION_CONTEXT() REPRESENTATION_CONTEXT('2D SPACE',''
  ) );
#645 = PCURVE('',#182,#646);
#646 = DEFINITIONAL_REPRESENTATION('',(#647),#651);
#647 = LINE('',#648,#649);
#648 = CARTESIAN_POINT('',(-0.,5.));
#649 = VECTOR('',#650,1.);
#650 = DIRECTION('',(-1.,0.));
#651 = ( GEOMETRIC_REPRESENTATION_CONTEXT(2) 
PARAMETRIC_REPRESENTATION_CONTEXT() REPRESENTATION_CONTEXT('2D SPACE',''
  ) );
#652 = ORIENTED_EDGE('',*,*,#653,.F.);
#653 = EDGE_CURVE('',#654,#631,#656,.T.);
#654 = VERTEX_POINT('',#655);
#655 = CARTESIAN_POINT('',(26.,-8.,5.0000001));
#656 = SURFACE_CURVE('',#657,(#661,#668),.PCURVE_S1.);
#657 = LINE('',#658,#659);
#658 = CARTESIAN_POINT('',(26.,-38.,5.0000001));
#659 = VECTOR('',#660,1.);
#660 = DIRECTION('',(0.,1.,1.110223024625E-16));
#661 = PCURVE('',#156,#662);
#662 = DEFINITIONAL_REPRESENTATION('',(#663),#667);
#663 = LINE('',#664,#665);
#664 = CARTESIAN_POINT('',(-0.,52.));
#665 = VECTOR('',#666,1.);
#666 = DIRECTION('',(-1.,0.));
#667 = ( GEOMETRIC_REPRESENTATION_CONTEXT(2) 
PARAMETRIC_REPRESENTATION_CONTEXT() REPRESENTATION_CONTEXT('2D SPACE',''
  ) );
#668 = PCURVE('',#258,#669);
#669 = DEFINITIONAL_REPRESENTATION('',(#670),#674);
#670 = LINE('',#671,#672);
#671 = CARTESIAN_POINT('',(-5.551115123126E-16,-5.));
#672 = VECTOR('',#673,1.);
#673 = DIRECTION('',(-1.,0.));
#674 = ( GEOMETRIC_REPRESENTATION_CONTEXT(2) 
PARAMETRIC_REPRESENTATION_CONTEXT() REPRESENTATION_CONTEXT('2D SPACE',''
  ) );
#675 = ORIENTED_EDGE('',*,*,#676,.F.);
#676 = EDGE_CURVE('',#677,#654,#679,.T.);
#677 = VERTEX_POINT('',#678);
#678 = CARTESIAN_POINT('',(22.,-8.,5.0000001));
#679 = SURFACE_CURVE('',#680,(#684,#691),.PCURVE_S1.);
#680 = LINE('',#681,#682);
#681 = CARTESIAN_POINT('',(22.,-8.,5.0000001));
#682 = VECTOR('',#683,1.);
#683 = DIRECTION('',(1.,0.,0.));
#684 = PCURVE('',#156,#685);
#685 = DEFINITIONAL_REPRESENTATION('',(#686),#690);
#686 = LINE('',#687,#688);
#687 = CARTESIAN_POINT('',(-30.,48.));
#688 = VECTOR('',#689,1.);
#689 = DIRECTION('',(-0.,1.));
#690 = ( GEOMETRIC_REPRESENTATION_CONTEXT(2) 
PARAMETRIC_REPRESENTATION_CONTEXT() REPRESENTATION_CONTEXT('2D SPACE',''
  ) );
#691 = PCURVE('',#492,#692);
#692 = DEFINITIONAL_REPRESENTATION('',(#693),#697);
#693 = LINE('',#694,#695);
#694 = CARTESIAN_POINT('',(-29.52964612046,0.));
#695 = VECTOR('',#696,1.);
#696 = DIRECTION('',(-0.,-1.));
#697 = ( GEOMETRIC_REPRESENTATION_CONTEXT(2) 
PARAMETRIC_REPRESENTATION_CONTEXT() REPRESENTATION_CONTEXT('2D SPACE',''
  ) );
#698 = ORIENTED_EDGE('',*,*,#699,.T.);
#699 = EDGE_CURVE('',#677,#585,#700,.T.);
#700 = SURFACE_CURVE('',#701,(#705,#712),.PCURVE_S1.);
#701 = LINE('',#702,#703);
#702 = CARTESIAN_POINT('',(22.,-8.,5.0000001));
#703 = VECTOR('',#704,1.);
#704 = DIRECTION('',(-0.,-1.,-1.110223024625E-16));
#705 = PCURVE('',#156,#706);
#706 = DEFINITIONAL_REPRESENTATION('',(#707),#711);
#707 = LINE('',#708,#709);
#708 = CARTESIAN_POINT('',(-30.,48.));
#709 = VECTOR('',#710,1.);
#710 = DIRECTION('',(1.,-0.));
#711 = ( GEOMETRIC_REPRESENTATION_CONTEXT(2) 
PARAMETRIC_REPRESENTATION_CONTEXT() REPRESENTATION_CONTEXT('2D SPACE',''
  ) );
#712 = PCURVE('',#713,#718);
#713 = PLANE('',#714);
#714 = AXIS2_PLACEMENT_3D('',#715,#716,#717);
#715 = CARTESIAN_POINT('',(22.,-23.61758846988,9.382411630117));
#716 = DIRECTION('',(1.,0.,0.));
#717 = DIRECTION('',(-0.,-1.,-1.110223024625E-16));
#718 = DEFINITIONAL_REPRESENTATION('',(#719),#723);
#719 = LINE('',#720,#721);
#720 = CARTESIAN_POINT('',(-15.61758846988,4.382411530117));
#721 = VECTOR('',#722,1.);
#722 = DIRECTION('',(1.,-0.));
#723 = ( GEOMETRIC_REPRESENTATION_CONTEXT(2) 
PARAMETRIC_REPRESENTATION_CONTEXT() REPRESENTATION_CONTEXT('2D SPACE',''
  ) );
#724 = FACE_BOUND('',#725,.F.);
#725 = EDGE_LOOP('',(#726));
#726 = ORIENTED_EDGE('',*,*,#727,.T.);
#727 = EDGE_CURVE('',#728,#728,#730,.T.);
#728 = VERTEX_POINT('',#729);
#729 = CARTESIAN_POINT('',(10.,12.,5.0000001));
#730 = SURFACE_CURVE('',#731,(#736,#743),.PCURVE_S1.);
#731 = CIRCLE('',#732,10.);
#732 = AXIS2_PLACEMENT_3D('',#733,#734,#735);
#733 = CARTESIAN_POINT('',(0.,12.,5.0000001));
#734 = DIRECTION('',(0.,-1.110223024625E-16,1.));
#735 = DIRECTION('',(1.,0.,0.));
#736 = PCURVE('',#156,#737);
#737 = DEFINITIONAL_REPRESENTATION('',(#738),#742);
#738 = CIRCLE('',#739,10.);
#739 = AXIS2_PLACEMENT_2D('',#740,#741);
#740 = CARTESIAN_POINT('',(-50.,26.));
#741 = DIRECTION('',(-0.,1.));
#742 = ( GEOMETRIC_REPRESENTATION_CONTEXT(2) 
PARAMETRIC_REPRESENTATION_CONTEXT() REPRESENTATION_CONTEXT('2D SPACE',''
  ) );
#743 = PCURVE('',#744,#749);
#744 = CYLINDRICAL_SURFACE('',#745,10.);
#745 = AXIS2_PLACEMENT_3D('',#746,#747,#748);
#746 = CARTESIAN_POINT('',(0.,12.,5.0000001));
#747 = DIRECTION('',(0.,1.110223024625E-16,-1.));
#748 = DIRECTION('',(1.,0.,0.));
#749 = DEFINITIONAL_REPRESENTATION('',(#750),#754);
#750 = LINE('',#751,#752);
#751 = CARTESIAN_POINT('',(-0.,0.));
#752 = VECTOR('',#753,1.);
#753 = DIRECTION('',(-1.,0.));
#754 = ( GEOMETRIC_REPRESENTATION_CONTEXT(2) 
PARAMETRIC_REPRESENTATION_CONTEXT() REPRESENTATION_CONTEXT('2D SPACE',''
  ) );
#755 = ADVANCED_FACE('',(#756),#182,.T.);
#756 = FACE_BOUND('',#757,.F.);
#757 = EDGE_LOOP('',(#758,#759,#760,#781));
#758 = ORIENTED_EDGE('',*,*,#168,.F.);
#759 = ORIENTED_EDGE('',*,*,#221,.T.);
#760 = ORIENTED_EDGE('',*,*,#761,.T.);
#761 = EDGE_CURVE('',#222,#631,#762,.T.);
#762 = SURFACE_CURVE('',#763,(#767,#774),.PCURVE_S1.);
#763 = LINE('',#764,#765);
#764 = CARTESIAN_POINT('',(26.,38.,1.000000011686E-07));
#765 = VECTOR('',#766,1.);
#766 = DIRECTION('',(0.,-1.110223024625E-16,1.));
#767 = PCURVE('',#182,#768);
#768 = DEFINITIONAL_REPRESENTATION('',(#769),#773);
#769 = LINE('',#770,#771);
#770 = CARTESIAN_POINT('',(-52.,0.));
#771 = VECTOR('',#772,1.);
#772 = DIRECTION('',(-0.,1.));
#773 = ( GEOMETRIC_REPRESENTATION_CONTEXT(2) 
PARAMETRIC_REPRESENTATION_CONTEXT() REPRESENTATION_CONTEXT('2D SPACE',''
  ) );
#774 = PCURVE('',#258,#775);
#775 = DEFINITIONAL_REPRESENTATION('',(#776),#780);
#776 = LINE('',#777,#778);
#777 = CARTESIAN_POINT('',(-76.,1.33226762955E-15));
#778 = VECTOR('',#779,1.);
#779 = DIRECTION('',(-0.,-1.));
#780 = ( GEOMETRIC_REPRESENTATION_CONTEXT(2) 
PARAMETRIC_REPRESENTATION_CONTEXT() REPRESENTATION_CONTEXT('2D SPACE',''
  ) );
#781 = ORIENTED_EDGE('',*,*,#630,.F.);
#782 = ADVANCED_FACE('',(#783),#258,.T.);
#783 = FACE_BOUND('',#784,.F.);
#784 = EDGE_LOOP('',(#785,#786,#787,#788,#809,#810));
#785 = ORIENTED_EDGE('',*,*,#244,.F.);
#786 = ORIENTED_EDGE('',*,*,#305,.F.);
#787 = ORIENTED_EDGE('',*,*,#504,.T.);
#788 = ORIENTED_EDGE('',*,*,#789,.T.);
#789 = EDGE_CURVE('',#477,#654,#790,.T.);
#790 = SURFACE_CURVE('',#791,(#795,#802),.PCURVE_S1.);
#791 = LINE('',#792,#793);
#792 = CARTESIAN_POINT('',(26.,-34.,19.0000001));
#793 = VECTOR('',#794,1.);
#794 = DIRECTION('',(0.,0.880471099922,-0.474099823035));
#795 = PCURVE('',#258,#796);
#796 = DEFINITIONAL_REPRESENTATION('',(#797),#801);
#797 = LINE('',#798,#799);
#798 = CARTESIAN_POINT('',(-4.,-19.));
#799 = VECTOR('',#800,1.);
#800 = DIRECTION('',(-0.880471099922,0.474099823035));
#801 = ( GEOMETRIC_REPRESENTATION_CONTEXT(2) 
PARAMETRIC_REPRESENTATION_CONTEXT() REPRESENTATION_CONTEXT('2D SPACE',''
  ) );
#802 = PCURVE('',#492,#803);
#803 = DEFINITIONAL_REPRESENTATION('',(#804),#808);
#804 = LINE('',#805,#806);
#805 = CARTESIAN_POINT('',(-0.,-4.));
#806 = VECTOR('',#807,1.);
#807 = DIRECTION('',(-1.,0.));
#808 = ( GEOMETRIC_REPRESENTATION_CONTEXT(2) 
PARAMETRIC_REPRESENTATION_CONTEXT() REPRESENTATION_CONTEXT('2D SPACE',''
  ) );
#809 = ORIENTED_EDGE('',*,*,#653,.T.);
#810 = ORIENTED_EDGE('',*,*,#761,.F.);
#811 = ADVANCED_FACE('',(#812,#870),#289,.F.);
#812 = FACE_BOUND('',#813,.T.);
#813 = EDGE_LOOP('',(#814,#815,#838,#869));
#814 = ORIENTED_EDGE('',*,*,#272,.F.);
#815 = ORIENTED_EDGE('',*,*,#816,.T.);
#816 = EDGE_CURVE('',#273,#817,#819,.T.);
#817 = VERTEX_POINT('',#818);
#818 = CARTESIAN_POINT('',(5.,12.,17.0000001));
#819 = SEAM_CURVE('',#820,(#824,#831),.PCURVE_S1.);
#820 = LINE('',#821,#822);
#821 = CARTESIAN_POINT('',(5.,12.,1.000000011686E-07));
#822 = VECTOR('',#823,1.);
#823 = DIRECTION('',(-0.,-1.110223024625E-16,1.));
#824 = PCURVE('',#289,#825);
#825 = DEFINITIONAL_REPRESENTATION('',(#826),#830);
#826 = LINE('',#827,#828);
#827 = CARTESIAN_POINT('',(-6.28318530718,0.));
#828 = VECTOR('',#829,1.);
#829 = DIRECTION('',(-0.,-1.));
#830 = ( GEOMETRIC_REPRESENTATION_CONTEXT(2) 
PARAMETRIC_REPRESENTATION_CONTEXT() REPRESENTATION_CONTEXT('2D SPACE',''
  ) );
#831 = PCURVE('',#289,#832);
#832 = DEFINITIONAL_REPRESENTATION('',(#833),#837);
#833 = LINE('',#834,#835);
#834 = CARTESIAN_POINT('',(-0.,0.));
#835 = VECTOR('',#836,1.);
#836 = DIRECTION('',(-0.,-1.));
#837 = ( GEOMETRIC_REPRESENTATION_CONTEXT(2) 
PARAMETRIC_REPRESENTATION_CONTEXT() REPRESENTATION_CONTEXT('2D SPACE',''
  ) );
#838 = ORIENTED_EDGE('',*,*,#839,.T.);
#839 = EDGE_CURVE('',#817,#817,#840,.T.);
#840 = SURFACE_CURVE('',#841,(#846,#853),.PCURVE_S1.);
#841 = CIRCLE('',#842,5.);
#842 = AXIS2_PLACEMENT_3D('',#843,#844,#845);
#843 = CARTESIAN_POINT('',(0.,12.,17.0000001));
#844 = DIRECTION('',(0.,-1.110223024625E-16,1.));
#845 = DIRECTION('',(1.,0.,0.));
#846 = PCURVE('',#289,#847);
#847 = DEFINITIONAL_REPRESENTATION('',(#848),#852);
#848 = LINE('',#849,#850);
#849 = CARTESIAN_POINT('',(-0.,-17.));
#850 = VECTOR('',#851,1.);
#851 = DIRECTION('',(-1.,0.));
#852 = ( GEOMETRIC_REPRESENTATION_CONTEXT(2) 
PARAMETRIC_REPRESENTATION_CONTEXT() REPRESENTATION_CONTEXT('2D SPACE',''
  ) );
#853 = PCURVE('',#854,#859);
#854 = PLANE('',#855);
#855 = AXIS2_PLACEMENT_3D('',#856,#857,#858);
#856 = CARTESIAN_POINT('',(0.,12.,17.0000001));
#857 = DIRECTION('',(0.,1.110223024625E-16,-1.));
#858 = DIRECTION('',(0.,1.,1.110223024625E-16));
#859 = DEFINITIONAL_REPRESENTATION('',(#860),#868);
#860 = ( BOUNDED_CURVE() B_SPLINE_CURVE(2,(#861,#862,#863,#864,#865,#866
,#867),.UNSPECIFIED.,.T.,.F.) B_SPLINE_CURVE_WITH_KNOTS((1,2,2,2,2,1),(
    -2.094395102393,0.,2.094395102393,4.188790204786,6.28318530718,
8.377580409573),.UNSPECIFIED.) CURVE() GEOMETRIC_REPRESENTATION_ITEM() 
RATIONAL_B_SPLINE_CURVE((1.,0.5,1.,0.5,1.,0.5,1.)) REPRESENTATION_ITEM(
  '') );
#861 = CARTESIAN_POINT('',(0.,5.));
#862 = CARTESIAN_POINT('',(8.660254037844,5.));
#863 = CARTESIAN_POINT('',(4.330127018922,-2.5));
#864 = CARTESIAN_POINT('',(1.224646799147E-15,-10.));
#865 = CARTESIAN_POINT('',(-4.330127018922,-2.5));
#866 = CARTESIAN_POINT('',(-8.660254037844,5.));
#867 = CARTESIAN_POINT('',(0.,5.));
#868 = ( GEOMETRIC_REPRESENTATION_CONTEXT(2) 
PARAMETRIC_REPRESENTATION_CONTEXT() REPRESENTATION_CONTEXT('2D SPACE',''
  ) );
#869 = ORIENTED_EDGE('',*,*,#816,.F.);
#870 = FACE_BOUND('',#871,.T.);
#871 = EDGE_LOOP('',(#872));
#872 = ORIENTED_EDGE('',*,*,#873,.F.);
#873 = EDGE_CURVE('',#874,#874,#876,.T.);
#874 = VERTEX_POINT('',#875);
#875 = CARTESIAN_POINT('',(1.3,16.828043081829,11.0000001));
#876 = SURFACE_CURVE('',#877,(#929,#984),.PCURVE_S1.);
#877 = B_SPLINE_CURVE_WITH_KNOTS('',8,(#878,#879,#880,#881,#882,#883,
    #884,#885,#886,#887,#888,#889,#890,#891,#892,#893,#894,#895,#896,
    #897,#898,#899,#900,#901,#902,#903,#904,#905,#906,#907,#908,#909,
    #910,#911,#912,#913,#914,#915,#916,#917,#918,#919,#920,#921,#922,
    #923,#924,#925,#926,#927,#928),.UNSPECIFIED.,.T.,.F.,(9,7,7,7,7,7,7,
    9),(0.,0.151204103899,0.287217841975,0.42455417931,0.576322772048,
    0.704900453818,0.830210099491,1.),.UNSPECIFIED.);
#878 = CARTESIAN_POINT('',(1.3,16.828043081829,11.0000001));
#879 = CARTESIAN_POINT('',(1.3,16.828043081829,11.137347864886));
#880 = CARTESIAN_POINT('',(1.283416184218,16.83250832969,11.27477753575)
  );
#881 = CARTESIAN_POINT('',(1.25021230949,16.841449263314,11.410695874462
    ));
#882 = CARTESIAN_POINT('',(1.200250285489,16.854559230074,
    11.543456169411));
#883 = CARTESIAN_POINT('',(1.133322312031,16.871208317501,
    11.671257089719));
#884 = CARTESIAN_POINT('',(1.049182552591,16.890420865165,
    11.792026073678));
#885 = CARTESIAN_POINT('',(0.947624624545,16.910861636162,
    11.903243928142));
#886 = CARTESIAN_POINT('',(0.721630136322,16.948840967748,
    12.090202828193));
#887 = CARTESIAN_POINT('',(0.597499483509,16.966971880593,12.17088171733
    ));
#888 = CARTESIAN_POINT('',(0.458215976988,16.983433098562,
    12.237547103921));
#889 = CARTESIAN_POINT('',(0.307160673791,16.996146384806,
    12.285722797236));
#890 = CARTESIAN_POINT('',(0.148676440169,17.003378283599,
    12.312528043754));
#891 = CARTESIAN_POINT('',(-1.24351788487E-02,17.004363255557,
    12.316613258372));
#892 = CARTESIAN_POINT('',(-0.171269370498,16.999387581782,
    12.298192232631));
#893 = CARTESIAN_POINT('',(-0.47680265324,16.979590564634,
    12.219744618983));
#894 = CARTESIAN_POINT('',(-0.619228202852,16.964941812565,
    12.160378811188));
#895 = CARTESIAN_POINT('',(-0.748738479886,16.947037417375,
    12.08443446392));
#896 = CARTESIAN_POINT('',(-0.864170508621,16.927491010371,
    11.994915152097));
#897 = CARTESIAN_POINT('',(-0.964820160325,16.907837501728,
    11.894577362971));
#898 = CARTESIAN_POINT('',(-1.050344262118,16.889381399662,
    11.785989992544));
#899 = CARTESIAN_POINT('',(-1.120728945802,16.873113253104,
    11.671554910254));
#900 = CARTESIAN_POINT('',(-1.237658573135,16.844810618766,
    11.423066803523));
#901 = CARTESIAN_POINT('',(-1.282060358384,16.83312530853,11.28579392001
    ));
#902 = CARTESIAN_POINT('',(-1.308905910491,16.825647726446,
    11.144016267003));
#903 = CARTESIAN_POINT('',(-1.317886696275,16.823073731882,11.0000001));
#904 = CARTESIAN_POINT('',(-1.308905910491,16.825647726446,
    10.855983932997));
#905 = CARTESIAN_POINT('',(-1.282060358384,16.83312530853,10.71420627999
    ));
#906 = CARTESIAN_POINT('',(-1.237658573135,16.844810618766,
    10.576933396477));
#907 = CARTESIAN_POINT('',(-1.124271418532,16.872255803092,10.3359734275
    ));
#908 = CARTESIAN_POINT('',(-1.059362881809,16.88729342094,
    10.228836585103));
#909 = CARTESIAN_POINT('',(-0.981334009815,16.904256443968,
    10.126772096294));
#910 = CARTESIAN_POINT('',(-0.890152775717,16.922367887016,
    10.031626901392));
#911 = CARTESIAN_POINT('',(-0.785997066693,16.940617534823,
    9.945412798112));
#912 = CARTESIAN_POINT('',(-0.669291854386,16.957804560313,9.87032922148
    ));
#913 = CARTESIAN_POINT('',(-0.540789067723,16.972626314185,
    9.808812228101));
#914 = CARTESIAN_POINT('',(-0.266189758254,16.994760391932,
    9.719589503882));
#915 = CARTESIAN_POINT('',(-0.122272668027,17.002120673198,
    9.691599888737));
#916 = CARTESIAN_POINT('',(2.634506147062E-02,17.004742175747,
    9.682246970427));
#917 = CARTESIAN_POINT('',(0.175465535355,17.001961137991,9.692590455587
    ));
#918 = CARTESIAN_POINT('',(0.320782715837,16.993971260482,9.722268233394
    ));
#919 = CARTESIAN_POINT('',(0.458228023251,16.981806028298,9.769518261297
    ));
#920 = CARTESIAN_POINT('',(0.584319087339,16.9670335184,9.831134134091)
  );
#921 = CARTESIAN_POINT('',(0.84867718653,16.929841789354,9.998900885299)
  );
#922 = CARTESIAN_POINT('',(0.97894183387,16.906068899424,10.115359048767
    ));
#923 = CARTESIAN_POINT('',(1.086834231305,16.882643168966,
    10.246317683896));
#924 = CARTESIAN_POINT('',(1.172523934982,16.86180663838,10.387709079661
    ));
#925 = CARTESIAN_POINT('',(1.236384326939,16.845173345746,
    10.536288397575));
#926 = CARTESIAN_POINT('',(1.278786968691,16.833754508527,
    10.689371244353));
#927 = CARTESIAN_POINT('',(1.3,16.828043081829,10.844663754464));
#928 = CARTESIAN_POINT('',(1.3,16.828043081829,11.0000001));
#929 = PCURVE('',#289,#930);
#930 = DEFINITIONAL_REPRESENTATION('',(#931),#983);
#931 = B_SPLINE_CURVE_WITH_KNOTS('',8,(#932,#933,#934,#935,#936,#937,
    #938,#939,#940,#941,#942,#943,#944,#945,#946,#947,#948,#949,#950,
    #951,#952,#953,#954,#955,#956,#957,#958,#959,#960,#961,#962,#963,
    #964,#965,#966,#967,#968,#969,#970,#971,#972,#973,#974,#975,#976,
    #977,#978,#979,#980,#981,#982),.UNSPECIFIED.,.T.,.F.,(9,7,7,7,7,7,7,
    9),(0.,0.151204103899,0.287217841975,0.42455417931,0.576322772048,
    0.704900453818,0.830210099491,1.),.UNSPECIFIED.);
#932 = CARTESIAN_POINT('',(-1.307774123886,-11.));
#933 = CARTESIAN_POINT('',(-1.307774123886,-11.13734776488));
#934 = CARTESIAN_POINT('',(-1.311209020549,-11.27477743575));
#935 = CARTESIAN_POINT('',(-1.318086304673,-11.41069577446));
#936 = CARTESIAN_POINT('',(-1.328416827269,-11.54345606941));
#937 = CARTESIAN_POINT('',(-1.342207800475,-11.67125698971));
#938 = CARTESIAN_POINT('',(-1.359461307712,-11.79202597367));
#939 = CARTESIAN_POINT('',(-1.380169528603,-11.90324382814));
#940 = CARTESIAN_POINT('',(-1.426002241084,-12.09020272819));
#941 = CARTESIAN_POINT('',(-1.451086003783,-12.17088161733));
#942 = CARTESIAN_POINT('',(-1.479118790761,-12.23754700392));
#943 = CARTESIAN_POINT('',(-1.509400262182,-12.28572269723));
#944 = CARTESIAN_POINT('',(-1.541081481871,-12.31252794375));
#945 = CARTESIAN_POINT('',(-1.573266899008,-12.31661315837));
#946 = CARTESIAN_POINT('',(-1.605031580722,-12.29819213263));
#947 = CARTESIAN_POINT('',(-1.666266377611,-12.21974451898));
#948 = CARTESIAN_POINT('',(-1.694881297078,-12.16037871118));
#949 = CARTESIAN_POINT('',(-1.721005140918,-12.08443436392));
#950 = CARTESIAN_POINT('',(-1.744402908692,-11.99491505209));
#951 = CARTESIAN_POINT('',(-1.764904631667,-11.89457726297));
#952 = CARTESIAN_POINT('',(-1.782399934444,-11.78598989254));
#953 = CARTESIAN_POINT('',(-1.796847240952,-11.67155481025));
#954 = CARTESIAN_POINT('',(-1.82090847688,-11.42306670352));
#955 = CARTESIAN_POINT('',(-1.830089368691,-11.28579382001));
#956 = CARTESIAN_POINT('',(-1.835662819528,-11.144016167));
#957 = CARTESIAN_POINT('',(-1.837531602872,-11.));
#958 = CARTESIAN_POINT('',(-1.835662819528,-10.85598383299));
#959 = CARTESIAN_POINT('',(-1.830089368691,-10.71420617999));
#960 = CARTESIAN_POINT('',(-1.82090847688,-10.57693329647));
#961 = CARTESIAN_POINT('',(-1.797576194547,-10.3359733275));
#962 = CARTESIAN_POINT('',(-1.784251284453,-10.2288364851));
#963 = CARTESIAN_POINT('',(-1.768283579328,-10.12677199629));
#964 = CARTESIAN_POINT('',(-1.74969743219,-10.03162680139));
#965 = CARTESIAN_POINT('',(-1.728561594759,-9.945412698112));
#966 = CARTESIAN_POINT('',(-1.704986667452,-9.87032912148));
#967 = CARTESIAN_POINT('',(-1.679131040468,-9.808812128101));
#968 = CARTESIAN_POINT('',(-1.624033055693,-9.719589403882));
#969 = CARTESIAN_POINT('',(-1.595224358216,-9.691599788737));
#970 = CARTESIAN_POINT('',(-1.565524353025,-9.682246870427));
#971 = CARTESIAN_POINT('',(-1.535733883071,-9.692590355587));
#972 = CARTESIAN_POINT('',(-1.506660826678,-9.722268133394));
#973 = CARTESIAN_POINT('',(-1.479082795465,-9.769518161297));
#974 = CARTESIAN_POINT('',(-1.453698971504,-9.831134034091));
#975 = CARTESIAN_POINT('',(-1.400306676435,-9.998900785299));
#976 = CARTESIAN_POINT('',(-1.373845482832,-10.11535894876));
#977 = CARTESIAN_POINT('',(-1.351780295873,-10.24631758389));
#978 = CARTESIAN_POINT('',(-1.334148376777,-10.38770897966));
#979 = CARTESIAN_POINT('',(-1.320950321448,-10.53628829757));
#980 = CARTESIAN_POINT('',(-1.312167865349,-10.68937114435));
#981 = CARTESIAN_POINT('',(-1.307774123886,-10.84466365446));
#982 = CARTESIAN_POINT('',(-1.307774123886,-11.));
#983 = ( GEOMETRIC_REPRESENTATION_CONTEXT(2) 
PARAMETRIC_REPRESENTATION_CONTEXT() REPRESENTATION_CONTEXT('2D SPACE',''
  ) );
#984 = PCURVE('',#985,#990);
#985 = CYLINDRICAL_SURFACE('',#986,1.3);
#986 = AXIS2_PLACEMENT_3D('',#987,#988,#989);
#987 = CARTESIAN_POINT('',(0.,12.,11.0000001));
#988 = DIRECTION('',(0.,-1.,-1.110223024625E-16));
#989 = DIRECTION('',(1.,0.,0.));
#990 = DEFINITIONAL_REPRESENTATION('',(#991),#1043);
#991 = B_SPLINE_CURVE_WITH_KNOTS('',8,(#992,#993,#994,#995,#996,#997,
    #998,#999,#1000,#1001,#1002,#1003,#1004,#1005,#1006,#1007,#1008,
    #1009,#1010,#1011,#1012,#1013,#1014,#1015,#1016,#1017,#1018,#1019,
    #1020,#1021,#1022,#1023,#1024,#1025,#1026,#1027,#1028,#1029,#1030,
    #1031,#1032,#1033,#1034,#1035,#1036,#1037,#1038,#1039,#1040,#1041,
    #1042),.UNSPECIFIED.,.F.,.F.,(9,7,7,7,7,7,7,9),(0.,0.151204103899,
    0.287217841975,0.42455417931,0.576322772048,0.704900453818,
    0.830210099491,1.),.UNSPECIFIED.);
#992 = CARTESIAN_POINT('',(0.,-4.828043081829));
#993 = CARTESIAN_POINT('',(0.105652126835,-4.828043081829));
#994 = CARTESIAN_POINT('',(0.211366882466,-4.83250832969));
#995 = CARTESIAN_POINT('',(0.317717884712,-4.841449263314));
#996 = CARTESIAN_POINT('',(0.425239739857,-4.854559230074));
#997 = CARTESIAN_POINT('',(0.534505988378,-4.871208317501));
#998 = CARTESIAN_POINT('',(0.646143489304,-4.890420865165));
#999 = CARTESIAN_POINT('',(0.760870529357,-4.910861636162));
#1000 = CARTESIAN_POINT('',(0.986488863172,-4.948840967748));
#1001 = CARTESIAN_POINT('',(1.09962052786,-4.966971880593));
#1002 = CARTESIAN_POINT('',(1.216719492344,-4.983433098562));
#1003 = CARTESIAN_POINT('',(1.336370574597,-4.996146384806));
#1004 = CARTESIAN_POINT('',(1.457582613208,-5.003378283599));
#1005 = CARTESIAN_POINT('',(1.579520579182,-5.004363255557));
#1006 = CARTESIAN_POINT('',(1.701386333928,-4.999387581782));
#1007 = CARTESIAN_POINT('',(1.944035196246,-4.979590564634));
#1008 = CARTESIAN_POINT('',(2.061508499236,-4.964941812565));
#1009 = CARTESIAN_POINT('',(2.175288801777,-4.947037417375));
#1010 = CARTESIAN_POINT('',(2.285861956722,-4.927491010371));
#1011 = CARTESIAN_POINT('',(2.393584420673,-4.907837501728));
#1012 = CARTESIAN_POINT('',(2.498716213847,-4.889381399662));
#1013 = CARTESIAN_POINT('',(2.601417541355,-4.873113253104));
#1014 = CARTESIAN_POINT('',(2.812667522183,-4.844810618766));
#1015 = CARTESIAN_POINT('',(2.922754500315,-4.83312530853));
#1016 = CARTESIAN_POINT('',(3.032306487239,-4.825647726446));
#1017 = CARTESIAN_POINT('',(3.14159265359,-4.823073731882));
#1018 = CARTESIAN_POINT('',(3.250878819941,-4.825647726446));
#1019 = CARTESIAN_POINT('',(3.360430806865,-4.83312530853));
#1020 = CARTESIAN_POINT('',(3.470517784997,-4.844810618766));
#1021 = CARTESIAN_POINT('',(3.675367785652,-4.872255803092));
#1022 = CARTESIAN_POINT('',(3.771196006223,-4.88729342094));
#1023 = CARTESIAN_POINT('',(3.869055945884,-4.904256443968));
#1024 = CARTESIAN_POINT('',(3.96914455335,-4.922367887016));
#1025 = CARTESIAN_POINT('',(4.071722103206,-4.940617534823));
#1026 = CARTESIAN_POINT('',(4.177116447532,-4.957804560313));
#1027 = CARTESIAN_POINT('',(4.285749968188,-4.972626314185));
#1028 = CARTESIAN_POINT('',(4.507850584118,-4.994760391932));
#1029 = CARTESIAN_POINT('',(4.619790639145,-5.002120673198));
#1030 = CARTESIAN_POINT('',(4.732748501268,-5.004742175747));
#1031 = CARTESIAN_POINT('',(4.845761003347,-5.001961137991));
#1032 = CARTESIAN_POINT('',(4.957941678793,-4.993971260482));
#1033 = CARTESIAN_POINT('',(5.068313412663,-4.981806028298));
#1034 = CARTESIAN_POINT('',(5.175604287701,-4.9670335184));
#1035 = CARTESIAN_POINT('',(5.416449553919,-4.929841789354));
#1036 = CARTESIAN_POINT('',(5.549056515583,-4.906068899424));
#1037 = CARTESIAN_POINT('',(5.677157779274,-4.882643168966));
#1038 = CARTESIAN_POINT('',(5.801800730125,-4.86180663838));
#1039 = CARTESIAN_POINT('',(5.923882745895,-4.845173345746));
#1040 = CARTESIAN_POINT('',(6.044240636265,-4.833754508527));
#1041 = CARTESIAN_POINT('',(6.163695810613,-4.828043081829));
#1042 = CARTESIAN_POINT('',(6.28318530718,-4.828043081829));
#1043 = ( GEOMETRIC_REPRESENTATION_CONTEXT(2) 
PARAMETRIC_REPRESENTATION_CONTEXT() REPRESENTATION_CONTEXT('2D SPACE',''
  ) );
#1044 = ADVANCED_FACE('',(#1045),#373,.F.);
#1045 = FACE_BOUND('',#1046,.F.);
#1046 = EDGE_LOOP('',(#1047,#1070,#1096,#1097));
#1047 = ORIENTED_EDGE('',*,*,#1048,.T.);
#1048 = EDGE_CURVE('',#353,#1049,#1051,.T.);
#1049 = VERTEX_POINT('',#1050);
#1050 = CARTESIAN_POINT('',(-13.3,-34.,13.0000001));
#1051 = SEAM_CURVE('',#1052,(#1056,#1063),.PCURVE_S1.);
#1052 = LINE('',#1053,#1054);
#1053 = CARTESIAN_POINT('',(-13.3,-38.,13.0000001));
#1054 = VECTOR('',#1055,1.);
#1055 = DIRECTION('',(0.,1.,1.110223024625E-16));
#1056 = PCURVE('',#373,#1057);
#1057 = DEFINITIONAL_REPRESENTATION('',(#1058),#1062);
#1058 = LINE('',#1059,#1060);
#1059 = CARTESIAN_POINT('',(0.,0.));
#1060 = VECTOR('',#1061,1.);
#1061 = DIRECTION('',(0.,-1.));
#1062 = ( GEOMETRIC_REPRESENTATION_CONTEXT(2) 
PARAMETRIC_REPRESENTATION_CONTEXT() REPRESENTATION_CONTEXT('2D SPACE',''
  ) );
#1063 = PCURVE('',#373,#1064);
#1064 = DEFINITIONAL_REPRESENTATION('',(#1065),#1069);
#1065 = LINE('',#1066,#1067);
#1066 = CARTESIAN_POINT('',(6.28318530718,0.));
#1067 = VECTOR('',#1068,1.);
#1068 = DIRECTION('',(0.,-1.));
#1069 = ( GEOMETRIC_REPRESENTATION_CONTEXT(2) 
PARAMETRIC_REPRESENTATION_CONTEXT() REPRESENTATION_CONTEXT('2D SPACE',''
  ) );
#1070 = ORIENTED_EDGE('',*,*,#1071,.T.);
#1071 = EDGE_CURVE('',#1049,#1049,#1072,.T.);
#1072 = SURFACE_CURVE('',#1073,(#1078,#1085),.PCURVE_S1.);
#1073 = CIRCLE('',#1074,1.7);
#1074 = AXIS2_PLACEMENT_3D('',#1075,#1076,#1077);
#1075 = CARTESIAN_POINT('',(-15.,-34.,13.0000001));
#1076 = DIRECTION('',(0.,-1.,-1.110223024625E-16));
#1077 = DIRECTION('',(1.,0.,0.));
#1078 = PCURVE('',#373,#1079);
#1079 = DEFINITIONAL_REPRESENTATION('',(#1080),#1084);
#1080 = LINE('',#1081,#1082);
#1081 = CARTESIAN_POINT('',(0.,-4.));
#1082 = VECTOR('',#1083,1.);
#1083 = DIRECTION('',(1.,0.));
#1084 = ( GEOMETRIC_REPRESENTATION_CONTEXT(2) 
PARAMETRIC_REPRESENTATION_CONTEXT() REPRESENTATION_CONTEXT('2D SPACE',''
  ) );
#1085 = PCURVE('',#464,#1086);
#1086 = DEFINITIONAL_REPRESENTATION('',(#1087),#1095);
#1087 = ( BOUNDED_CURVE() B_SPLINE_CURVE(2,(#1088,#1089,#1090,#1091,
#1092,#1093,#1094),.UNSPECIFIED.,.T.,.F.) B_SPLINE_CURVE_WITH_KNOTS((1,2
    ,2,2,2,1),(-2.094395102393,0.,2.094395102393,4.188790204786,
6.28318530718,8.377580409573),.UNSPECIFIED.) CURVE() 
GEOMETRIC_REPRESENTATION_ITEM() RATIONAL_B_SPLINE_CURVE((1.,0.5,1.,0.5,
1.,0.5,1.)) REPRESENTATION_ITEM('') );
#1088 = CARTESIAN_POINT('',(-12.7,8.));
#1089 = CARTESIAN_POINT('',(-12.7,10.944486372867));
#1090 = CARTESIAN_POINT('',(-10.15,9.472243186434));
#1091 = CARTESIAN_POINT('',(-7.6,8.));
#1092 = CARTESIAN_POINT('',(-10.15,6.527756813566));
#1093 = CARTESIAN_POINT('',(-12.7,5.055513627133));
#1094 = CARTESIAN_POINT('',(-12.7,8.));
#1095 = ( GEOMETRIC_REPRESENTATION_CONTEXT(2) 
PARAMETRIC_REPRESENTATION_CONTEXT() REPRESENTATION_CONTEXT('2D SPACE',''
  ) );
#1096 = ORIENTED_EDGE('',*,*,#1048,.F.);
#1097 = ORIENTED_EDGE('',*,*,#352,.F.);
#1098 = ADVANCED_FACE('',(#1099),#408,.F.);
#1099 = FACE_BOUND('',#1100,.F.);
#1100 = EDGE_LOOP('',(#1101,#1124,#1150,#1151));
#1101 = ORIENTED_EDGE('',*,*,#1102,.T.);
#1102 = EDGE_CURVE('',#388,#1103,#1105,.T.);
#1103 = VERTEX_POINT('',#1104);
#1104 = CARTESIAN_POINT('',(16.7,-34.,13.0000001));
#1105 = SEAM_CURVE('',#1106,(#1110,#1117),.PCURVE_S1.);
#1106 = LINE('',#1107,#1108);
#1107 = CARTESIAN_POINT('',(16.7,-38.,13.0000001));
#1108 = VECTOR('',#1109,1.);
#1109 = DIRECTION('',(0.,1.,1.110223024625E-16));
#1110 = PCURVE('',#408,#1111);
#1111 = DEFINITIONAL_REPRESENTATION('',(#1112),#1116);
#1112 = LINE('',#1113,#1114);
#1113 = CARTESIAN_POINT('',(0.,0.));
#1114 = VECTOR('',#1115,1.);
#1115 = DIRECTION('',(0.,-1.));
#1116 = ( GEOMETRIC_REPRESENTATION_CONTEXT(2) 
PARAMETRIC_REPRESENTATION_CONTEXT() REPRESENTATION_CONTEXT('2D SPACE',''
  ) );
#1117 = PCURVE('',#408,#1118);
#1118 = DEFINITIONAL_REPRESENTATION('',(#1119),#1123);
#1119 = LINE('',#1120,#1121);
#1120 = CARTESIAN_POINT('',(6.28318530718,0.));
#1121 = VECTOR('',#1122,1.);
#1122 = DIRECTION('',(0.,-1.));
#1123 = ( GEOMETRIC_REPRESENTATION_CONTEXT(2) 
PARAMETRIC_REPRESENTATION_CONTEXT() REPRESENTATION_CONTEXT('2D SPACE',''
  ) );
#1124 = ORIENTED_EDGE('',*,*,#1125,.T.);
#1125 = EDGE_CURVE('',#1103,#1103,#1126,.T.);
#1126 = SURFACE_CURVE('',#1127,(#1132,#1139),.PCURVE_S1.);
#1127 = CIRCLE('',#1128,1.7);
#1128 = AXIS2_PLACEMENT_3D('',#1129,#1130,#1131);
#1129 = CARTESIAN_POINT('',(15.,-34.,13.0000001));
#1130 = DIRECTION('',(0.,-1.,-1.110223024625E-16));
#1131 = DIRECTION('',(1.,0.,0.));
#1132 = PCURVE('',#408,#1133);
#1133 = DEFINITIONAL_REPRESENTATION('',(#1134),#1138);
#1134 = LINE('',#1135,#1136);
#1135 = CARTESIAN_POINT('',(0.,-4.));
#1136 = VECTOR('',#1137,1.);
#1137 = DIRECTION('',(1.,0.));
#1138 = ( GEOMETRIC_REPRESENTATION_CONTEXT(2) 
PARAMETRIC_REPRESENTATION_CONTEXT() REPRESENTATION_CONTEXT('2D SPACE',''
  ) );
#1139 = PCURVE('',#464,#1140);
#1140 = DEFINITIONAL_REPRESENTATION('',(#1141),#1149);
#1141 = ( BOUNDED_CURVE() B_SPLINE_CURVE(2,(#1142,#1143,#1144,#1145,
#1146,#1147,#1148),.UNSPECIFIED.,.T.,.F.) B_SPLINE_CURVE_WITH_KNOTS((1,2
    ,2,2,2,1),(-2.094395102393,0.,2.094395102393,4.188790204786,
6.28318530718,8.377580409573),.UNSPECIFIED.) CURVE() 
GEOMETRIC_REPRESENTATION_ITEM() RATIONAL_B_SPLINE_CURVE((1.,0.5,1.,0.5,
1.,0.5,1.)) REPRESENTATION_ITEM('') );
#1142 = CARTESIAN_POINT('',(-42.7,8.));
#1143 = CARTESIAN_POINT('',(-42.7,10.944486372867));
#1144 = CARTESIAN_POINT('',(-40.15,9.472243186434));
#1145 = CARTESIAN_POINT('',(-37.6,8.));
#1146 = CARTESIAN_POINT('',(-40.15,6.527756813566));
#1147 = CARTESIAN_POINT('',(-42.7,5.055513627133));
#1148 = CARTESIAN_POINT('',(-42.7,8.));
#1149 = ( GEOMETRIC_REPRESENTATION_CONTEXT(2) 
PARAMETRIC_REPRESENTATION_CONTEXT() REPRESENTATION_CONTEXT('2D SPACE',''
  ) );
#1150 = ORIENTED_EDGE('',*,*,#1102,.F.);
#1151 = ORIENTED_EDGE('',*,*,#387,.F.);
#1152 = ADVANCED_FACE('',(#1153,#1199,#1202),#464,.T.);
#1153 = FACE_BOUND('',#1154,.F.);
#1154 = EDGE_LOOP('',(#1155,#1156,#1177,#1178));
#1155 = ORIENTED_EDGE('',*,*,#448,.F.);
#1156 = ORIENTED_EDGE('',*,*,#1157,.F.);
#1157 = EDGE_CURVE('',#583,#426,#1158,.T.);
#1158 = SURFACE_CURVE('',#1159,(#1163,#1170),.PCURVE_S1.);
#1159 = LINE('',#1160,#1161);
#1160 = CARTESIAN_POINT('',(-22.,-34.,5.0000001));
#1161 = VECTOR('',#1162,1.);
#1162 = DIRECTION('',(-0.,-1.110223024625E-16,1.));
#1163 = PCURVE('',#464,#1164);
#1164 = DEFINITIONAL_REPRESENTATION('',(#1165),#1169);
#1165 = LINE('',#1166,#1167);
#1166 = CARTESIAN_POINT('',(-4.,0.));
#1167 = VECTOR('',#1168,1.);
#1168 = DIRECTION('',(-0.,1.));
#1169 = ( GEOMETRIC_REPRESENTATION_CONTEXT(2) 
PARAMETRIC_REPRESENTATION_CONTEXT() REPRESENTATION_CONTEXT('2D SPACE',''
  ) );
#1170 = PCURVE('',#545,#1171);
#1171 = DEFINITIONAL_REPRESENTATION('',(#1172),#1176);
#1172 = LINE('',#1173,#1174);
#1173 = CARTESIAN_POINT('',(10.382411530117,4.382411530117));
#1174 = VECTOR('',#1175,1.);
#1175 = DIRECTION('',(-0.,-1.));
#1176 = ( GEOMETRIC_REPRESENTATION_CONTEXT(2) 
PARAMETRIC_REPRESENTATION_CONTEXT() REPRESENTATION_CONTEXT('2D SPACE',''
  ) );
#1177 = ORIENTED_EDGE('',*,*,#582,.T.);
#1178 = ORIENTED_EDGE('',*,*,#1179,.T.);
#1179 = EDGE_CURVE('',#585,#449,#1180,.T.);
#1180 = SURFACE_CURVE('',#1181,(#1185,#1192),.PCURVE_S1.);
#1181 = LINE('',#1182,#1183);
#1182 = CARTESIAN_POINT('',(22.,-34.,5.0000001));
#1183 = VECTOR('',#1184,1.);
#1184 = DIRECTION('',(-0.,-1.110223024625E-16,1.));
#1185 = PCURVE('',#464,#1186);
#1186 = DEFINITIONAL_REPRESENTATION('',(#1187),#1191);
#1187 = LINE('',#1188,#1189);
#1188 = CARTESIAN_POINT('',(-48.,0.));
#1189 = VECTOR('',#1190,1.);
#1190 = DIRECTION('',(-0.,1.));
#1191 = ( GEOMETRIC_REPRESENTATION_CONTEXT(2) 
PARAMETRIC_REPRESENTATION_CONTEXT() REPRESENTATION_CONTEXT('2D SPACE',''
  ) );
#1192 = PCURVE('',#713,#1193);
#1193 = DEFINITIONAL_REPRESENTATION('',(#1194),#1198);
#1194 = LINE('',#1195,#1196);
#1195 = CARTESIAN_POINT('',(10.382411530117,4.382411530117));
#1196 = VECTOR('',#1197,1.);
#1197 = DIRECTION('',(-0.,-1.));
#1198 = ( GEOMETRIC_REPRESENTATION_CONTEXT(2) 
PARAMETRIC_REPRESENTATION_CONTEXT() REPRESENTATION_CONTEXT('2D SPACE',''
  ) );
#1199 = FACE_BOUND('',#1200,.F.);
#1200 = EDGE_LOOP('',(#1201));
#1201 = ORIENTED_EDGE('',*,*,#1071,.F.);
#1202 = FACE_BOUND('',#1203,.F.);
#1203 = EDGE_LOOP('',(#1204));
#1204 = ORIENTED_EDGE('',*,*,#1125,.F.);
#1205 = ADVANCED_FACE('',(#1206),#492,.F.);
#1206 = FACE_BOUND('',#1207,.T.);
#1207 = EDGE_LOOP('',(#1208,#1209,#1210,#1211));
#1208 = ORIENTED_EDGE('',*,*,#476,.T.);
#1209 = ORIENTED_EDGE('',*,*,#789,.T.);
#1210 = ORIENTED_EDGE('',*,*,#676,.F.);
#1211 = ORIENTED_EDGE('',*,*,#1212,.F.);
#1212 = EDGE_CURVE('',#449,#677,#1213,.T.);
#1213 = SURFACE_CURVE('',#1214,(#1218,#1225),.PCURVE_S1.);
#1214 = LINE('',#1215,#1216);
#1215 = CARTESIAN_POINT('',(22.,-34.,19.0000001));
#1216 = VECTOR('',#1217,1.);
#1217 = DIRECTION('',(0.,0.880471099922,-0.474099823035));
#1218 = PCURVE('',#492,#1219);
#1219 = DEFINITIONAL_REPRESENTATION('',(#1220),#1224);
#1220 = LINE('',#1221,#1222);
#1221 = CARTESIAN_POINT('',(-0.,0.));
#1222 = VECTOR('',#1223,1.);
#1223 = DIRECTION('',(-1.,0.));
#1224 = ( GEOMETRIC_REPRESENTATION_CONTEXT(2) 
PARAMETRIC_REPRESENTATION_CONTEXT() REPRESENTATION_CONTEXT('2D SPACE',''
  ) );
#1225 = PCURVE('',#713,#1226);
#1226 = DEFINITIONAL_REPRESENTATION('',(#1227),#1231);
#1227 = LINE('',#1228,#1229);
#1228 = CARTESIAN_POINT('',(10.382411530117,-9.617588469883));
#1229 = VECTOR('',#1230,1.);
#1230 = DIRECTION('',(-0.880471099922,0.474099823035));
#1231 = ( GEOMETRIC_REPRESENTATION_CONTEXT(2) 
PARAMETRIC_REPRESENTATION_CONTEXT() REPRESENTATION_CONTEXT('2D SPACE',''
  ) );
#1232 = ADVANCED_FACE('',(#1233),#545,.T.);
#1233 = FACE_BOUND('',#1234,.F.);
#1234 = EDGE_LOOP('',(#1235,#1236,#1237));
#1235 = ORIENTED_EDGE('',*,*,#1157,.T.);
#1236 = ORIENTED_EDGE('',*,*,#529,.T.);
#1237 = ORIENTED_EDGE('',*,*,#607,.T.);
#1238 = ADVANCED_FACE('',(#1239),#713,.F.);
#1239 = FACE_BOUND('',#1240,.T.);
#1240 = EDGE_LOOP('',(#1241,#1242,#1243));
#1241 = ORIENTED_EDGE('',*,*,#1179,.T.);
#1242 = ORIENTED_EDGE('',*,*,#1212,.T.);
#1243 = ORIENTED_EDGE('',*,*,#699,.T.);
#1244 = ADVANCED_FACE('',(#1245,#1298),#744,.T.);
#1245 = FACE_BOUND('',#1246,.F.);
#1246 = EDGE_LOOP('',(#1247,#1248,#1271,#1297));
#1247 = ORIENTED_EDGE('',*,*,#727,.F.);
#1248 = ORIENTED_EDGE('',*,*,#1249,.T.);
#1249 = EDGE_CURVE('',#728,#1250,#1252,.T.);
#1250 = VERTEX_POINT('',#1251);
#1251 = CARTESIAN_POINT('',(10.,12.,17.0000001));
#1252 = SEAM_CURVE('',#1253,(#1257,#1264),.PCURVE_S1.);
#1253 = LINE('',#1254,#1255);
#1254 = CARTESIAN_POINT('',(10.,12.,5.0000001));
#1255 = VECTOR('',#1256,1.);
#1256 = DIRECTION('',(-0.,-1.110223024625E-16,1.));
#1257 = PCURVE('',#744,#1258);
#1258 = DEFINITIONAL_REPRESENTATION('',(#1259),#1263);
#1259 = LINE('',#1260,#1261);
#1260 = CARTESIAN_POINT('',(-6.28318530718,0.));
#1261 = VECTOR('',#1262,1.);
#1262 = DIRECTION('',(-0.,-1.));
#1263 = ( GEOMETRIC_REPRESENTATION_CONTEXT(2) 
PARAMETRIC_REPRESENTATION_CONTEXT() REPRESENTATION_CONTEXT('2D SPACE',''
  ) );
#1264 = PCURVE('',#744,#1265);
#1265 = DEFINITIONAL_REPRESENTATION('',(#1266),#1270);
#1266 = LINE('',#1267,#1268);
#1267 = CARTESIAN_POINT('',(-0.,0.));
#1268 = VECTOR('',#1269,1.);
#1269 = DIRECTION('',(-0.,-1.));
#1270 = ( GEOMETRIC_REPRESENTATION_CONTEXT(2) 
PARAMETRIC_REPRESENTATION_CONTEXT() REPRESENTATION_CONTEXT('2D SPACE',''
  ) );
#1271 = ORIENTED_EDGE('',*,*,#1272,.T.);
#1272 = EDGE_CURVE('',#1250,#1250,#1273,.T.);
#1273 = SURFACE_CURVE('',#1274,(#1279,#1286),.PCURVE_S1.);
#1274 = CIRCLE('',#1275,10.);
#1275 = AXIS2_PLACEMENT_3D('',#1276,#1277,#1278);
#1276 = CARTESIAN_POINT('',(0.,12.,17.0000001));
#1277 = DIRECTION('',(0.,-1.110223024625E-16,1.));
#1278 = DIRECTION('',(1.,0.,0.));
#1279 = PCURVE('',#744,#1280);
#1280 = DEFINITIONAL_REPRESENTATION('',(#1281),#1285);
#1281 = LINE('',#1282,#1283);
#1282 = CARTESIAN_POINT('',(-0.,-12.));
#1283 = VECTOR('',#1284,1.);
#1284 = DIRECTION('',(-1.,0.));
#1285 = ( GEOMETRIC_REPRESENTATION_CONTEXT(2) 
PARAMETRIC_REPRESENTATION_CONTEXT() REPRESENTATION_CONTEXT('2D SPACE',''
  ) );
#1286 = PCURVE('',#854,#1287);
#1287 = DEFINITIONAL_REPRESENTATION('',(#1288),#1296);
#1288 = ( BOUNDED_CURVE() B_SPLINE_CURVE(2,(#1289,#1290,#1291,#1292,
#1293,#1294,#1295),.UNSPECIFIED.,.T.,.F.) B_SPLINE_CURVE_WITH_KNOTS((1,2
    ,2,2,2,1),(-2.094395102393,0.,2.094395102393,4.188790204786,
6.28318530718,8.377580409573),.UNSPECIFIED.) CURVE() 
GEOMETRIC_REPRESENTATION_ITEM() RATIONAL_B_SPLINE_CURVE((1.,0.5,1.,0.5,
1.,0.5,1.)) REPRESENTATION_ITEM('') );
#1289 = CARTESIAN_POINT('',(0.,10.));
#1290 = CARTESIAN_POINT('',(17.320508075689,10.));
#1291 = CARTESIAN_POINT('',(8.660254037844,-5.));
#1292 = CARTESIAN_POINT('',(2.449293598295E-15,-20.));
#1293 = CARTESIAN_POINT('',(-8.660254037844,-5.));
#1294 = CARTESIAN_POINT('',(-17.32050807568,10.));
#1295 = CARTESIAN_POINT('',(0.,10.));
#1296 = ( GEOMETRIC_REPRESENTATION_CONTEXT(2) 
PARAMETRIC_REPRESENTATION_CONTEXT() REPRESENTATION_CONTEXT('2D SPACE',''
  ) );
#1297 = ORIENTED_EDGE('',*,*,#1249,.F.);
#1298 = FACE_BOUND('',#1299,.F.);
#1299 = EDGE_LOOP('',(#1300));
#1300 = ORIENTED_EDGE('',*,*,#1301,.F.);
#1301 = EDGE_CURVE('',#1302,#1302,#1304,.T.);
#1302 = VERTEX_POINT('',#1303);
#1303 = CARTESIAN_POINT('',(1.3,21.915139938498,11.0000001));
#1304 = SURFACE_CURVE('',#1305,(#1350,#1398),.PCURVE_S1.);
#1305 = B_SPLINE_CURVE_WITH_KNOTS('',7,(#1306,#1307,#1308,#1309,#1310,
    #1311,#1312,#1313,#1314,#1315,#1316,#1317,#1318,#1319,#1320,#1321,
    #1322,#1323,#1324,#1325,#1326,#1327,#1328,#1329,#1330,#1331,#1332,
    #1333,#1334,#1335,#1336,#1337,#1338,#1339,#1340,#1341,#1342,#1343,
    #1344,#1345,#1346,#1347,#1348,#1349),.UNSPECIFIED.,.T.,.F.,(8,6,6,6,
    6,6,6,8),(0.,0.151353229696,0.286846057302,0.423978495562,
    0.586895034415,0.713503459703,0.839243466326,1.),.UNSPECIFIED.);
#1306 = CARTESIAN_POINT('',(1.3,21.915139938498,11.0000001));
#1307 = CARTESIAN_POINT('',(1.3,21.915139938498,11.156294175308));
#1308 = CARTESIAN_POINT('',(1.278078098044,21.918014069537,
    11.312629577963));
#1309 = CARTESIAN_POINT('',(1.234209735293,21.923766318893,
    11.466769893408));
#1310 = CARTESIAN_POINT('',(1.16793996159,21.932143101428,
    11.616260186937));
#1311 = CARTESIAN_POINT('',(1.078618745169,21.942612456038,
    11.758095640802));
#1312 = CARTESIAN_POINT('',(0.965576380834,21.954222239368,
    11.888392943783));
#1313 = CARTESIAN_POINT('',(0.706074471498,21.975800107088,
    12.103071593302));
#1314 = CARTESIAN_POINT('',(0.560882617843,21.986100956871,
    12.193709040564));
#1315 = CARTESIAN_POINT('',(0.396078740551,21.995098187516,
    12.26404060303));
#1316 = CARTESIAN_POINT('',(0.217560981129,22.00105528078,
    12.307574057797));
#1317 = CARTESIAN_POINT('',(3.292002334918E-02,22.002776167816,
    12.320885428732));
#1318 = CARTESIAN_POINT('',(-0.149786164093,22.000385070799,
    12.303708182517));
#1319 = CARTESIAN_POINT('',(-0.498907210687,21.989092193971,
    12.214069133265));
#1320 = CARTESIAN_POINT('',(-0.659866272531,21.980282090779,
    12.142284884356));
#1321 = CARTESIAN_POINT('',(-0.803079053133,21.969516817805,
    12.049163811616));
#1322 = CARTESIAN_POINT('',(-0.926821903235,21.958167129597,
    11.939456980805));
#1323 = CARTESIAN_POINT('',(-1.03021859601,21.947403505046,
    11.81757707226));
#1324 = CARTESIAN_POINT('',(-1.113154685411,21.938054474664,
    11.687651032916));
#1325 = CARTESIAN_POINT('',(-1.251263775702,21.921695477673,
    11.394154276351));
#1326 = CARTESIAN_POINT('',(-1.300300256044,21.915217255428,
    11.224567533986));
#1327 = CARTESIAN_POINT('',(-1.322491966275,21.912080708827,
    11.04904609766));
#1328 = CARTESIAN_POINT('',(-1.317297490979,21.912805388814,
    10.871795726596));
#1329 = CARTESIAN_POINT('',(-1.284612538228,21.91735214213,
    10.697139539066));
#1330 = CARTESIAN_POINT('',(-1.224870881036,21.925075695206,
    10.529557471452));
#1331 = CARTESIAN_POINT('',(-1.07261967356,21.942533785921,
    10.252613553163));
#1332 = CARTESIAN_POINT('',(-0.988934322847,21.951602244136,
    10.13597009752));
#1333 = CARTESIAN_POINT('',(-0.887750423483,21.961663990885,
    10.027090225182));
#1334 = CARTESIAN_POINT('',(-0.769331462082,21.971998604251,
    9.929433131305));
#1335 = CARTESIAN_POINT('',(-0.634572237494,21.981646841736,
    9.846601811633));
#1336 = CARTESIAN_POINT('',(-0.485043021413,21.989540653276,
    9.782371347957));
#1337 = CARTESIAN_POINT('',(-0.162660116842,21.999968642273,
    9.699597486735));
#1338 = CARTESIAN_POINT('',(6.388541017185E-03,22.002421008955,
    9.681677699238));
#1339 = CARTESIAN_POINT('',(0.177876183108,22.00137892266,9.68991679443)
  );
#1340 = CARTESIAN_POINT('',(0.345105083389,21.996673278335,
    9.724418909643));
#1341 = CARTESIAN_POINT('',(0.501684887647,21.98913073523,9.78272055886)
  );
#1342 = CARTESIAN_POINT('',(0.642390901763,21.9800921405,9.859836038985)
  );
#1343 = CARTESIAN_POINT('',(0.919750539705,21.958836367864,
    10.061349611501));
#1344 = CARTESIAN_POINT('',(1.048438131916,21.946123322422,
    10.19589526276));
#1345 = CARTESIAN_POINT('',(1.150056260182,21.934398088172,
    10.344787218513));
#1346 = CARTESIAN_POINT('',(1.225357009054,21.924927426618,
    10.503083753603));
#1347 = CARTESIAN_POINT('',(1.275137714327,21.918399493988,
    10.667012293802));
#1348 = CARTESIAN_POINT('',(1.3,21.915139938498,10.833553222049));
#1349 = CARTESIAN_POINT('',(1.3,21.915139938498,11.0000001));
#1350 = PCURVE('',#744,#1351);
#1351 = DEFINITIONAL_REPRESENTATION('',(#1352),#1397);
#1352 = B_SPLINE_CURVE_WITH_KNOTS('',7,(#1353,#1354,#1355,#1356,#1357,
    #1358,#1359,#1360,#1361,#1362,#1363,#1364,#1365,#1366,#1367,#1368,
    #1369,#1370,#1371,#1372,#1373,#1374,#1375,#1376,#1377,#1378,#1379,
    #1380,#1381,#1382,#1383,#1384,#1385,#1386,#1387,#1388,#1389,#1390,
    #1391,#1392,#1393,#1394,#1395,#1396),.UNSPECIFIED.,.T.,.F.,(8,6,6,6,
    6,6,6,8),(0.,0.151353229696,0.286846057302,0.423978495562,
    0.586895034415,0.713503459703,0.839243466326,1.),.UNSPECIFIED.);
#1353 = CARTESIAN_POINT('',(-1.440427347092,-6.));
#1354 = CARTESIAN_POINT('',(-1.440427347092,-6.156294075308));
#1355 = CARTESIAN_POINT('',(-1.442638299878,-6.312629477963));
#1356 = CARTESIAN_POINT('',(-1.447062679985,-6.466769793408));
#1357 = CARTESIAN_POINT('',(-1.453742337499,-6.616260086937));
#1358 = CARTESIAN_POINT('',(-1.462734745524,-6.758095540802));
#1359 = CARTESIAN_POINT('',(-1.474096306268,-6.888392843783));
#1360 = CARTESIAN_POINT('',(-1.500136053833,-7.103071493302));
#1361 = CARTESIAN_POINT('',(-1.514690628489,-7.193708940564));
#1362 = CARTESIAN_POINT('',(-1.531192121979,-7.26404050303));
#1363 = CARTESIAN_POINT('',(-1.549045424958,-7.307573957797));
#1364 = CARTESIAN_POINT('',(-1.567502669251,-7.320885328732));
#1365 = CARTESIAN_POINT('',(-1.585771502875,-7.303708082517));
#1366 = CARTESIAN_POINT('',(-1.620701867064,-7.214069033265));
#1367 = CARTESIAN_POINT('',(-1.63681783717,-7.142284784356));
#1368 = CARTESIAN_POINT('',(-1.651175319004,-7.049163711617));
#1369 = CARTESIAN_POINT('',(-1.663599729522,-6.939456880805));
#1370 = CARTESIAN_POINT('',(-1.673994616956,-6.81757697226));
#1371 = CARTESIAN_POINT('',(-1.682340625983,-6.687650932916));
#1372 = CARTESIAN_POINT('',(-1.696248083552,-6.394154176351));
#1373 = CARTESIAN_POINT('',(-1.701193885479,-6.224567433986));
#1374 = CARTESIAN_POINT('',(-1.703435278322,-6.04904599766));
#1375 = CARTESIAN_POINT('',(-1.702910756483,-5.871795626597));
#1376 = CARTESIAN_POINT('',(-1.699610661333,-5.697139439066));
#1377 = CARTESIAN_POINT('',(-1.693587407345,-5.529557371452));
#1378 = CARTESIAN_POINT('',(-1.678262520687,-5.252613453163));
#1379 = CARTESIAN_POINT('',(-1.669845154879,-5.13596999752));
#1380 = CARTESIAN_POINT('',(-1.659677535673,-5.027090125182));
#1381 = CARTESIAN_POINT('',(-1.647792350711,-4.929433031305));
#1382 = CARTESIAN_POINT('',(-1.634285346486,-4.846601711633));
#1383 = CARTESIAN_POINT('',(-1.61931472302,-4.782371247957));
#1384 = CARTESIAN_POINT('',(-1.587059571476,-4.699597386735));
#1385 = CARTESIAN_POINT('',(-1.570155594792,-4.681677599238));
#1386 = CARTESIAN_POINT('',(-1.553012481358,-4.68991669443));
#1387 = CARTESIAN_POINT('',(-1.536289802381,-4.724418809643));
#1388 = CARTESIAN_POINT('',(-1.520616885657,-4.78272045886));
#1389 = CARTESIAN_POINT('',(-1.506518375593,-4.859835938985));
#1390 = CARTESIAN_POINT('',(-1.478701083017,-5.061349511501));
#1391 = CARTESIAN_POINT('',(-1.465772810523,-5.19589516276));
#1392 = CARTESIAN_POINT('',(-1.455544867299,-5.344787118513));
#1393 = CARTESIAN_POINT('',(-1.447955523979,-5.503083653603));
#1394 = CARTESIAN_POINT('',(-1.442934856238,-5.667012193802));
#1395 = CARTESIAN_POINT('',(-1.440427347092,-5.833553122049));
#1396 = CARTESIAN_POINT('',(-1.440427347092,-6.));
#1397 = ( GEOMETRIC_REPRESENTATION_CONTEXT(2) 
PARAMETRIC_REPRESENTATION_CONTEXT() REPRESENTATION_CONTEXT('2D SPACE',''
  ) );
#1398 = PCURVE('',#985,#1399);
#1399 = DEFINITIONAL_REPRESENTATION('',(#1400),#1445);
#1400 = B_SPLINE_CURVE_WITH_KNOTS('',7,(#1401,#1402,#1403,#1404,#1405,
    #1406,#1407,#1408,#1409,#1410,#1411,#1412,#1413,#1414,#1415,#1416,
    #1417,#1418,#1419,#1420,#1421,#1422,#1423,#1424,#1425,#1426,#1427,
    #1428,#1429,#1430,#1431,#1432,#1433,#1434,#1435,#1436,#1437,#1438,
    #1439,#1440,#1441,#1442,#1443,#1444),.UNSPECIFIED.,.F.,.F.,(8,6,6,6,
    6,6,6,8),(0.,0.151353229696,0.286846057302,0.423978495562,
    0.586895034415,0.713503459703,0.839243466326,1.),.UNSPECIFIED.);
#1401 = CARTESIAN_POINT('',(0.,-9.915139938498));
#1402 = CARTESIAN_POINT('',(0.120226211775,-9.915139938498));
#1403 = CARTESIAN_POINT('',(0.24048372514,-9.918014069537));
#1404 = CARTESIAN_POINT('',(0.361893828341,-9.923766318893));
#1405 = CARTESIAN_POINT('',(0.485403986855,-9.932143101428));
#1406 = CARTESIAN_POINT('',(0.612059512908,-9.942612456038));
#1407 = CARTESIAN_POINT('',(0.742948652701,-9.954222239368));
#1408 = CARTESIAN_POINT('',(1.002018636515,-9.975800107088));
#1409 = CARTESIAN_POINT('',(1.132517117606,-9.986100956871));
#1410 = CARTESIAN_POINT('',(1.267669431848,-9.995098187516));
#1411 = CARTESIAN_POINT('',(1.405611389216,-10.00105528078));
#1412 = CARTESIAN_POINT('',(1.544911691869,-10.00277616781));
#1413 = CARTESIAN_POINT('',(1.684324770138,-10.00038507079));
#1414 = CARTESIAN_POINT('',(1.9615902255,-9.989092193971));
#1415 = CARTESIAN_POINT('',(2.095247934502,-9.980282090779));
#1416 = CARTESIAN_POINT('',(2.224191936169,-9.969516817805));
#1417 = CARTESIAN_POINT('',(2.3490189189,-9.958167129597));
#1418 = CARTESIAN_POINT('',(2.470139430506,-9.947403505046));
#1419 = CARTESIAN_POINT('',(2.587733564088,-9.938054474664));
#1420 = CARTESIAN_POINT('',(2.837247253144,-9.921695477673));
#1421 = CARTESIAN_POINT('',(2.97134382805,-9.915217255428));
#1422 = CARTESIAN_POINT('',(3.104839318905,-9.912080708827));
#1423 = CARTESIAN_POINT('',(3.238322509125,-9.912805388814));
#1424 = CARTESIAN_POINT('',(3.372349065717,-9.91735214213));
#1425 = CARTESIAN_POINT('',(3.507452071037,-9.925075695206));
#1426 = CARTESIAN_POINT('',(3.750556212715,-9.942533785921));
#1427 = CARTESIAN_POINT('',(3.860195287897,-9.951602244136));
#1428 = CARTESIAN_POINT('',(3.973049750188,-9.961663990885));
#1429 = CARTESIAN_POINT('',(4.08919924984,-9.971998604251));
#1430 = CARTESIAN_POINT('',(4.208909341126,-9.981646841736));
#1431 = CARTESIAN_POINT('',(4.332605763475,-9.989540653276));
#1432 = CARTESIAN_POINT('',(4.588636282714,-9.999968642273));
#1433 = CARTESIAN_POINT('',(4.718015884501,-10.00242100895));
#1434 = CARTESIAN_POINT('',(4.847602813649,-10.00137892266));
#1435 = CARTESIAN_POINT('',(4.976199124403,-9.996673278335));
#1436 = CARTESIAN_POINT('',(5.102532124726,-9.989130735231));
#1437 = CARTESIAN_POINT('',(5.224964077487,-9.9800921405));
#1438 = CARTESIAN_POINT('',(5.488683590341,-9.958836367864));
#1439 = CARTESIAN_POINT('',(5.629603212501,-9.946123322422));
#1440 = CARTESIAN_POINT('',(5.765449414113,-9.934398088172));
#1441 = CARTESIAN_POINT('',(5.897510690718,-9.924927426618));
#1442 = CARTESIAN_POINT('',(6.027041688943,-9.918399493988));
#1443 = CARTESIAN_POINT('',(6.155149247217,-9.915139938498));
#1444 = CARTESIAN_POINT('',(6.28318530718,-9.915139938498));
#1445 = ( GEOMETRIC_REPRESENTATION_CONTEXT(2) 
PARAMETRIC_REPRESENTATION_CONTEXT() REPRESENTATION_CONTEXT('2D SPACE',''
  ) );
#1446 = ADVANCED_FACE('',(#1447,#1450),#854,.F.);
#1447 = FACE_BOUND('',#1448,.T.);
#1448 = EDGE_LOOP('',(#1449));
#1449 = ORIENTED_EDGE('',*,*,#1272,.T.);
#1450 = FACE_BOUND('',#1451,.T.);
#1451 = EDGE_LOOP('',(#1452));
#1452 = ORIENTED_EDGE('',*,*,#839,.F.);
#1453 = ADVANCED_FACE('',(#1454),#985,.F.);
#1454 = FACE_BOUND('',#1455,.F.);
#1455 = EDGE_LOOP('',(#1456,#1457,#1478,#1479));
#1456 = ORIENTED_EDGE('',*,*,#873,.F.);
#1457 = ORIENTED_EDGE('',*,*,#1458,.T.);
#1458 = EDGE_CURVE('',#874,#1302,#1459,.T.);
#1459 = SEAM_CURVE('',#1460,(#1464,#1471),.PCURVE_S1.);
#1460 = LINE('',#1461,#1462);
#1461 = CARTESIAN_POINT('',(1.3,12.,11.0000001));
#1462 = VECTOR('',#1463,1.);
#1463 = DIRECTION('',(0.,1.,1.110223024625E-16));
#1464 = PCURVE('',#985,#1465);
#1465 = DEFINITIONAL_REPRESENTATION('',(#1466),#1470);
#1466 = LINE('',#1467,#1468);
#1467 = CARTESIAN_POINT('',(6.28318530718,0.));
#1468 = VECTOR('',#1469,1.);
#1469 = DIRECTION('',(0.,-1.));
#1470 = ( GEOMETRIC_REPRESENTATION_CONTEXT(2) 
PARAMETRIC_REPRESENTATION_CONTEXT() REPRESENTATION_CONTEXT('2D SPACE',''
  ) );
#1471 = PCURVE('',#985,#1472);
#1472 = DEFINITIONAL_REPRESENTATION('',(#1473),#1477);
#1473 = LINE('',#1474,#1475);
#1474 = CARTESIAN_POINT('',(0.,0.));
#1475 = VECTOR('',#1476,1.);
#1476 = DIRECTION('',(0.,-1.));
#1477 = ( GEOMETRIC_REPRESENTATION_CONTEXT(2) 
PARAMETRIC_REPRESENTATION_CONTEXT() REPRESENTATION_CONTEXT('2D SPACE',''
  ) );
#1478 = ORIENTED_EDGE('',*,*,#1301,.T.);
#1479 = ORIENTED_EDGE('',*,*,#1458,.F.);
#1480 = ( GEOMETRIC_REPRESENTATION_CONTEXT(3) 
GLOBAL_UNCERTAINTY_ASSIGNED_CONTEXT((#1484)) 
GLOBAL_UNIT_ASSIGNED_CONTEXT((#1481,#1482,#1483)) REPRESENTATION_CONTEXT
('Context #1','3D Context with UNIT and UNCERTAINTY') );
#1481 = ( LENGTH_UNIT() NAMED_UNIT(*) SI_UNIT(.MILLI.,.METRE.) );
#1482 = ( NAMED_UNIT(*) PLANE_ANGLE_UNIT() SI_UNIT($,.RADIAN.) );
#1483 = ( NAMED_UNIT(*) SI_UNIT($,.STERADIAN.) SOLID_ANGLE_UNIT() );
#1484 = UNCERTAINTY_MEASURE_WITH_UNIT(LENGTH_MEASURE(1.E-07),#1481,
  'distance_accuracy_value','confusion accuracy');
#1485 = PRODUCT_RELATED_PRODUCT_CATEGORY('part',$,(#7));
ENDSEC;
END-ISO-10303-21;
