ISO-10303-21;
HEADER;
FILE_DESCRIPTION(('Open CASCADE Model'),'2;1');
FILE_NAME('Open CASCADE Shape Model','2026-10-08T14:08:48',('Author'),(
    'Open CASCADE'),'Open CASCADE STEP processor 7.9','Open CASCADE 7.9'
  ,'Unknown');
FILE_SCHEMA(('AUTOMOTIVE_DESIGN { 1 0 10303 214 1 1 1 1 }'));
ENDSEC;
DATA;
#1 = APPLICATION_PROTOCOL_DEFINITION('international standard',
  'automotive_design',2000,#2);
#2 = APPLICATION_CONTEXT(
  'core data for automotive mechanical design processes');
#3 = SHAPE_DEFINITION_REPRESENTATION(#4,#10);
#4 = PRODUCT_DEFINITION_SHAPE('','',#5);
#5 = PRODUCT_DEFINITION('design','',#6,#9);
#6 = PRODUCT_DEFINITION_FORMATION('','',#7);
#7 = PRODUCT('Open CASCADE STEP translator 7.9 18',
  'Open CASCADE STEP translator 7.9 18','',(#8));
#8 = PRODUCT_CONTEXT('',#2,'mechanical');
#9 = PRODUCT_DEFINITION_CONTEXT('part definition',#2,'design');
#10 = ADVANCED_BREP_SHAPE_REPRESENTATION('',(#11,#15),#761);
#11 = AXIS2_PLACEMENT_3D('',#12,#13,#14);
#12 = CARTESIAN_POINT('',(0.,0.,0.));
#13 = DIRECTION('',(0.,0.,1.));
#14 = DIRECTION('',(1.,0.,-0.));
#15 = MANIFOLD_SOLID_BREP('',#16);
#16 = CLOSED_SHELL('',(#17,#105,#160,#199,#203,#678,#730,#734));
#17 = ADVANCED_FACE('',(#18),#32,.T.);
#18 = FACE_BOUND('',#19,.F.);
#19 = EDGE_LOOP('',(#20,#50,#77,#78));
#20 = ORIENTED_EDGE('',*,*,#21,.T.);
#21 = EDGE_CURVE('',#22,#24,#26,.T.);
#22 = VERTEX_POINT('',#23);
#23 = CARTESIAN_POINT('',(13.,0.,0.8));
#24 = VERTEX_POINT('',#25);
#25 = CARTESIAN_POINT('',(13.,0.,8.));
#26 = SEAM_CURVE('',#27,(#31,#43),.PCURVE_S1.);
#27 = LINE('',#28,#29);
#28 = CARTESIAN_POINT('',(13.,0.,0.));
#29 = VECTOR('',#30,1.);
#30 = DIRECTION('',(0.,0.,1.));
#31 = PCURVE('',#32,#37);
#32 = CYLINDRICAL_SURFACE('',#33,13.);
#33 = AXIS2_PLACEMENT_3D('',#34,#35,#36);
#34 = CARTESIAN_POINT('',(0.,0.,0.));
#35 = DIRECTION('',(-0.,-0.,-1.));
#36 = DIRECTION('',(1.,0.,0.));
#37 = DEFINITIONAL_REPRESENTATION('',(#38),#42);
#38 = LINE('',#39,#40);
#39 = CARTESIAN_POINT('',(-0.,0.));
#40 = VECTOR('',#41,1.);
#41 = DIRECTION('',(-0.,-1.));
#42 = ( GEOMETRIC_REPRESENTATION_CONTEXT(2) 
PARAMETRIC_REPRESENTATION_CONTEXT() REPRESENTATION_CONTEXT('2D SPACE',''
  ) );
#43 = PCURVE('',#32,#44);
#44 = DEFINITIONAL_REPRESENTATION('',(#45),#49);
#45 = LINE('',#46,#47);
#46 = CARTESIAN_POINT('',(-6.28318530718,0.));
#47 = VECTOR('',#48,1.);
#48 = DIRECTION('',(-0.,-1.));
#49 = ( GEOMETRIC_REPRESENTATION_CONTEXT(2) 
PARAMETRIC_REPRESENTATION_CONTEXT() REPRESENTATION_CONTEXT('2D SPACE',''
  ) );
#50 = ORIENTED_EDGE('',*,*,#51,.T.);
#51 = EDGE_CURVE('',#24,#24,#52,.T.);
#52 = SURFACE_CURVE('',#53,(#58,#65),.PCURVE_S1.);
#53 = CIRCLE('',#54,13.);
#54 = AXIS2_PLACEMENT_3D('',#55,#56,#57);
#55 = CARTESIAN_POINT('',(0.,0.,8.));
#56 = DIRECTION('',(0.,0.,1.));
#57 = DIRECTION('',(1.,0.,0.));
#58 = PCURVE('',#32,#59);
#59 = DEFINITIONAL_REPRESENTATION('',(#60),#64);
#60 = LINE('',#61,#62);
#61 = CARTESIAN_POINT('',(-0.,-8.));
#62 = VECTOR('',#63,1.);
#63 = DIRECTION('',(-1.,0.));
#64 = ( GEOMETRIC_REPRESENTATION_CONTEXT(2) 
PARAMETRIC_REPRESENTATION_CONTEXT() REPRESENTATION_CONTEXT('2D SPACE',''
  ) );
#65 = PCURVE('',#66,#71);
#66 = PLANE('',#67);
#67 = AXIS2_PLACEMENT_3D('',#68,#69,#70);
#68 = CARTESIAN_POINT('',(-4.207508100121E-16,1.152322960418E-15,8.));
#69 = DIRECTION('',(0.,0.,1.));
#70 = DIRECTION('',(1.,0.,-0.));
#71 = DEFINITIONAL_REPRESENTATION('',(#72),#76);
#72 = CIRCLE('',#73,13.);
#73 = AXIS2_PLACEMENT_2D('',#74,#75);
#74 = CARTESIAN_POINT('',(4.207508100121E-16,-1.152322960418E-15));
#75 = DIRECTION('',(1.,0.));
#76 = ( GEOMETRIC_REPRESENTATION_CONTEXT(2) 
PARAMETRIC_REPRESENTATION_CONTEXT() REPRESENTATION_CONTEXT('2D SPACE',''
  ) );
#77 = ORIENTED_EDGE('',*,*,#21,.F.);
#78 = ORIENTED_EDGE('',*,*,#79,.F.);
#79 = EDGE_CURVE('',#22,#22,#80,.T.);
#80 = SURFACE_CURVE('',#81,(#86,#93),.PCURVE_S1.);
#81 = CIRCLE('',#82,13.);
#82 = AXIS2_PLACEMENT_3D('',#83,#84,#85);
#83 = CARTESIAN_POINT('',(0.,0.,0.8));
#84 = DIRECTION('',(0.,0.,1.));
#85 = DIRECTION('',(1.,0.,-0.));
#86 = PCURVE('',#32,#87);
#87 = DEFINITIONAL_REPRESENTATION('',(#88),#92);
#88 = LINE('',#89,#90);
#89 = CARTESIAN_POINT('',(-0.,-0.8));
#90 = VECTOR('',#91,1.);
#91 = DIRECTION('',(-1.,0.));
#92 = ( GEOMETRIC_REPRESENTATION_CONTEXT(2) 
PARAMETRIC_REPRESENTATION_CONTEXT() REPRESENTATION_CONTEXT('2D SPACE',''
  ) );
#93 = PCURVE('',#94,#99);
#94 = CONICAL_SURFACE('',#95,13.,0.785398163397);
#95 = AXIS2_PLACEMENT_3D('',#96,#97,#98);
#96 = CARTESIAN_POINT('',(0.,0.,0.8));
#97 = DIRECTION('',(0.,0.,1.));
#98 = DIRECTION('',(1.,0.,-0.));
#99 = DEFINITIONAL_REPRESENTATION('',(#100),#104);
#100 = LINE('',#101,#102);
#101 = CARTESIAN_POINT('',(0.,-0.));
#102 = VECTOR('',#103,1.);
#103 = DIRECTION('',(1.,-0.));
#104 = ( GEOMETRIC_REPRESENTATION_CONTEXT(2) 
PARAMETRIC_REPRESENTATION_CONTEXT() REPRESENTATION_CONTEXT('2D SPACE',''
  ) );
#105 = ADVANCED_FACE('',(#106),#94,.T.);
#106 = FACE_BOUND('',#107,.F.);
#107 = EDGE_LOOP('',(#108,#131,#132,#133));
#108 = ORIENTED_EDGE('',*,*,#109,.F.);
#109 = EDGE_CURVE('',#22,#110,#112,.T.);
#110 = VERTEX_POINT('',#111);
#111 = CARTESIAN_POINT('',(12.2,0.,0.));
#112 = SEAM_CURVE('',#113,(#117,#124),.PCURVE_S1.);
#113 = LINE('',#114,#115);
#114 = CARTESIAN_POINT('',(13.,0.,0.8));
#115 = VECTOR('',#116,1.);
#116 = DIRECTION('',(-0.707106781187,-0.,-0.707106781187));
#117 = PCURVE('',#94,#118);
#118 = DEFINITIONAL_REPRESENTATION('',(#119),#123);
#119 = LINE('',#120,#121);
#120 = CARTESIAN_POINT('',(0.,-0.));
#121 = VECTOR('',#122,1.);
#122 = DIRECTION('',(0.,-1.));
#123 = ( GEOMETRIC_REPRESENTATION_CONTEXT(2) 
PARAMETRIC_REPRESENTATION_CONTEXT() REPRESENTATION_CONTEXT('2D SPACE',''
  ) );
#124 = PCURVE('',#94,#125);
#125 = DEFINITIONAL_REPRESENTATION('',(#126),#130);
#126 = LINE('',#127,#128);
#127 = CARTESIAN_POINT('',(6.28318530718,-0.));
#128 = VECTOR('',#129,1.);
#129 = DIRECTION('',(0.,-1.));
#130 = ( GEOMETRIC_REPRESENTATION_CONTEXT(2) 
PARAMETRIC_REPRESENTATION_CONTEXT() REPRESENTATION_CONTEXT('2D SPACE',''
  ) );
#131 = ORIENTED_EDGE('',*,*,#79,.T.);
#132 = ORIENTED_EDGE('',*,*,#109,.T.);
#133 = ORIENTED_EDGE('',*,*,#134,.F.);
#134 = EDGE_CURVE('',#110,#110,#135,.T.);
#135 = SURFACE_CURVE('',#136,(#141,#148),.PCURVE_S1.);
#136 = CIRCLE('',#137,12.2);
#137 = AXIS2_PLACEMENT_3D('',#138,#139,#140);
#138 = CARTESIAN_POINT('',(0.,0.,0.));
#139 = DIRECTION('',(0.,0.,1.));
#140 = DIRECTION('',(1.,0.,-0.));
#141 = PCURVE('',#94,#142);
#142 = DEFINITIONAL_REPRESENTATION('',(#143),#147);
#143 = LINE('',#144,#145);
#144 = CARTESIAN_POINT('',(0.,-0.8));
#145 = VECTOR('',#146,1.);
#146 = DIRECTION('',(1.,-0.));
#147 = ( GEOMETRIC_REPRESENTATION_CONTEXT(2) 
PARAMETRIC_REPRESENTATION_CONTEXT() REPRESENTATION_CONTEXT('2D SPACE',''
  ) );
#148 = PCURVE('',#149,#154);
#149 = PLANE('',#150);
#150 = AXIS2_PLACEMENT_3D('',#151,#152,#153);
#151 = CARTESIAN_POINT('',(-4.207508100121E-16,1.152322960418E-15,0.));
#152 = DIRECTION('',(0.,0.,1.));
#153 = DIRECTION('',(1.,0.,-0.));
#154 = DEFINITIONAL_REPRESENTATION('',(#155),#159);
#155 = CIRCLE('',#156,12.2);
#156 = AXIS2_PLACEMENT_2D('',#157,#158);
#157 = CARTESIAN_POINT('',(4.207508100121E-16,-1.152322960418E-15));
#158 = DIRECTION('',(1.,0.));
#159 = ( GEOMETRIC_REPRESENTATION_CONTEXT(2) 
PARAMETRIC_REPRESENTATION_CONTEXT() REPRESENTATION_CONTEXT('2D SPACE',''
  ) );
#160 = ADVANCED_FACE('',(#161,#164),#66,.T.);
#161 = FACE_BOUND('',#162,.T.);
#162 = EDGE_LOOP('',(#163));
#163 = ORIENTED_EDGE('',*,*,#51,.T.);
#164 = FACE_BOUND('',#165,.T.);
#165 = EDGE_LOOP('',(#166));
#166 = ORIENTED_EDGE('',*,*,#167,.T.);
#167 = EDGE_CURVE('',#168,#168,#170,.T.);
#168 = VERTEX_POINT('',#169);
#169 = CARTESIAN_POINT('',(4.85,0.,8.));
#170 = SURFACE_CURVE('',#171,(#176,#187),.PCURVE_S1.);
#171 = CIRCLE('',#172,4.85);
#172 = AXIS2_PLACEMENT_3D('',#173,#174,#175);
#173 = CARTESIAN_POINT('',(0.,0.,8.));
#174 = DIRECTION('',(0.,0.,-1.));
#175 = DIRECTION('',(1.,0.,0.));
#176 = PCURVE('',#66,#177);
#177 = DEFINITIONAL_REPRESENTATION('',(#178),#186);
#178 = ( BOUNDED_CURVE() B_SPLINE_CURVE(2,(#179,#180,#181,#182,#183,#184
,#185),.UNSPECIFIED.,.T.,.F.) B_SPLINE_CURVE_WITH_KNOTS((1,2,2,2,2,1),(
    -2.094395102393,0.,2.094395102393,4.188790204786,6.28318530718,
8.377580409573),.UNSPECIFIED.) CURVE() GEOMETRIC_REPRESENTATION_ITEM() 
RATIONAL_B_SPLINE_CURVE((1.,0.5,1.,0.5,1.,0.5,1.)) REPRESENTATION_ITEM(
  '') );
#179 = CARTESIAN_POINT('',(4.85,-1.152322960418E-15));
#180 = CARTESIAN_POINT('',(4.85,-8.400446416709));
#181 = CARTESIAN_POINT('',(-2.425,-4.200223208355));
#182 = CARTESIAN_POINT('',(-9.7,-2.340230355591E-15));
#183 = CARTESIAN_POINT('',(-2.425,4.200223208355));
#184 = CARTESIAN_POINT('',(4.85,8.400446416709));
#185 = CARTESIAN_POINT('',(4.85,-1.152322960418E-15));
#186 = ( GEOMETRIC_REPRESENTATION_CONTEXT(2) 
PARAMETRIC_REPRESENTATION_CONTEXT() REPRESENTATION_CONTEXT('2D SPACE',''
  ) );
#187 = PCURVE('',#188,#193);
#188 = CYLINDRICAL_SURFACE('',#189,4.85);
#189 = AXIS2_PLACEMENT_3D('',#190,#191,#192);
#190 = CARTESIAN_POINT('',(0.,0.,0.));
#191 = DIRECTION('',(-0.,-0.,-1.));
#192 = DIRECTION('',(1.,0.,0.));
#193 = DEFINITIONAL_REPRESENTATION('',(#194),#198);
#194 = LINE('',#195,#196);
#195 = CARTESIAN_POINT('',(-6.28318530718,-8.));
#196 = VECTOR('',#197,1.);
#197 = DIRECTION('',(1.,-0.));
#198 = ( GEOMETRIC_REPRESENTATION_CONTEXT(2) 
PARAMETRIC_REPRESENTATION_CONTEXT() REPRESENTATION_CONTEXT('2D SPACE',''
  ) );
#199 = ADVANCED_FACE('',(#200),#149,.F.);
#200 = FACE_BOUND('',#201,.F.);
#201 = EDGE_LOOP('',(#202));
#202 = ORIENTED_EDGE('',*,*,#134,.T.);
#203 = ADVANCED_FACE('',(#204,#489),#188,.T.);
#204 = FACE_BOUND('',#205,.F.);
#205 = EDGE_LOOP('',(#206,#229,#230,#231,#292,#348,#371,#398,#399));
#206 = ORIENTED_EDGE('',*,*,#207,.F.);
#207 = EDGE_CURVE('',#168,#208,#210,.T.);
#208 = VERTEX_POINT('',#209);
#209 = CARTESIAN_POINT('',(4.85,0.,44.));
#210 = SEAM_CURVE('',#211,(#215,#222),.PCURVE_S1.);
#211 = LINE('',#212,#213);
#212 = CARTESIAN_POINT('',(4.85,0.,0.));
#213 = VECTOR('',#214,1.);
#214 = DIRECTION('',(0.,0.,1.));
#215 = PCURVE('',#188,#216);
#216 = DEFINITIONAL_REPRESENTATION('',(#217),#221);
#217 = LINE('',#218,#219);
#218 = CARTESIAN_POINT('',(-6.28318530718,0.));
#219 = VECTOR('',#220,1.);
#220 = DIRECTION('',(-0.,-1.));
#221 = ( GEOMETRIC_REPRESENTATION_CONTEXT(2) 
PARAMETRIC_REPRESENTATION_CONTEXT() REPRESENTATION_CONTEXT('2D SPACE',''
  ) );
#222 = PCURVE('',#188,#223);
#223 = DEFINITIONAL_REPRESENTATION('',(#224),#228);
#224 = LINE('',#225,#226);
#225 = CARTESIAN_POINT('',(-0.,0.));
#226 = VECTOR('',#227,1.);
#227 = DIRECTION('',(-0.,-1.));
#228 = ( GEOMETRIC_REPRESENTATION_CONTEXT(2) 
PARAMETRIC_REPRESENTATION_CONTEXT() REPRESENTATION_CONTEXT('2D SPACE',''
  ) );
#229 = ORIENTED_EDGE('',*,*,#167,.T.);
#230 = ORIENTED_EDGE('',*,*,#207,.T.);
#231 = ORIENTED_EDGE('',*,*,#232,.T.);
#232 = EDGE_CURVE('',#208,#233,#235,.T.);
#233 = VERTEX_POINT('',#234);
#234 = CARTESIAN_POINT('',(4.745787605867,1.,45.));
#235 = SURFACE_CURVE('',#236,(#251,#269),.PCURVE_S1.);
#236 = B_SPLINE_CURVE_WITH_KNOTS('',7,(#237,#238,#239,#240,#241,#242,
    #243,#244,#245,#246,#247,#248,#249,#250),.UNSPECIFIED.,.F.,.F.,(8,6,
    8),(0.,0.46770311873,1.),.UNSPECIFIED.);
#237 = CARTESIAN_POINT('',(4.85,-9.184850993605E-17,44.));
#238 = CARTESIAN_POINT('',(4.85,0.117912452351,44.));
#239 = CARTESIAN_POINT('',(4.846655453008,0.234388049019,44.016220508001
    ));
#240 = CARTESIAN_POINT('',(4.84011379949,0.346596585048,44.047950374929)
  );
#241 = CARTESIAN_POINT('',(4.830983637292,0.451916986585,44.093811267245
    ));
#242 = CARTESIAN_POINT('',(4.82026162891,0.54809987702,44.151789076661)
  );
#243 = CARTESIAN_POINT('',(4.809031615596,0.633449411336,44.219235848963
    ));
#244 = CARTESIAN_POINT('',(4.785822707834,0.790936857754,44.376723295381
    ));
#245 = CARTESIAN_POINT('',(4.773776422239,0.860831934276,44.469807733548
    ));
#246 = CARTESIAN_POINT('',(4.76308803058,0.91662873868,44.569653807017)
  );
#247 = CARTESIAN_POINT('',(4.754560842909,0.958364442559,44.674252243371
    ));
#248 = CARTESIAN_POINT('',(4.748710920155,0.986126478711,44.781870651494
    ));
#249 = CARTESIAN_POINT('',(4.745787605867,1.,44.890951173218));
#250 = CARTESIAN_POINT('',(4.745787605867,1.,45.));
#251 = PCURVE('',#188,#252);
#252 = DEFINITIONAL_REPRESENTATION('',(#253),#268);
#253 = B_SPLINE_CURVE_WITH_KNOTS('',7,(#254,#255,#256,#257,#258,#259,
    #260,#261,#262,#263,#264,#265,#266,#267),.UNSPECIFIED.,.F.,.F.,(8,6,
    8),(0.,0.46770311873,1.),.UNSPECIFIED.);
#254 = CARTESIAN_POINT('',(0.,-44.));
#255 = CARTESIAN_POINT('',(-2.431184584564E-02,-44.));
#256 = CARTESIAN_POINT('',(-4.832745385685E-02,-44.016220508));
#257 = CARTESIAN_POINT('',(-7.148659188492E-02,-44.04795037492));
#258 = CARTESIAN_POINT('',(-9.327029382608E-02,-44.09381126724));
#259 = CARTESIAN_POINT('',(-0.113218239771,-44.15178907666));
#260 = CARTESIAN_POINT('',(-0.130965609938,-44.21923584896));
#261 = CARTESIAN_POINT('',(-0.163787962062,-44.37672329538));
#262 = CARTESIAN_POINT('',(-0.17840744777,-44.46980773354));
#263 = CARTESIAN_POINT('',(-0.190119049799,-44.56965380701));
#264 = CARTESIAN_POINT('',(-0.198902003715,-44.67425224337));
#265 = CARTESIAN_POINT('',(-0.204751817381,-44.78187065149));
#266 = CARTESIAN_POINT('',(-0.207675153723,-44.89095117321));
#267 = CARTESIAN_POINT('',(-0.207675153723,-45.));
#268 = ( GEOMETRIC_REPRESENTATION_CONTEXT(2) 
PARAMETRIC_REPRESENTATION_CONTEXT() REPRESENTATION_CONTEXT('2D SPACE',''
  ) );
#269 = PCURVE('',#270,#275);
#270 = CYLINDRICAL_SURFACE('',#271,1.);
#271 = AXIS2_PLACEMENT_3D('',#272,#273,#274);
#272 = CARTESIAN_POINT('',(0.,0.,45.));
#273 = DIRECTION('',(-1.,-0.,-0.));
#274 = DIRECTION('',(0.,1.,0.));
#275 = DEFINITIONAL_REPRESENTATION('',(#276),#291);
#276 = B_SPLINE_CURVE_WITH_KNOTS('',7,(#277,#278,#279,#280,#281,#282,
    #283,#284,#285,#286,#287,#288,#289,#290),.UNSPECIFIED.,.F.,.F.,(8,6,
    8),(0.,0.46770311873,1.),.UNSPECIFIED.);
#277 = CARTESIAN_POINT('',(-4.712388980385,-4.85));
#278 = CARTESIAN_POINT('',(-4.830301432736,-4.85));
#279 = CARTESIAN_POINT('',(-4.946776974359,-4.846655453008));
#280 = CARTESIAN_POINT('',(-5.061663416903,-4.84011379949));
#281 = CARTESIAN_POINT('',(-5.174722574522,-4.830983637292));
#282 = CARTESIAN_POINT('',(-5.285576552204,-4.82026162891));
#283 = CARTESIAN_POINT('',(-5.39361989237,-4.809031615596));
#284 = CARTESIAN_POINT('',(-5.616340774999,-4.785822707834));
#285 = CARTESIAN_POINT('',(-5.731584804241,-4.773776422239));
#286 = CARTESIAN_POINT('',(-5.844361813296,-4.76308803058));
#287 = CARTESIAN_POINT('',(-5.955319159096,-4.754560842909));
#288 = CARTESIAN_POINT('',(-6.065056052925,-4.748710920155));
#289 = CARTESIAN_POINT('',(-6.174136480398,-4.745787605867));
#290 = CARTESIAN_POINT('',(-6.28318530718,-4.745787605867));
#291 = ( GEOMETRIC_REPRESENTATION_CONTEXT(2) 
PARAMETRIC_REPRESENTATION_CONTEXT() REPRESENTATION_CONTEXT('2D SPACE',''
  ) );
#292 = ORIENTED_EDGE('',*,*,#293,.T.);
#293 = EDGE_CURVE('',#233,#294,#296,.T.);
#294 = VERTEX_POINT('',#295);
#295 = CARTESIAN_POINT('',(4.85,0.,46.));
#296 = SURFACE_CURVE('',#297,(#312,#330),.PCURVE_S1.);
#297 = B_SPLINE_CURVE_WITH_KNOTS('',7,(#298,#299,#300,#301,#302,#303,
    #304,#305,#306,#307,#308,#309,#310,#311),.UNSPECIFIED.,.F.,.F.,(8,6,
    8),(0.,0.472194229331,1.),.UNSPECIFIED.);
#298 = CARTESIAN_POINT('',(4.745787605867,1.,45.));
#299 = CARTESIAN_POINT('',(4.745787605867,1.,45.096560623249));
#300 = CARTESIAN_POINT('',(4.74807987192,0.98912204174,45.193133391114)
  );
#301 = CARTESIAN_POINT('',(4.752664707135,0.967361106921,45.288681181165
    ));
#302 = CARTESIAN_POINT('',(4.759390018862,0.934668875842,45.382136005296
    ));
#303 = CARTESIAN_POINT('',(4.767938671278,0.8909802756,45.472337513985)
  );
#304 = CARTESIAN_POINT('',(4.777825449037,0.836252034513,45.557959441171
    ));
#305 = CARTESIAN_POINT('',(4.800227635003,0.69703222272,45.726247284693)
  );
#306 = CARTESIAN_POINT('',(4.813137270977,0.608415575358,45.809044099446
    ));
#307 = CARTESIAN_POINT('',(4.826041747589,0.505321864978,45.881214100188
    ));
#308 = CARTESIAN_POINT('',(4.837410739508,0.389759261127,45.938937155144
    ));
#309 = CARTESIAN_POINT('',(4.84571916278,0.264618302182,45.979239014251)
  );
#310 = CARTESIAN_POINT('',(4.85,0.133398768378,46.));
#311 = CARTESIAN_POINT('',(4.85,1.530808498934E-16,46.));
#312 = PCURVE('',#188,#313);
#313 = DEFINITIONAL_REPRESENTATION('',(#314),#329);
#314 = B_SPLINE_CURVE_WITH_KNOTS('',7,(#315,#316,#317,#318,#319,#320,
    #321,#322,#323,#324,#325,#326,#327,#328),.UNSPECIFIED.,.F.,.F.,(8,6,
    8),(0.,0.472194229331,1.),.UNSPECIFIED.);
#315 = CARTESIAN_POINT('',(-0.207675153723,-45.));
#316 = CARTESIAN_POINT('',(-0.207675153723,-45.09656062324));
#317 = CARTESIAN_POINT('',(-0.205383022108,-45.19313339111));
#318 = CARTESIAN_POINT('',(-0.200797716329,-45.28868118116));
#319 = CARTESIAN_POINT('',(-0.19391598723,-45.38213600529));
#320 = CARTESIAN_POINT('',(-0.184738166331,-45.47233751398));
#321 = CARTESIAN_POINT('',(-0.173273453406,-45.55795944117));
#322 = CARTESIAN_POINT('',(-0.144199084891,-45.72624728469));
#323 = CARTESIAN_POINT('',(-0.125736833843,-45.80904409944));
#324 = CARTESIAN_POINT('',(-0.104321524808,-45.88121410018));
#325 = CARTESIAN_POINT('',(-8.039652414778E-02,-45.93893715514));
#326 = CARTESIAN_POINT('',(-5.456051595225E-02,-45.97923901425));
#327 = CARTESIAN_POINT('',(-2.750490069656E-02,-46.));
#328 = CARTESIAN_POINT('',(0.,-46.));
#329 = ( GEOMETRIC_REPRESENTATION_CONTEXT(2) 
PARAMETRIC_REPRESENTATION_CONTEXT() REPRESENTATION_CONTEXT('2D SPACE',''
  ) );
#330 = PCURVE('',#270,#331);
#331 = DEFINITIONAL_REPRESENTATION('',(#332),#347);
#332 = B_SPLINE_CURVE_WITH_KNOTS('',7,(#333,#334,#335,#336,#337,#338,
    #339,#340,#341,#342,#343,#344,#345,#346),.UNSPECIFIED.,.F.,.F.,(8,6,
    8),(0.,0.472194229331,1.),.UNSPECIFIED.);
#333 = CARTESIAN_POINT('',(0.,-4.745787605867));
#334 = CARTESIAN_POINT('',(-9.656062324863E-02,-4.745787605867));
#335 = CARTESIAN_POINT('',(-0.193134062001,-4.74807987192));
#336 = CARTESIAN_POINT('',(-0.290150127423,-4.752664707135));
#337 = CARTESIAN_POINT('',(-0.388021158993,-4.759390018862));
#338 = CARTESIAN_POINT('',(-0.487159788453,-4.767938671278));
#339 = CARTESIAN_POINT('',(-0.588018413869,-4.777825449037));
#340 = CARTESIAN_POINT('',(-0.806428473786,-4.800227635003));
#341 = CARTESIAN_POINT('',(-0.926710909293,-4.813137270977));
#342 = CARTESIAN_POINT('',(-1.050535172203,-4.826041747589));
#343 = CARTESIAN_POINT('',(-1.177159637065,-4.837410739508));
#344 = CARTESIAN_POINT('',(-1.306178069776,-4.84571916278));
#345 = CARTESIAN_POINT('',(-1.437397558417,-4.85));
#346 = CARTESIAN_POINT('',(-1.570796326795,-4.85));
#347 = ( GEOMETRIC_REPRESENTATION_CONTEXT(2) 
PARAMETRIC_REPRESENTATION_CONTEXT() REPRESENTATION_CONTEXT('2D SPACE',''
  ) );
#348 = ORIENTED_EDGE('',*,*,#349,.T.);
#349 = EDGE_CURVE('',#294,#350,#352,.T.);
#350 = VERTEX_POINT('',#351);
#351 = CARTESIAN_POINT('',(4.85,0.,50.));
#352 = SEAM_CURVE('',#353,(#357,#364),.PCURVE_S1.);
#353 = LINE('',#354,#355);
#354 = CARTESIAN_POINT('',(4.85,0.,0.));
#355 = VECTOR('',#356,1.);
#356 = DIRECTION('',(0.,0.,1.));
#357 = PCURVE('',#188,#358);
#358 = DEFINITIONAL_REPRESENTATION('',(#359),#363);
#359 = LINE('',#360,#361);
#360 = CARTESIAN_POINT('',(-6.28318530718,0.));
#361 = VECTOR('',#362,1.);
#362 = DIRECTION('',(-0.,-1.));
#363 = ( GEOMETRIC_REPRESENTATION_CONTEXT(2) 
PARAMETRIC_REPRESENTATION_CONTEXT() REPRESENTATION_CONTEXT('2D SPACE',''
  ) );
#364 = PCURVE('',#188,#365);
#365 = DEFINITIONAL_REPRESENTATION('',(#366),#370);
#366 = LINE('',#367,#368);
#367 = CARTESIAN_POINT('',(-0.,0.));
#368 = VECTOR('',#369,1.);
#369 = DIRECTION('',(-0.,-1.));
#370 = ( GEOMETRIC_REPRESENTATION_CONTEXT(2) 
PARAMETRIC_REPRESENTATION_CONTEXT() REPRESENTATION_CONTEXT('2D SPACE',''
  ) );
#371 = ORIENTED_EDGE('',*,*,#372,.T.);
#372 = EDGE_CURVE('',#350,#350,#373,.T.);
#373 = SURFACE_CURVE('',#374,(#379,#386),.PCURVE_S1.);
#374 = CIRCLE('',#375,4.85);
#375 = AXIS2_PLACEMENT_3D('',#376,#377,#378);
#376 = CARTESIAN_POINT('',(0.,0.,50.));
#377 = DIRECTION('',(0.,0.,1.));
#378 = DIRECTION('',(1.,0.,0.));
#379 = PCURVE('',#188,#380);
#380 = DEFINITIONAL_REPRESENTATION('',(#381),#385);
#381 = LINE('',#382,#383);
#382 = CARTESIAN_POINT('',(-0.,-50.));
#383 = VECTOR('',#384,1.);
#384 = DIRECTION('',(-1.,0.));
#385 = ( GEOMETRIC_REPRESENTATION_CONTEXT(2) 
PARAMETRIC_REPRESENTATION_CONTEXT() REPRESENTATION_CONTEXT('2D SPACE',''
  ) );
#386 = PCURVE('',#387,#392);
#387 = PLANE('',#388);
#388 = AXIS2_PLACEMENT_3D('',#389,#390,#391);
#389 = CARTESIAN_POINT('',(-4.229196286204E-16,8.396185321814E-17,50.));
#390 = DIRECTION('',(0.,0.,1.));
#391 = DIRECTION('',(1.,0.,-0.));
#392 = DEFINITIONAL_REPRESENTATION('',(#393),#397);
#393 = CIRCLE('',#394,4.85);
#394 = AXIS2_PLACEMENT_2D('',#395,#396);
#395 = CARTESIAN_POINT('',(4.229196286204E-16,-8.396185321814E-17));
#396 = DIRECTION('',(1.,0.));
#397 = ( GEOMETRIC_REPRESENTATION_CONTEXT(2) 
PARAMETRIC_REPRESENTATION_CONTEXT() REPRESENTATION_CONTEXT('2D SPACE',''
  ) );
#398 = ORIENTED_EDGE('',*,*,#349,.F.);
#399 = ORIENTED_EDGE('',*,*,#400,.T.);
#400 = EDGE_CURVE('',#294,#208,#401,.T.);
#401 = SURFACE_CURVE('',#402,(#429,#459),.PCURVE_S1.);
#402 = B_SPLINE_CURVE_WITH_KNOTS('',7,(#403,#404,#405,#406,#407,#408,
    #409,#410,#411,#412,#413,#414,#415,#416,#417,#418,#419,#420,#421,
    #422,#423,#424,#425,#426,#427,#428),.UNSPECIFIED.,.F.,.F.,(8,6,6,6,8
    ),(0.,0.264025386715,0.500034484966,0.736043123599,1.),
  .UNSPECIFIED.);
#403 = CARTESIAN_POINT('',(4.85,-4.440892098501E-16,46.));
#404 = CARTESIAN_POINT('',(4.85,-0.133541108674,46.));
#405 = CARTESIAN_POINT('',(4.845710005219,-0.264775495851,
    45.979194703027));
#406 = CARTESIAN_POINT('',(4.837398335936,-0.389847760384,
    45.938876926656));
#407 = CARTESIAN_POINT('',(4.826038526944,-0.505318571957,
    45.881187118104));
#408 = CARTESIAN_POINT('',(4.813145319922,-0.608351752563,
    45.809080749165));
#409 = CARTESIAN_POINT('',(4.800237460544,-0.696971161268,
    45.726321095308));
#410 = CARTESIAN_POINT('',(4.777825515816,-0.836251619513,45.55795994282
    ));
#411 = CARTESIAN_POINT('',(4.767938656666,-0.890980425017,
    45.472337575501));
#412 = CARTESIAN_POINT('',(4.75938993987,-0.934669288822,45.382135330274
    ));
#413 = CARTESIAN_POINT('',(4.752664655433,-0.967361324179,
    45.288680237806));
#414 = CARTESIAN_POINT('',(4.748079880532,-0.989122003287,
    45.193132900868));
#415 = CARTESIAN_POINT('',(4.745787605867,-1.,45.096560811297));
#416 = CARTESIAN_POINT('',(4.745787605867,-1.,44.903439376751));
#417 = CARTESIAN_POINT('',(4.74807987192,-0.98912204174,44.806866608886)
  );
#418 = CARTESIAN_POINT('',(4.752664707135,-0.967361106921,
    44.711318818835));
#419 = CARTESIAN_POINT('',(4.759390018862,-0.934668875842,
    44.617863994704));
#420 = CARTESIAN_POINT('',(4.767938671278,-0.8909802756,44.527662486015)
  );
#421 = CARTESIAN_POINT('',(4.777825449037,-0.836252034513,
    44.442040558829));
#422 = CARTESIAN_POINT('',(4.800234487584,-0.69698963692,44.273701237918
    ));
#423 = CARTESIAN_POINT('',(4.813143033428,-0.608370146377,
    44.190929225387));
#424 = CARTESIAN_POINT('',(4.826039807253,-0.50531729204,44.118803086226
    ));
#425 = CARTESIAN_POINT('',(4.837402271366,-0.389818351597,44.06110407337
    ));
#426 = CARTESIAN_POINT('',(4.845712765662,-0.264726549487,
    44.020791898659));
#427 = CARTESIAN_POINT('',(4.85,-0.133498099931,44.));
#428 = CARTESIAN_POINT('',(4.85,-6.661338147751E-16,44.));
#429 = PCURVE('',#188,#430);
#430 = DEFINITIONAL_REPRESENTATION('',(#431),#458);
#431 = B_SPLINE_CURVE_WITH_KNOTS('',7,(#432,#433,#434,#435,#436,#437,
    #438,#439,#440,#441,#442,#443,#444,#445,#446,#447,#448,#449,#450,
    #451,#452,#453,#454,#455,#456,#457),.UNSPECIFIED.,.F.,.F.,(8,6,6,6,8
    ),(0.,0.264025386715,0.500034484966,0.736043123599,1.),
  .UNSPECIFIED.);
#432 = CARTESIAN_POINT('',(-6.28318530718,-46.));
#433 = CARTESIAN_POINT('',(-6.255651057968,-46.));
#434 = CARTESIAN_POINT('',(-6.228592376784,-45.97919470302));
#435 = CARTESIAN_POINT('',(-6.2027704275,-45.93887692665));
#436 = CARTESIAN_POINT('',(-6.178864345243,-45.8811871181));
#437 = CARTESIAN_POINT('',(-6.157461733776,-45.80908074916));
#438 = CARTESIAN_POINT('',(-6.138998974232,-45.7263210953));
#439 = CARTESIAN_POINT('',(-6.109911940441,-45.55795994282));
#440 = CARTESIAN_POINT('',(-6.098447110013,-45.4723375755));
#441 = CARTESIAN_POINT('',(-6.089269233221,-45.38213533027));
#442 = CARTESIAN_POINT('',(-6.082387544848,-45.2886802378));
#443 = CARTESIAN_POINT('',(-6.077802293224,-45.19313290086));
#444 = CARTESIAN_POINT('',(-6.075510153456,-45.09656081129));
#445 = CARTESIAN_POINT('',(-6.075510153456,-44.90343937675));
#446 = CARTESIAN_POINT('',(-6.077802285072,-44.80686660888));
#447 = CARTESIAN_POINT('',(-6.082387590851,-44.71131881883));
#448 = CARTESIAN_POINT('',(-6.089269319949,-44.6178639947));
#449 = CARTESIAN_POINT('',(-6.098447140849,-44.52766248601));
#450 = CARTESIAN_POINT('',(-6.109911853774,-44.44204055882));
#451 = CARTESIAN_POINT('',(-6.138995115816,-44.27370123791));
#452 = CARTESIAN_POINT('',(-6.157457913774,-44.19092922538));
#453 = CARTESIAN_POINT('',(-6.178864646375,-44.11880308622));
#454 = CARTESIAN_POINT('',(-6.20277652607,-44.06110407337));
#455 = CARTESIAN_POINT('',(-6.228602468711,-44.02079189865));
#456 = CARTESIAN_POINT('',(-6.255659925751,-44.));
#457 = CARTESIAN_POINT('',(-6.28318530718,-44.));
#458 = ( GEOMETRIC_REPRESENTATION_CONTEXT(2) 
PARAMETRIC_REPRESENTATION_CONTEXT() REPRESENTATION_CONTEXT('2D SPACE',''
  ) );
#459 = PCURVE('',#270,#460);
#460 = DEFINITIONAL_REPRESENTATION('',(#461),#488);
#461 = B_SPLINE_CURVE_WITH_KNOTS('',7,(#462,#463,#464,#465,#466,#467,
    #468,#469,#470,#471,#472,#473,#474,#475,#476,#477,#478,#479,#480,
    #481,#482,#483,#484,#485,#486,#487),.UNSPECIFIED.,.F.,.F.,(8,6,6,6,8
    ),(0.,0.264025386715,0.500034484966,0.736043123599,1.),
  .UNSPECIFIED.);
#462 = CARTESIAN_POINT('',(-1.570796326795,-4.85));
#463 = CARTESIAN_POINT('',(-1.704337435469,-4.85));
#464 = CARTESIAN_POINT('',(-1.835571811824,-4.845710005219));
#465 = CARTESIAN_POINT('',(-1.964533759112,-4.837398335936));
#466 = CARTESIAN_POINT('',(-2.091069749126,-4.826038526944));
#467 = CARTESIAN_POINT('',(-2.214812860982,-4.813145319922));
#468 = CARTESIAN_POINT('',(-2.335068385713,-4.800237460544));
#469 = CARTESIAN_POINT('',(-2.553573588663,-4.777825515816));
#470 = CARTESIAN_POINT('',(-2.654432918253,-4.767938656666));
#471 = CARTESIAN_POINT('',(-2.753572242294,-4.75938993987));
#472 = CARTESIAN_POINT('',(-2.851443451602,-4.752664655433));
#473 = CARTESIAN_POINT('',(-2.94845909527,-4.748079880532));
#474 = CARTESIAN_POINT('',(-3.045031842293,-4.745787605867));
#475 = CARTESIAN_POINT('',(-3.238153276838,-4.745787605867));
#476 = CARTESIAN_POINT('',(-3.334726715591,-4.74807987192));
#477 = CARTESIAN_POINT('',(-3.431742781013,-4.752664707135));
#478 = CARTESIAN_POINT('',(-3.529613812583,-4.759390018862));
#479 = CARTESIAN_POINT('',(-3.628752442043,-4.767938671278));
#480 = CARTESIAN_POINT('',(-3.729611067459,-4.777825449037));
#481 = CARTESIAN_POINT('',(-3.948087936596,-4.800234487584));
#482 = CARTESIAN_POINT('',(-4.068353051425,-4.813143033428));
#483 = CARTESIAN_POINT('',(-4.192121959717,-4.826039807253));
#484 = CARTESIAN_POINT('',(-4.318684638029,-4.837402271366));
#485 = CARTESIAN_POINT('',(-4.447662457794,-4.845712765662));
#486 = CARTESIAN_POINT('',(-4.578890880454,-4.85));
#487 = CARTESIAN_POINT('',(-4.712388980385,-4.85));
#488 = ( GEOMETRIC_REPRESENTATION_CONTEXT(2) 
PARAMETRIC_REPRESENTATION_CONTEXT() REPRESENTATION_CONTEXT('2D SPACE',''
  ) );
#489 = FACE_BOUND('',#490,.F.);
#490 = EDGE_LOOP('',(#491));
#491 = ORIENTED_EDGE('',*,*,#492,.F.);
#492 = EDGE_CURVE('',#493,#493,#495,.T.);
#493 = VERTEX_POINT('',#494);
#494 = CARTESIAN_POINT('',(-4.745787605867,1.,45.));
#495 = SURFACE_CURVE('',#496,(#553,#613),.PCURVE_S1.);
#496 = B_SPLINE_CURVE_WITH_KNOTS('',7,(#497,#498,#499,#500,#501,#502,
    #503,#504,#505,#506,#507,#508,#509,#510,#511,#512,#513,#514,#515,
    #516,#517,#518,#519,#520,#521,#522,#523,#524,#525,#526,#527,#528,
    #529,#530,#531,#532,#533,#534,#535,#536,#537,#538,#539,#540,#541,
    #542,#543,#544,#545,#546,#547,#548,#549,#550,#551,#552),
  .UNSPECIFIED.,.T.,.F.,(8,6,6,6,6,6,6,6,6,8),(0.,0.117767280891,
    0.209672310881,0.309524161543,0.414305745401,0.50098012668,
    0.618936548179,0.750861416484,0.867384308991,1.),.UNSPECIFIED.);
#497 = CARTESIAN_POINT('',(-4.745787605867,1.,45.));
#498 = CARTESIAN_POINT('',(-4.745787605867,1.,45.096560623249));
#499 = CARTESIAN_POINT('',(-4.74807987192,0.98912204174,45.193133391114)
  );
#500 = CARTESIAN_POINT('',(-4.752664707135,0.967361106921,
    45.288681181165));
#501 = CARTESIAN_POINT('',(-4.759390018862,0.934668875842,
    45.382136005296));
#502 = CARTESIAN_POINT('',(-4.767938671278,0.8909802756,45.472337513985)
  );
#503 = CARTESIAN_POINT('',(-4.777825449037,0.836252034513,
    45.557959441171));
#504 = CARTESIAN_POINT('',(-4.796658795996,0.719211000078,
    45.699437748281));
#505 = CARTESIAN_POINT('',(-4.805366629222,0.661006835637,
    45.757938574179));
#506 = CARTESIAN_POINT('',(-4.814184246365,0.596083965581,
    45.811807486904));
#507 = CARTESIAN_POINT('',(-4.822692104996,0.524812229925,
    45.859972058922));
#508 = CARTESIAN_POINT('',(-4.830437475805,0.447723860563,
    45.901412053502));
#509 = CARTESIAN_POINT('',(-4.836984240473,0.365503305032,
    45.935159568435));
#510 = CARTESIAN_POINT('',(-4.847384816162,0.184998392308,
    45.987601093353));
#511 = CARTESIAN_POINT('',(-4.850931238079,8.638322178495E-02,
    46.004612075479));
#512 = CARTESIAN_POINT('',(-4.852117549339,-1.472734749731E-02,
    46.010039203985));
#513 = CARTESIAN_POINT('',(-4.850698525661,-0.115954817081,
    46.003395942214));
#514 = CARTESIAN_POINT('',(-4.846809666406,-0.214875077006,
    45.984965245366));
#515 = CARTESIAN_POINT('',(-4.840935673058,-0.309230441386,
    45.955799903302));
#516 = CARTESIAN_POINT('',(-4.826132083808,-0.489405866024,
    45.877831034678));
#517 = CARTESIAN_POINT('',(-4.817058628178,-0.574666707021,
    45.828089328306));
#518 = CARTESIAN_POINT('',(-4.807107322048,-0.652148610666,
    45.770027233235));
#519 = CARTESIAN_POINT('',(-4.796917458722,-0.721313017997,
    45.705049761547));
#520 = CARTESIAN_POINT('',(-4.787071631285,-0.78181565278,
    45.634495687109));
#521 = CARTESIAN_POINT('',(-4.778043923712,-0.833481922275,
    45.559651619299));
#522 = CARTESIAN_POINT('',(-4.763669166913,-0.911730933489,
    45.417317196295));
#523 = CARTESIAN_POINT('',(-4.757937520533,-0.941203752503,
    45.350612338393));
#524 = CARTESIAN_POINT('',(-4.753168438599,-0.964745509054,
    45.282165440779));
#525 = CARTESIAN_POINT('',(-4.749500504687,-0.982379484675,
    45.212451025689));
#526 = CARTESIAN_POINT('',(-4.747025166692,-0.994126575947,
    45.141907481699));
#527 = CARTESIAN_POINT('',(-4.745787605867,-1.,45.070952748222));
#528 = CARTESIAN_POINT('',(-4.745787605867,-1.,44.903439376751));
#529 = CARTESIAN_POINT('',(-4.74807987192,-0.98912204174,44.806866608886
    ));
#530 = CARTESIAN_POINT('',(-4.752664707135,-0.967361106921,
    44.711318818835));
#531 = CARTESIAN_POINT('',(-4.759390018862,-0.934668875842,
    44.617863994704));
#532 = CARTESIAN_POINT('',(-4.767938671278,-0.8909802756,44.527662486015
    ));
#533 = CARTESIAN_POINT('',(-4.777825449037,-0.836252034513,
    44.442040558829));
#534 = CARTESIAN_POINT('',(-4.800234487584,-0.69698963692,
    44.273701237918));
#535 = CARTESIAN_POINT('',(-4.813143033428,-0.608370146377,
    44.190929225387));
#536 = CARTESIAN_POINT('',(-4.826039807253,-0.50531729204,
    44.118803086226));
#537 = CARTESIAN_POINT('',(-4.837402271366,-0.389818351598,
    44.061104073371));
#538 = CARTESIAN_POINT('',(-4.845712765662,-0.264726549487,
    44.020791898658));
#539 = CARTESIAN_POINT('',(-4.85,-0.133498099931,44.));
#540 = CARTESIAN_POINT('',(-4.85,0.117912452352,44.));
#541 = CARTESIAN_POINT('',(-4.846655453008,0.234388049018,
    44.016220508001));
#542 = CARTESIAN_POINT('',(-4.84011379949,0.346596585048,44.047950374929
    ));
#543 = CARTESIAN_POINT('',(-4.830983637292,0.451916986584,
    44.093811267244));
#544 = CARTESIAN_POINT('',(-4.82026162891,0.54809987702,44.151789076661)
  );
#545 = CARTESIAN_POINT('',(-4.809031615596,0.633449411336,
    44.219235848962));
#546 = CARTESIAN_POINT('',(-4.785822707834,0.790936857754,
    44.376723295381));
#547 = CARTESIAN_POINT('',(-4.773776422239,0.860831934276,
    44.469807733548));
#548 = CARTESIAN_POINT('',(-4.76308803058,0.91662873868,44.569653807017)
  );
#549 = CARTESIAN_POINT('',(-4.754560842909,0.958364442559,
    44.674252243371));
#550 = CARTESIAN_POINT('',(-4.748710920155,0.986126478711,
    44.781870651494));
#551 = CARTESIAN_POINT('',(-4.745787605867,1.,44.890951173218));
#552 = CARTESIAN_POINT('',(-4.745787605867,1.,45.));
#553 = PCURVE('',#188,#554);
#554 = DEFINITIONAL_REPRESENTATION('',(#555),#612);
#555 = B_SPLINE_CURVE_WITH_KNOTS('',7,(#556,#557,#558,#559,#560,#561,
    #562,#563,#564,#565,#566,#567,#568,#569,#570,#571,#572,#573,#574,
    #575,#576,#577,#578,#579,#580,#581,#582,#583,#584,#585,#586,#587,
    #588,#589,#590,#591,#592,#593,#594,#595,#596,#597,#598,#599,#600,
    #601,#602,#603,#604,#605,#606,#607,#608,#609,#610,#611),
  .UNSPECIFIED.,.F.,.F.,(8,6,6,6,6,6,6,6,6,8),(0.,0.117767280891,
    0.209672310881,0.309524161543,0.414305745401,0.50098012668,
    0.618936548179,0.750861416484,0.867384308991,1.),.UNSPECIFIED.);
#556 = CARTESIAN_POINT('',(-2.933917499867,-45.));
#557 = CARTESIAN_POINT('',(-2.933917499867,-45.09656062324));
#558 = CARTESIAN_POINT('',(-2.936209631482,-45.19313339111));
#559 = CARTESIAN_POINT('',(-2.940794937261,-45.28868118116));
#560 = CARTESIAN_POINT('',(-2.94767666636,-45.38213600529));
#561 = CARTESIAN_POINT('',(-2.956854487259,-45.47233751398));
#562 = CARTESIAN_POINT('',(-2.968319200184,-45.55795944117));
#563 = CARTESIAN_POINT('',(-2.992761800146,-45.69943774828));
#564 = CARTESIAN_POINT('',(-3.004895469486,-45.75793857417));
#565 = CARTESIAN_POINT('',(-3.018402507613,-45.8118074869));
#566 = CARTESIAN_POINT('',(-3.033198119324,-45.85997205892));
#567 = CARTESIAN_POINT('',(-3.049167533515,-45.9014120535));
#568 = CARTESIAN_POINT('',(-3.066169789847,-45.93515956843));
#569 = CARTESIAN_POINT('',(-3.103449027299,-45.98760109335));
#570 = CARTESIAN_POINT('',(-3.123790554316,-46.00461207547));
#571 = CARTESIAN_POINT('',(-3.144629194069,-46.01003920398));
#572 = CARTESIAN_POINT('',(-3.165491024527,-46.00339594221));
#573 = CARTESIAN_POINT('',(-3.185893540766,-45.98496524536));
#574 = CARTESIAN_POINT('',(-3.205382214925,-45.9557999033));
#575 = CARTESIAN_POINT('',(-3.242656967225,-45.87783103467));
#576 = CARTESIAN_POINT('',(-3.260330649925,-45.8280893283));
#577 = CARTESIAN_POINT('',(-3.276432123222,-45.77002723323));
#578 = CARTESIAN_POINT('',(-3.290843327017,-45.70504976154));
#579 = CARTESIAN_POINT('',(-3.303480854573,-45.6344956871));
#580 = CARTESIAN_POINT('',(-3.314294655492,-45.55965161929));
#581 = CARTESIAN_POINT('',(-3.330698452388,-45.41731719629));
#582 = CARTESIAN_POINT('',(-3.33688886526,-45.35061233839));
#583 = CARTESIAN_POINT('',(-3.341841225237,-45.28216544077));
#584 = CARTESIAN_POINT('',(-3.345554904618,-45.21245102568));
#585 = CARTESIAN_POINT('',(-3.348030232636,-45.14190748169));
#586 = CARTESIAN_POINT('',(-3.349267807313,-45.07095274822));
#587 = CARTESIAN_POINT('',(-3.349267807313,-44.90343937675));
#588 = CARTESIAN_POINT('',(-3.346975675698,-44.80686660888));
#589 = CARTESIAN_POINT('',(-3.342390369919,-44.71131881883));
#590 = CARTESIAN_POINT('',(-3.33550864082,-44.6178639947));
#591 = CARTESIAN_POINT('',(-3.326330819921,-44.52766248601));
#592 = CARTESIAN_POINT('',(-3.314866106996,-44.44204055882));
#593 = CARTESIAN_POINT('',(-3.285782844953,-44.27370123791));
#594 = CARTESIAN_POINT('',(-3.267320046996,-44.19092922538));
#595 = CARTESIAN_POINT('',(-3.245913314394,-44.11880308622));
#596 = CARTESIAN_POINT('',(-3.222001434699,-44.06110407337));
#597 = CARTESIAN_POINT('',(-3.196175492059,-44.02079189865));
#598 = CARTESIAN_POINT('',(-3.169118035019,-44.));
#599 = CARTESIAN_POINT('',(-3.117280807744,-44.));
#600 = CARTESIAN_POINT('',(-3.093265199733,-44.016220508));
#601 = CARTESIAN_POINT('',(-3.070106061705,-44.04795037492));
#602 = CARTESIAN_POINT('',(-3.048322359764,-44.09381126724));
#603 = CARTESIAN_POINT('',(-3.028374413819,-44.15178907666));
#604 = CARTESIAN_POINT('',(-3.010627043652,-44.21923584896));
#605 = CARTESIAN_POINT('',(-2.977804691527,-44.37672329538));
#606 = CARTESIAN_POINT('',(-2.96318520582,-44.46980773354));
#607 = CARTESIAN_POINT('',(-2.951473603791,-44.56965380701));
#608 = CARTESIAN_POINT('',(-2.942690649875,-44.67425224337));
#609 = CARTESIAN_POINT('',(-2.936840836209,-44.78187065149));
#610 = CARTESIAN_POINT('',(-2.933917499867,-44.89095117321));
#611 = CARTESIAN_POINT('',(-2.933917499867,-45.));
#612 = ( GEOMETRIC_REPRESENTATION_CONTEXT(2) 
PARAMETRIC_REPRESENTATION_CONTEXT() REPRESENTATION_CONTEXT('2D SPACE',''
  ) );
#613 = PCURVE('',#614,#619);
#614 = CYLINDRICAL_SURFACE('',#615,1.);
#615 = AXIS2_PLACEMENT_3D('',#616,#617,#618);
#616 = CARTESIAN_POINT('',(0.,0.,45.));
#617 = DIRECTION('',(1.,0.,0.));
#618 = DIRECTION('',(0.,1.,0.));
#619 = DEFINITIONAL_REPRESENTATION('',(#620),#677);
#620 = B_SPLINE_CURVE_WITH_KNOTS('',7,(#621,#622,#623,#624,#625,#626,
    #627,#628,#629,#630,#631,#632,#633,#634,#635,#636,#637,#638,#639,
    #640,#641,#642,#643,#644,#645,#646,#647,#648,#649,#650,#651,#652,
    #653,#654,#655,#656,#657,#658,#659,#660,#661,#662,#663,#664,#665,
    #666,#667,#668,#669,#670,#671,#672,#673,#674,#675,#676),
  .UNSPECIFIED.,.F.,.F.,(8,6,6,6,6,6,6,6,6,8),(0.,0.117767280891,
    0.209672310881,0.309524161543,0.414305745401,0.50098012668,
    0.618936548179,0.750861416484,0.867384308991,1.),.UNSPECIFIED.);
#621 = CARTESIAN_POINT('',(0.,-4.745787605867));
#622 = CARTESIAN_POINT('',(9.656062324863E-02,-4.745787605867));
#623 = CARTESIAN_POINT('',(0.193134062001,-4.74807987192));
#624 = CARTESIAN_POINT('',(0.290150127423,-4.752664707135));
#625 = CARTESIAN_POINT('',(0.388021158993,-4.759390018862));
#626 = CARTESIAN_POINT('',(0.487159788453,-4.767938671278));
#627 = CARTESIAN_POINT('',(0.588018413869,-4.777825449037));
#628 = CARTESIAN_POINT('',(0.771634086197,-4.796658795996));
#629 = CARTESIAN_POINT('',(0.85381052634,-4.805366629222));
#630 = CARTESIAN_POINT('',(0.937552019539,-4.814184246365));
#631 = CARTESIAN_POINT('',(1.022809629682,-4.822692104996));
#632 = CARTESIAN_POINT('',(1.109592472439,-4.830437475805));
#633 = CARTESIAN_POINT('',(1.197963674376,-4.836984240473));
#634 = CARTESIAN_POINT('',(1.385932121338,-4.847384816162));
#635 = CARTESIAN_POINT('',(1.485376533814,-4.850931238079));
#636 = CARTESIAN_POINT('',(1.585521877804,-4.852117549339));
#637 = CARTESIAN_POINT('',(1.685686256955,-4.850698525661));
#638 = CARTESIAN_POINT('',(1.785230243675,-4.846809666406));
#639 = CARTESIAN_POINT('',(1.883407124281,-4.840935673058));
#640 = CARTESIAN_POINT('',(2.079729125386,-4.826132083808));
#641 = CARTESIAN_POINT('',(2.177732814226,-4.817058628178));
#642 = CARTESIAN_POINT('',(2.273559305318,-4.807107322048));
#643 = CARTESIAN_POINT('',(2.367446505195,-4.796917458722));
#644 = CARTESIAN_POINT('',(2.459567297315,-4.787071631285));
#645 = CARTESIAN_POINT('',(2.550044354879,-4.778043923712));
#646 = CARTESIAN_POINT('',(2.712469709206,-4.763669166913));
#647 = CARTESIAN_POINT('',(2.785122686561,-4.757937520533));
#648 = CARTESIAN_POINT('',(2.857092951225,-4.753168438599));
#649 = CARTESIAN_POINT('',(2.928558116443,-4.749500504687));
#650 = CARTESIAN_POINT('',(2.999685416617,-4.747025166692));
#651 = CARTESIAN_POINT('',(3.070639905367,-4.745787605867));
#652 = CARTESIAN_POINT('',(3.238153276838,-4.745787605867));
#653 = CARTESIAN_POINT('',(3.334726715591,-4.74807987192));
#654 = CARTESIAN_POINT('',(3.431742781013,-4.752664707135));
#655 = CARTESIAN_POINT('',(3.529613812583,-4.759390018862));
#656 = CARTESIAN_POINT('',(3.628752442043,-4.767938671278));
#657 = CARTESIAN_POINT('',(3.729611067459,-4.777825449037));
#658 = CARTESIAN_POINT('',(3.948087936596,-4.800234487584));
#659 = CARTESIAN_POINT('',(4.068353051425,-4.813143033428));
#660 = CARTESIAN_POINT('',(4.192121959717,-4.826039807253));
#661 = CARTESIAN_POINT('',(4.318684638028,-4.837402271366));
#662 = CARTESIAN_POINT('',(4.447662457794,-4.845712765662));
#663 = CARTESIAN_POINT('',(4.578890880454,-4.85));
#664 = CARTESIAN_POINT('',(4.830301432736,-4.85));
#665 = CARTESIAN_POINT('',(4.946776974358,-4.846655453008));
#666 = CARTESIAN_POINT('',(5.061663416903,-4.84011379949));
#667 = CARTESIAN_POINT('',(5.174722574521,-4.830983637292));
#668 = CARTESIAN_POINT('',(5.285576552205,-4.82026162891));
#669 = CARTESIAN_POINT('',(5.39361989237,-4.809031615596));
#670 = CARTESIAN_POINT('',(5.616340774999,-4.785822707834));
#671 = CARTESIAN_POINT('',(5.731584804241,-4.773776422239));
#672 = CARTESIAN_POINT('',(5.844361813295,-4.76308803058));
#673 = CARTESIAN_POINT('',(5.955319159096,-4.754560842909));
#674 = CARTESIAN_POINT('',(6.065056052925,-4.748710920155));
#675 = CARTESIAN_POINT('',(6.174136480398,-4.745787605867));
#676 = CARTESIAN_POINT('',(6.28318530718,-4.745787605867));
#677 = ( GEOMETRIC_REPRESENTATION_CONTEXT(2) 
PARAMETRIC_REPRESENTATION_CONTEXT() REPRESENTATION_CONTEXT('2D SPACE',''
  ) );
#678 = ADVANCED_FACE('',(#679),#270,.F.);
#679 = FACE_BOUND('',#680,.T.);
#680 = EDGE_LOOP('',(#681,#705,#726,#727,#728,#729));
#681 = ORIENTED_EDGE('',*,*,#682,.F.);
#682 = EDGE_CURVE('',#683,#683,#685,.T.);
#683 = VERTEX_POINT('',#684);
#684 = CARTESIAN_POINT('',(0.,1.,45.));
#685 = SURFACE_CURVE('',#686,(#691,#698),.PCURVE_S1.);
#686 = CIRCLE('',#687,1.);
#687 = AXIS2_PLACEMENT_3D('',#688,#689,#690);
#688 = CARTESIAN_POINT('',(0.,0.,45.));
#689 = DIRECTION('',(1.,0.,0.));
#690 = DIRECTION('',(0.,1.,0.));
#691 = PCURVE('',#270,#692);
#692 = DEFINITIONAL_REPRESENTATION('',(#693),#697);
#693 = LINE('',#694,#695);
#694 = CARTESIAN_POINT('',(-0.,0.));
#695 = VECTOR('',#696,1.);
#696 = DIRECTION('',(-1.,0.));
#697 = ( GEOMETRIC_REPRESENTATION_CONTEXT(2) 
PARAMETRIC_REPRESENTATION_CONTEXT() REPRESENTATION_CONTEXT('2D SPACE',''
  ) );
#698 = PCURVE('',#614,#699);
#699 = DEFINITIONAL_REPRESENTATION('',(#700),#704);
#700 = LINE('',#701,#702);
#701 = CARTESIAN_POINT('',(0.,0.));
#702 = VECTOR('',#703,1.);
#703 = DIRECTION('',(1.,0.));
#704 = ( GEOMETRIC_REPRESENTATION_CONTEXT(2) 
PARAMETRIC_REPRESENTATION_CONTEXT() REPRESENTATION_CONTEXT('2D SPACE',''
  ) );
#705 = ORIENTED_EDGE('',*,*,#706,.T.);
#706 = EDGE_CURVE('',#683,#233,#707,.T.);
#707 = SEAM_CURVE('',#708,(#712,#719),.PCURVE_S1.);
#708 = LINE('',#709,#710);
#709 = CARTESIAN_POINT('',(0.,1.,45.));
#710 = VECTOR('',#711,1.);
#711 = DIRECTION('',(1.,0.,0.));
#712 = PCURVE('',#270,#713);
#713 = DEFINITIONAL_REPRESENTATION('',(#714),#718);
#714 = LINE('',#715,#716);
#715 = CARTESIAN_POINT('',(-6.28318530718,0.));
#716 = VECTOR('',#717,1.);
#717 = DIRECTION('',(-0.,-1.));
#718 = ( GEOMETRIC_REPRESENTATION_CONTEXT(2) 
PARAMETRIC_REPRESENTATION_CONTEXT() REPRESENTATION_CONTEXT('2D SPACE',''
  ) );
#719 = PCURVE('',#270,#720);
#720 = DEFINITIONAL_REPRESENTATION('',(#721),#725);
#721 = LINE('',#722,#723);
#722 = CARTESIAN_POINT('',(-0.,0.));
#723 = VECTOR('',#724,1.);
#724 = DIRECTION('',(-0.,-1.));
#725 = ( GEOMETRIC_REPRESENTATION_CONTEXT(2) 
PARAMETRIC_REPRESENTATION_CONTEXT() REPRESENTATION_CONTEXT('2D SPACE',''
  ) );
#726 = ORIENTED_EDGE('',*,*,#293,.T.);
#727 = ORIENTED_EDGE('',*,*,#400,.T.);
#728 = ORIENTED_EDGE('',*,*,#232,.T.);
#729 = ORIENTED_EDGE('',*,*,#706,.F.);
#730 = ADVANCED_FACE('',(#731),#387,.T.);
#731 = FACE_BOUND('',#732,.T.);
#732 = EDGE_LOOP('',(#733));
#733 = ORIENTED_EDGE('',*,*,#372,.T.);
#734 = ADVANCED_FACE('',(#735),#614,.F.);
#735 = FACE_BOUND('',#736,.F.);
#736 = EDGE_LOOP('',(#737,#738,#759,#760));
#737 = ORIENTED_EDGE('',*,*,#682,.F.);
#738 = ORIENTED_EDGE('',*,*,#739,.T.);
#739 = EDGE_CURVE('',#683,#493,#740,.T.);
#740 = SEAM_CURVE('',#741,(#745,#752),.PCURVE_S1.);
#741 = LINE('',#742,#743);
#742 = CARTESIAN_POINT('',(0.,1.,45.));
#743 = VECTOR('',#744,1.);
#744 = DIRECTION('',(-1.,-0.,-0.));
#745 = PCURVE('',#614,#746);
#746 = DEFINITIONAL_REPRESENTATION('',(#747),#751);
#747 = LINE('',#748,#749);
#748 = CARTESIAN_POINT('',(6.28318530718,0.));
#749 = VECTOR('',#750,1.);
#750 = DIRECTION('',(0.,-1.));
#751 = ( GEOMETRIC_REPRESENTATION_CONTEXT(2) 
PARAMETRIC_REPRESENTATION_CONTEXT() REPRESENTATION_CONTEXT('2D SPACE',''
  ) );
#752 = PCURVE('',#614,#753);
#753 = DEFINITIONAL_REPRESENTATION('',(#754),#758);
#754 = LINE('',#755,#756);
#755 = CARTESIAN_POINT('',(0.,0.));
#756 = VECTOR('',#757,1.);
#757 = DIRECTION('',(0.,-1.));
#758 = ( GEOMETRIC_REPRESENTATION_CONTEXT(2) 
PARAMETRIC_REPRESENTATION_CONTEXT() REPRESENTATION_CONTEXT('2D SPACE',''
  ) );
#759 = ORIENTED_EDGE('',*,*,#492,.T.);
#760 = ORIENTED_EDGE('',*,*,#739,.F.);
#761 = ( GEOMETRIC_REPRESENTATION_CONTEXT(3) 
GLOBAL_UNCERTAINTY_ASSIGNED_CONTEXT((#765)) GLOBAL_UNIT_ASSIGNED_CONTEXT
((#762,#763,#764)) REPRESENTATION_CONTEXT('Context #1',
  '3D Context with UNIT and UNCERTAINTY') );
#762 = ( LENGTH_UNIT() NAMED_UNIT(*) SI_UNIT(.MILLI.,.METRE.) );
#763 = ( NAMED_UNIT(*) PLANE_ANGLE_UNIT() SI_UNIT($,.RADIAN.) );
#764 = ( NAMED_UNIT(*) SI_UNIT($,.STERADIAN.) SOLID_ANGLE_UNIT() );
#765 = UNCERTAINTY_MEASURE_WITH_UNIT(LENGTH_MEASURE(1.E-07),#762,
  'distance_accuracy_value','confusion accuracy');
#766 = PRODUCT_RELATED_PRODUCT_CATEGORY('part',$,(#7));
ENDSEC;
END-ISO-10303-21;
